<svg width="21" height="21" viewBox="0 0 21 21" fill="none" xmlns="http://www.w3.org/2000/svg">
<path fill-rule="evenodd" clip-rule="evenodd" d="M20.4998 19.4423L14.8373 13.7498C17.6493 10.357 17.2985 5.35315 14.0405 2.38591C10.7825 -0.581317 5.76774 -0.464271 2.65173 2.65173C-0.464271 5.76774 -0.581317 10.7825 2.38591 14.0405C5.35315 17.2985 10.357 17.6493 13.7498 14.8373L19.4423 20.4998L20.4998 19.4423ZM1.74985 8.49985C1.74985 4.77193 4.77193 1.74985 8.49985 1.74985C12.2278 1.74985 15.2498 4.77193 15.2498 8.49985C15.2498 12.2278 12.2278 15.2498 8.49985 15.2498C4.77193 15.2498 1.74985 12.2278 1.74985 8.49985Z" fill="#999999"/>
</svg>
