<svg width="56" height="17" viewBox="0 0 56 17" fill="none" xmlns="http://www.w3.org/2000/svg">
<path d="M0.129883 5.30864H2.5756V6.86293C2.88036 6.39055 3.31465 6.0096 3.87845 5.72007C4.4575 5.41531 5.05179 5.26293 5.66131 5.26293H7.03274V7.54864H5.66131C4.79274 7.54864 4.09179 7.81531 3.55846 8.34864C3.02512 8.88198 2.75846 9.57531 2.75846 10.4286V16.7144H0.129883V5.30864ZM11.819 16.8972C10.6609 16.8972 9.72379 16.6077 9.0076 16.0286C8.30665 15.4344 7.95617 14.6496 7.95617 13.6744V12.8515C7.95617 11.8915 8.32188 11.122 9.05331 10.5429C9.79998 9.96388 10.7752 9.67436 11.979 9.67436H13.3962C13.8228 9.67436 14.28 9.73531 14.7676 9.85721C15.2552 9.97912 15.6895 10.1391 16.0705 10.3372V8.92007C16.0705 8.44769 15.9181 8.06674 15.6133 7.77721C15.3086 7.48769 14.9124 7.34293 14.4247 7.34293H12.5047C12.0019 7.34293 11.5981 7.46483 11.2933 7.70864C10.9885 7.93722 10.8362 8.24198 10.8362 8.62293H8.27617C8.27617 7.5715 8.66474 6.72579 9.44188 6.08579C10.219 5.44579 11.24 5.12579 12.5047 5.12579H14.4247C15.7047 5.12579 16.7333 5.47626 17.5105 6.17721C18.2876 6.86293 18.6762 7.77721 18.6762 8.92007V16.7144H16.2305V15.2744C15.8647 15.762 15.4076 16.1582 14.859 16.4629C14.3105 16.7525 13.7695 16.8972 13.2362 16.8972H11.819ZM13.3962 14.8401C14.0057 14.8401 14.5543 14.6725 15.0419 14.3372C15.5295 13.9867 15.8724 13.5296 16.0705 12.9658V12.4172C15.8114 12.2039 15.4457 12.0363 14.9733 11.9144C14.5009 11.7772 14.0057 11.7086 13.4876 11.7086H12.0476C11.5905 11.7086 11.2171 11.8229 10.9276 12.0515C10.6533 12.2801 10.5162 12.5772 10.5162 12.9429V13.5829C10.5162 13.9639 10.6609 14.2686 10.9505 14.4972C11.24 14.7258 11.6209 14.8401 12.0933 14.8401H13.3962ZM25.3549 16.8972C24.0597 16.8972 23.0083 16.4934 22.2006 15.6858C21.4083 14.8629 21.0121 13.7886 21.0121 12.4629V9.8115C21.0121 8.88198 21.2026 8.06674 21.5835 7.36579C21.9645 6.6496 22.4978 6.10102 23.1835 5.72007C23.8845 5.32388 24.6845 5.12579 25.5835 5.12579H26.9778C27.4502 5.12579 27.9149 5.23245 28.3721 5.44579C28.8445 5.65912 29.233 5.94102 29.5378 6.2915V0.714355H32.1435V16.7144H29.6978V15.1372C29.3778 15.6705 28.9511 16.0972 28.4178 16.4172C27.8844 16.7372 27.3435 16.8972 26.7949 16.8972H25.3549ZM27.0006 14.6344C27.6559 14.6344 28.2197 14.3753 28.6921 13.8572C29.1797 13.3239 29.4616 12.6686 29.5378 11.8915V9.60579C29.4311 8.95055 29.1721 8.41722 28.7606 8.00579C28.3645 7.59436 27.8845 7.38864 27.3206 7.38864H25.8578C25.1873 7.38864 24.6464 7.62483 24.2349 8.09721C23.8387 8.5696 23.6406 9.18674 23.6406 9.94864V12.3029C23.6406 13.0039 23.8235 13.5677 24.1892 13.9944C24.5702 14.421 25.0502 14.6344 25.6292 14.6344H27.0006ZM38.5601 16.8972C37.402 16.8972 36.4648 16.6077 35.7486 16.0286C35.0477 15.4344 34.6972 14.6496 34.6972 13.6744V12.8515C34.6972 11.8915 35.0629 11.122 35.7944 10.5429C36.541 9.96388 37.5163 9.67436 38.7201 9.67436H40.1372C40.5639 9.67436 41.021 9.73531 41.5086 9.85721C41.9963 9.97912 42.4305 10.1391 42.8115 10.3372V8.92007C42.8115 8.44769 42.6591 8.06674 42.3544 7.77721C42.0496 7.48769 41.6534 7.34293 41.1658 7.34293H39.2458C38.7429 7.34293 38.3391 7.46483 38.0344 7.70864C37.7296 7.93722 37.5772 8.24198 37.5772 8.62293H35.0172C35.0172 7.5715 35.4058 6.72579 36.1829 6.08579C36.9601 5.44579 37.981 5.12579 39.2458 5.12579H41.1658C42.4458 5.12579 43.4744 5.47626 44.2515 6.17721C45.0286 6.86293 45.4172 7.77721 45.4172 8.92007V16.7144H42.9715V15.2744C42.6058 15.762 42.1486 16.1582 41.6001 16.4629C41.0515 16.7525 40.5106 16.8972 39.9772 16.8972H38.5601ZM40.1372 14.8401C40.7467 14.8401 41.2953 14.6725 41.7829 14.3372C42.2705 13.9867 42.6134 13.5296 42.8115 12.9658V12.4172C42.5525 12.2039 42.1867 12.0363 41.7144 11.9144C41.242 11.7772 40.7467 11.7086 40.2286 11.7086H38.7886C38.3315 11.7086 37.9582 11.8229 37.6686 12.0515C37.3944 12.2801 37.2572 12.5772 37.2572 12.9429V13.5829C37.2572 13.9639 37.402 14.2686 37.6915 14.4972C37.981 14.7258 38.362 14.8401 38.8344 14.8401H40.1372ZM48.2099 5.30864H50.6556V6.86293C50.9604 6.39055 51.3946 6.0096 51.9585 5.72007C52.5375 5.41531 53.1318 5.26293 53.7413 5.26293H55.1127V7.54864H53.7413C52.8727 7.54864 52.1718 7.81531 51.6385 8.34864C51.1051 8.88198 50.8385 9.57531 50.8385 10.4286V16.7144H48.2099V5.30864Z" fill="white"/>
</svg>
