<svg width="53" height="17" viewBox="0 0 53 17" fill="none" xmlns="http://www.w3.org/2000/svg">
<path d="M5.83624 16.7144C4.67815 16.7144 3.84767 16.4706 3.34482 15.9829C2.84196 15.4801 2.59053 14.6572 2.59053 13.5144V6.40579H0.579102V5.30864H2.59053V1.85721H3.80195V5.30864H6.77339V6.40579H3.80195V13.5144C3.80195 14.261 3.95434 14.802 4.2591 15.1372C4.56386 15.4572 5.07434 15.6172 5.79053 15.6172H6.77339V16.7144H5.83624ZM10.0648 5.30864H11.2534V7.16007C11.5886 6.58102 12.0686 6.12388 12.6934 5.78864C13.3181 5.43817 13.9886 5.26293 14.7048 5.26293H15.5505V6.36007H14.682C13.6915 6.36007 12.8762 6.68007 12.2362 7.32007C11.6115 7.96007 11.2991 8.79055 11.2991 9.8115V16.7144H10.0648V5.30864ZM20.7858 16.8972C19.7191 16.8972 18.8658 16.6229 18.2258 16.0744C17.5858 15.5105 17.2658 14.7639 17.2658 13.8344V12.9658C17.2658 12.0363 17.5934 11.2972 18.2486 10.7486C18.9039 10.2001 19.7724 9.92579 20.8543 9.92579H22.34C22.8581 9.92579 23.3915 10.0096 23.9401 10.1772C24.5039 10.3448 24.9839 10.5734 25.38 10.8629V8.64579C25.38 7.9296 25.1591 7.34293 24.7172 6.88579C24.2753 6.42864 23.7039 6.20007 23.0029 6.20007H21.2201C20.5039 6.20007 19.9248 6.36769 19.4829 6.70293C19.041 7.03817 18.82 7.48769 18.82 8.0515H17.5858C17.5858 7.16769 17.921 6.45912 18.5915 5.92579C19.262 5.39245 20.1381 5.12579 21.2201 5.12579H23.0029C24.0848 5.12579 24.9458 5.44579 25.5858 6.08579C26.241 6.72579 26.5686 7.57912 26.5686 8.64579V16.7144H25.4029V14.9315C25.0067 15.541 24.5191 16.021 23.9401 16.3715C23.361 16.722 22.7743 16.8972 22.18 16.8972H20.7858ZM22.2029 15.8001C22.8429 15.8001 23.4524 15.5715 24.0315 15.1144C24.6258 14.6572 25.0753 14.0553 25.38 13.3086V12.0744C25.0448 11.7544 24.5953 11.4953 24.0315 11.2972C23.4829 11.0991 22.9191 11.0001 22.34 11.0001H20.8543C20.1381 11.0001 19.5667 11.1829 19.14 11.5486C18.7134 11.8991 18.5 12.3715 18.5 12.9658V13.8344C18.5 14.4286 18.7058 14.9086 19.1172 15.2744C19.5286 15.6248 20.0848 15.8001 20.7858 15.8001H22.2029ZM33.5134 16.8972C32.3858 16.8972 31.4715 16.5086 30.7705 15.7315C30.0696 14.9391 29.7191 13.9029 29.7191 12.6229V9.56007C29.7191 8.23436 30.0848 7.16769 30.8162 6.36007C31.5629 5.53721 32.5381 5.12579 33.742 5.12579H35.4791C36.0124 5.12579 36.5305 5.27055 37.0334 5.56007C37.5515 5.83436 37.9629 6.20769 38.2677 6.68007V0.714355H39.4791V16.7144H38.2905V14.7944C37.9096 15.4496 37.4372 15.9677 36.8734 16.3486C36.3248 16.7144 35.7458 16.8972 35.1362 16.8972H33.5134ZM35.1134 15.8001C35.8296 15.8001 36.4924 15.4877 37.102 14.8629C37.7115 14.2229 38.1 13.4534 38.2677 12.5544V8.8515C38.1153 8.07436 37.78 7.44198 37.262 6.95436C36.7439 6.46674 36.142 6.22293 35.4562 6.22293H33.7648C32.9115 6.22293 32.2258 6.52769 31.7077 7.13721C31.2048 7.74674 30.9534 8.55436 30.9534 9.56007V12.6229C30.9534 13.5677 31.1896 14.3372 31.662 14.9315C32.1496 15.5106 32.7743 15.8001 33.5362 15.8001H35.1134ZM46.7781 16.8972C45.5743 16.8972 44.5991 16.5315 43.8524 15.8001C43.121 15.0686 42.7553 14.101 42.7553 12.8972V9.35436C42.7553 8.08959 43.121 7.06864 43.8524 6.2915C44.5991 5.51436 45.5743 5.12579 46.7781 5.12579H48.6524C49.8105 5.12579 50.74 5.50674 51.441 6.26864C52.1572 7.01531 52.5153 8.01341 52.5153 9.26293V11.1829H43.9896V12.8972C43.9896 13.7658 44.241 14.4667 44.7439 15.0001C45.262 15.5334 45.94 15.8001 46.7781 15.8001H48.5153C49.3382 15.8001 50.001 15.5639 50.5039 15.0915C51.022 14.6039 51.281 13.9715 51.281 13.1944H52.4696C52.4696 14.3067 52.1039 15.2058 51.3724 15.8915C50.6562 16.562 49.7039 16.8972 48.5153 16.8972H46.7781ZM51.3039 10.1315V9.26293C51.3039 8.34864 51.0601 7.61721 50.5724 7.06864C50.0848 6.50483 49.4448 6.22293 48.6524 6.22293H46.7781C45.94 6.22293 45.262 6.51245 44.7439 7.0915C44.241 7.67055 43.9896 8.42483 43.9896 9.35436V10.1315H51.3039Z" fill="white"/>
</svg>
