<svg width="40" height="40" viewBox="0 0 40 40" fill="none" xmlns="http://www.w3.org/2000/svg">
<path d="M21.151 10.7173C22.3341 10.6073 23.1357 11.6827 24.1113 12.0175C25.1227 12.3644 26.619 12.0952 27.3225 12.8312C28.0261 13.5671 27.7108 15.0721 28.0198 16.1065C28.318 17.1045 29.3535 17.9509 29.2059 19.1442C29.0581 20.3375 27.7865 21.3981 27.2316 22.4755C26.6561 23.5923 26.6018 25.0728 25.6977 25.9582C24.7936 26.8435 23.3298 26.8495 22.2079 27.3946C21.1258 27.9205 20.0362 29.1718 18.8531 29.2817C17.67 29.3917 16.8684 28.3161 15.8928 27.9815C14.8814 27.6345 13.385 27.9038 12.6815 27.1677C11.9781 26.4318 12.2933 24.9268 11.9842 23.8923C11.6861 22.8943 10.6506 22.0481 10.7982 20.8547C10.946 19.6614 12.2176 18.6008 12.7725 17.5235C13.348 16.4066 13.4023 14.9261 14.3064 14.0407C15.2105 13.1554 16.6743 13.1494 17.7961 12.6042C18.8783 12.0783 19.9678 10.8271 21.151 10.7173Z" stroke="url(#paint0_linear_286:4984)" stroke-width="0.2" stroke-miterlimit="10"/>
<path d="M21.5321 10.5602C22.7354 10.4952 23.5048 11.6263 24.4802 12.0074C25.4914 12.4024 27.0184 12.1872 27.702 12.9674C28.3856 13.7477 28.0064 15.2729 28.2786 16.3425C28.5413 17.3743 29.557 18.2805 29.36 19.4941C29.1629 20.7077 27.8324 21.7408 27.2273 22.8195C26.6 23.9378 26.4862 25.4487 25.5349 26.3173C24.5836 27.1859 23.1001 27.1334 21.9417 27.6457C20.8242 28.14 19.6707 29.3749 18.4675 29.44C17.2641 29.505 16.4947 28.3739 15.5193 27.9928C14.5081 27.5978 12.9811 27.8131 12.2976 27.0328C11.614 26.2525 11.9931 24.7274 11.7209 23.6578C11.4582 22.626 10.4425 21.7197 10.6396 20.5061C10.8366 19.2925 12.1671 18.2595 12.7722 17.1807C13.3996 16.0624 13.5133 14.5515 14.4646 13.6829C15.416 12.8143 16.8995 12.8668 18.0579 12.3545C19.1753 11.8603 20.3288 10.6253 21.5321 10.5602Z" stroke="url(#paint1_linear_286:4984)" stroke-width="0.2" stroke-miterlimit="10"/>
<path d="M21.9246 10.4129C23.1464 10.3945 23.8814 11.5813 24.8547 12.0096C25.8635 12.4537 27.4194 12.2948 28.0812 13.1194C28.7431 13.9441 28.2983 15.4877 28.5318 16.5917C28.7569 17.6567 29.7502 18.6235 29.5025 19.8557C29.2548 21.088 27.8657 22.0906 27.2097 23.1688C26.5295 24.2865 26.3544 25.8261 25.3561 26.6758C24.3578 27.5253 22.8567 27.4123 21.6625 27.8896C20.5106 28.35 19.2929 29.566 18.0709 29.5843C16.849 29.6028 16.1141 28.4161 15.1408 27.9878C14.132 27.5436 12.5761 27.7025 11.9143 26.8779C11.2524 26.0532 11.6972 24.5097 11.4638 23.4057C11.2386 22.3406 10.2453 21.3739 10.493 20.1416C10.7407 18.9094 12.1299 17.9066 12.7859 16.8284C13.466 15.7108 13.6411 14.1712 14.6394 13.3216C15.6378 12.472 17.1388 12.585 18.333 12.1078C19.4849 11.6473 20.7028 10.4312 21.9246 10.4129Z" stroke="url(#paint2_linear_286:4984)" stroke-width="0.2" stroke-miterlimit="10"/>
<path d="M22.3314 10.2807C23.5703 10.3108 24.2679 11.5529 25.237 12.0296C26.2418 12.5239 27.8245 12.4236 28.4624 13.2928C29.1003 14.162 28.5885 15.7217 28.7815 16.8592C28.9675 17.9565 29.9357 18.9841 29.6358 20.2337C29.3359 21.4832 27.8886 22.4522 27.1811 23.5279C26.4476 24.643 26.2092 26.2093 25.1639 27.0376C24.1185 27.866 22.6019 27.6904 21.373 28.1304C20.1876 28.5549 18.9054 29.7489 17.6664 29.7188C16.4275 29.6887 15.73 28.4466 14.7607 27.97C13.7561 27.4758 12.1733 27.5761 11.5354 26.7067C10.8975 25.8376 11.4092 24.2779 11.2163 23.1403C11.0303 22.0431 10.0621 21.0154 10.3621 19.7659C10.662 18.5165 12.1092 17.5473 12.8167 16.4718C13.5501 15.3566 13.7886 13.7903 14.834 12.962C15.8793 12.1337 17.3959 12.3091 18.6247 11.8691C19.8102 11.4446 21.0925 10.2506 22.3314 10.2807Z" stroke="url(#paint3_linear_286:4984)" stroke-width="0.2" stroke-miterlimit="10"/>
<path d="M22.7505 10.1618C24.0048 10.2421 24.6623 11.5393 25.6256 12.0652C26.624 12.6103 28.2319 12.5713 28.8439 13.4851C29.4558 14.3989 28.8754 15.9722 29.0256 17.1425C29.1705 18.2713 30.1109 19.3601 29.7575 20.6251C29.4041 21.8901 27.899 22.8224 27.1396 23.8935C26.3521 25.0038 26.0486 26.5948 24.9564 27.3995C23.8644 28.2041 22.3345 27.9643 21.0719 28.3648C19.8539 28.7512 18.5072 29.9201 17.253 29.8398C15.9987 29.7594 15.3412 28.4622 14.378 27.9363C13.3796 27.3912 11.7717 27.4303 11.1598 26.5165C10.5478 25.6026 11.1281 24.0293 10.978 22.8591C10.833 21.7302 9.89262 20.6414 10.2461 19.3764C10.5995 18.1115 12.1045 17.1792 12.864 16.1081C13.6514 14.9979 13.9549 13.4067 15.0471 12.6021C16.1391 11.7974 17.669 12.0372 18.9317 11.6367C20.1498 11.2505 21.4963 10.0817 22.7505 10.1618Z" stroke="url(#paint4_linear_286:4984)" stroke-width="0.2" stroke-miterlimit="10"/>
<path d="M23.1742 10.055C24.4419 10.1871 25.0569 11.5391 26.0121 12.1151C27.0022 12.7121 28.633 12.7364 29.217 13.6947C29.8008 14.6531 29.1503 16.2378 29.2562 17.4396C29.3583 18.599 30.2681 19.7495 29.8599 21.028C29.4517 22.3064 27.8897 23.1991 27.0775 24.2632C26.2356 25.3663 25.8647 26.9801 24.7262 27.7588C23.5877 28.5375 22.047 28.2312 20.7517 28.5899C19.5021 28.936 18.0913 30.0766 16.8235 29.9445C15.5559 29.8124 14.9407 28.4604 13.9857 27.8845C12.9956 27.2874 11.3648 27.2632 10.7808 26.3048C10.197 25.3465 10.8475 23.7619 10.7416 22.56C10.6395 21.4006 9.72977 20.2501 10.138 18.9716C10.5461 17.6931 12.1082 16.8004 12.9203 15.7363C13.7622 14.6332 14.1331 13.0195 15.2716 12.2407C16.4101 11.4621 17.9508 11.7683 19.2461 11.4097C20.4957 11.0636 21.9066 9.92281 23.1742 10.055Z" stroke="url(#paint5_linear_286:4984)" stroke-width="0.2" stroke-miterlimit="10"/>
<path d="M23.6123 9.96339C24.8917 10.1491 25.4613 11.5553 26.4063 12.1821C27.3861 12.8318 29.0375 12.9219 29.5912 13.9245C30.1449 14.9272 29.4228 16.5206 29.4824 17.7531C29.54 18.9421 30.4161 20.1541 29.9519 21.4442C29.4875 22.7344 27.8694 23.5843 27.0042 24.6392C26.1074 25.7328 25.6677 27.3673 24.4832 28.1176C23.2987 28.8679 21.7497 28.4932 20.4229 28.808C19.143 29.1118 17.6682 30.221 16.3888 30.0354C15.1095 29.8497 14.54 28.4435 13.5949 27.8167C12.6152 27.1669 10.9638 27.0769 10.4101 26.0742C9.85643 25.0715 10.5783 23.4781 10.5187 22.2456C10.4613 21.0567 9.5851 19.8447 10.0494 18.5545C10.5138 17.2643 12.1318 16.4144 12.997 15.3595C13.8938 14.266 14.3335 12.6315 15.518 11.8812C16.7024 11.1308 18.2516 11.5055 19.5783 11.1906C20.8582 10.887 22.333 9.77777 23.6123 9.96339Z" stroke="url(#paint6_linear_286:4984)" stroke-width="0.2" stroke-miterlimit="10"/>
<path d="M24.0581 9.88824C25.3471 10.1292 25.8684 11.589 26.8012 12.2673C27.7681 12.9703 29.4381 13.1284 29.9594 14.1753C30.4807 15.2221 29.6859 16.8216 29.6975 18.0835C29.7086 19.3007 30.5483 20.5744 30.0267 21.8742C29.5051 23.1741 27.8318 23.978 26.9132 25.0215C25.9611 26.1032 25.4508 27.756 24.2207 28.4753C22.9907 29.1946 21.4359 28.75 20.0789 29.0186C18.7699 29.2779 17.2315 30.3526 15.9425 30.1116C14.6537 29.8706 14.1321 28.4108 13.1994 27.7325C12.2325 27.0295 10.5625 26.8714 10.0412 25.8246C9.51987 24.7778 10.3147 23.1783 10.3031 21.9163C10.2921 20.6991 9.45224 19.4255 9.97386 18.1256C10.4955 16.8257 12.1689 16.0219 13.0874 14.9783C14.0395 13.8966 14.5498 12.2439 15.7799 11.5245C17.0099 10.8052 18.5647 11.2499 19.9217 10.9813C21.2305 10.7221 22.769 9.64729 24.0581 9.88824Z" stroke="url(#paint7_linear_286:4984)" stroke-width="0.2" stroke-miterlimit="10"/>
<path d="M24.5137 9.82843C25.8102 10.1262 26.2806 11.639 27.199 12.3695C28.1509 13.1266 29.8369 13.3549 30.3236 14.4457C30.8102 15.5362 29.9416 17.1392 29.9032 18.4291C29.8662 19.6735 30.6668 21.0085 30.0865 22.3163C29.5064 23.6239 27.779 24.3785 26.807 25.4081C25.7994 26.4757 25.2167 28.1441 23.9418 28.8301C22.6669 29.5161 21.109 28.9994 19.7234 29.2198C18.3867 29.4323 16.7852 30.4692 15.4886 30.1714C14.1921 29.8737 13.7216 28.3609 12.8032 27.6304C11.8513 26.8733 10.1654 26.645 9.67872 25.5542C9.19205 24.4637 10.0606 22.8609 10.099 21.5708C10.136 20.3264 9.33544 18.9913 9.91567 17.6836C10.4958 16.376 12.2233 15.6214 13.1953 14.5918C14.2028 13.5242 14.7855 11.8557 16.0604 11.1698C17.3354 10.4838 18.8932 11.0005 20.2788 10.7801C21.6156 10.5675 23.2172 9.53072 24.5137 9.82843Z" stroke="url(#paint8_linear_286:4984)" stroke-width="0.2" stroke-miterlimit="10"/>
<path d="M24.9766 9.78558C26.2786 10.1417 26.6954 11.7063 27.5969 12.4897C28.5314 13.3016 30.2308 13.6021 30.6806 14.7361C31.1306 15.8701 30.1868 17.4735 30.0968 18.7901C30.0101 20.0604 30.7682 21.4569 30.1285 22.7701C29.4887 24.0832 27.7083 24.7851 26.6827 25.7985C25.6194 26.849 24.9628 28.531 23.6438 29.181C22.3247 29.831 20.7666 29.2408 19.3538 29.4105C17.9909 29.5743 16.3269 30.57 15.0249 30.2137C13.7229 29.8576 13.3061 28.2929 12.4046 27.5096C11.4701 26.6977 9.77072 26.397 9.32088 25.2631C8.87089 24.1291 9.81462 22.5258 9.90472 21.209C9.99148 19.9388 9.23328 18.5423 9.87301 17.2292C10.5127 15.9161 12.2932 15.2141 13.3188 14.2007C14.3821 13.1502 15.0387 11.4682 16.3578 10.8182C17.6768 10.1682 19.2349 10.7584 20.6478 10.5886C22.0107 10.4249 23.6746 9.42931 24.9766 9.78558Z" stroke="url(#paint9_linear_286:4984)" stroke-width="0.2" stroke-miterlimit="10"/>
<path d="M25.4469 9.7612C26.7521 10.1772 27.1122 11.7928 27.9948 12.6293C28.9097 13.4963 30.6196 13.8716 31.0306 15.0485C31.4417 16.2254 30.4217 17.8261 30.2783 19.1681C30.1401 20.4627 30.853 21.9201 30.1528 23.2364C29.4525 24.5527 27.6206 25.1991 26.541 26.1936C25.4219 27.2247 24.69 28.9172 23.3276 29.5289C21.9652 30.1405 20.4099 29.4749 18.9716 29.592C17.5841 29.7048 15.8585 30.6557 14.5533 30.2397C13.2481 29.8237 12.8879 28.2081 12.0053 27.3715C11.0904 26.5045 9.38053 26.1293 8.96949 24.9523C8.55845 23.7755 9.57843 22.1748 9.72177 20.8327C9.86005 19.5381 9.14712 18.0807 9.84739 16.7644C10.5476 15.4481 12.3795 14.8018 13.4591 13.8072C14.5782 12.7761 15.3101 11.0836 16.6725 10.472C18.0349 9.86034 19.5903 10.526 21.0286 10.4089C22.4161 10.2961 24.1417 9.3453 25.4469 9.7612Z" stroke="url(#paint10_linear_286:4984)" stroke-width="0.2" stroke-miterlimit="10"/>
<path d="M25.9261 9.75348C27.2321 10.2309 27.5332 11.8962 28.3943 12.7864C29.2869 13.7091 31.0048 14.1609 31.3746 15.38C31.7444 16.599 30.6474 18.194 30.4491 19.5598C30.2577 20.8774 30.9223 22.3951 30.1606 23.7124C29.3989 25.0296 27.5169 25.6168 26.3837 26.5902C25.2087 27.5991 24.4 29.2995 22.9952 29.8701C21.5904 30.4405 20.0407 29.6982 18.5786 29.7603C17.1681 29.8202 15.3821 30.7229 14.0759 30.2457C12.7699 29.7682 12.4688 28.1029 11.6077 27.2127C10.7151 26.2901 8.99717 25.8382 8.62736 24.6192C8.25756 23.4001 9.35457 21.8052 9.55291 20.4394C9.74434 19.1218 9.07963 17.6041 9.84139 16.2867C10.6031 14.9696 12.4851 14.3823 13.6183 13.409C14.7932 12.4001 15.6021 10.6997 17.0068 10.1291C18.4116 9.55863 19.9613 10.3009 21.4234 10.2388C22.8339 10.1788 24.6201 9.27611 25.9261 9.75348Z" stroke="url(#paint11_linear_286:4984)" stroke-width="0.2" stroke-miterlimit="10"/>
<path d="M26.4084 9.76548C27.713 10.3055 27.952 12.0196 28.7892 12.9637C29.6571 13.9422 31.3799 14.4727 31.7062 15.7332C32.0327 16.9939 30.858 18.58 30.6027 19.9679C30.3564 21.3067 30.9698 22.8843 30.1458 24.2C29.3217 25.5157 27.3915 26.0404 26.2044 26.9898C24.9739 27.9739 24.0868 29.6793 22.6409 30.2061C21.1949 30.733 19.6539 29.9124 18.17 29.9174C16.7383 29.9222 14.8926 30.7733 13.5881 30.2333C12.2836 29.6933 12.0446 27.9792 11.2074 27.0351C10.3395 26.0565 8.61675 25.5261 8.29032 24.2656C7.96388 23.0049 9.13864 21.4188 9.39389 20.0309C9.64015 18.6921 9.02679 17.1144 9.85091 15.7988C10.6749 14.4831 12.6052 13.9583 13.7921 13.009C15.0227 12.0248 15.9098 10.3195 17.3557 9.79262C18.8017 9.26571 20.3427 10.0863 21.8266 10.0814C23.2582 10.0765 25.104 9.22547 26.4084 9.76548Z" stroke="url(#paint12_linear_286:4984)" stroke-width="0.2" stroke-miterlimit="10"/>
<path d="M26.9024 9.79758C28.2029 10.4017 28.3771 12.1628 29.1881 13.1609C30.0287 14.1958 31.7535 14.8065 32.0341 16.108C32.3149 17.4093 31.0617 18.9833 30.748 20.3913C30.4453 21.7497 31.0043 23.3864 30.117 24.698C29.2299 26.0096 27.2532 26.4687 26.0126 27.3914C24.7267 28.3479 23.7604 30.0552 22.2741 30.5359C20.788 31.0165 19.2591 30.1162 17.7552 30.0621C16.3043 30.0097 14.4003 30.8058 13.1 30.2017C11.7995 29.5977 11.6253 27.8365 10.8143 26.8383C9.97367 25.8036 8.24892 25.1928 7.96828 23.8913C7.6875 22.59 8.94074 21.0161 9.25447 19.6081C9.5571 18.2496 8.99809 16.6129 9.88539 15.3013C10.7725 13.9897 12.7492 13.5306 13.9898 12.608C15.2757 11.6515 16.242 9.94405 17.7282 9.46343C19.2144 8.98277 20.7433 9.88301 22.2472 9.93729C23.698 9.98958 25.6019 9.19363 26.9024 9.79758Z" stroke="url(#paint13_linear_286:4984)" stroke-width="0.2" stroke-miterlimit="10"/>
<path d="M27.3943 9.85034C28.6882 10.5196 28.795 12.3263 29.5771 13.3789C30.388 14.4699 32.1113 15.1631 32.3442 16.5042C32.5771 17.8454 31.2448 19.4038 30.8712 20.8302C30.5108 22.2063 31.0122 23.9013 30.0612 25.2061C29.1102 26.511 27.0891 26.9012 25.7955 27.7945C24.4544 28.7205 23.4077 30.4266 21.8826 30.8585C20.3577 31.2902 18.8441 30.3092 17.3222 30.1937C15.8543 30.0822 13.8933 30.8196 12.5996 30.1503C11.3057 29.481 11.1989 27.6742 10.4168 26.6218C9.60596 25.5307 7.8825 24.8375 7.64966 23.4963C7.41681 22.1552 8.74909 20.5968 9.12275 19.1703C9.48314 17.7943 8.98165 16.0994 9.93272 14.7944C10.8838 13.4896 12.9048 13.0994 14.1984 12.2061C15.5395 11.2801 16.5862 9.57396 18.1113 9.14208C19.6362 8.71035 21.1498 9.69139 22.6717 9.80691C24.1396 9.91834 26.1004 9.18102 27.3943 9.85034Z" stroke="url(#paint14_linear_286:4984)" stroke-width="0.2" stroke-miterlimit="10"/>
<path d="M27.8968 9.92291C29.1814 10.6585 29.2179 12.5093 29.9687 13.6161C30.7472 14.7635 32.466 15.5409 32.6488 16.9207C32.8318 18.3005 31.4199 19.84 30.9847 21.2826C30.565 22.6744 31.0059 24.4267 29.9906 25.7221C28.9752 27.0177 26.9116 27.3357 25.5655 28.1968C24.17 29.0897 23.0416 30.7913 21.4792 31.1716C19.9167 31.5518 18.422 30.4887 16.8845 30.3098C15.4015 30.1372 13.3852 30.8123 12.1006 30.0767C10.8161 29.3411 10.7796 27.4903 10.0287 26.3835C9.25029 25.2361 7.53152 24.4586 7.34862 23.0789C7.16571 21.6991 8.5776 20.1597 9.01274 18.7169C9.43248 17.3252 8.99162 15.5729 10.0069 14.2774C11.0222 12.982 13.0859 12.664 14.4321 11.8027C15.8275 10.91 16.9559 9.20827 18.5182 8.82804C20.0807 8.44782 21.5755 9.51087 23.1129 9.68977C24.596 9.86243 26.6122 9.18729 27.8968 9.92291Z" stroke="url(#paint15_linear_286:4984)" stroke-width="0.2" stroke-miterlimit="10"/>
<path d="M28.4009 10.0179C29.6734 10.8209 29.637 12.7138 30.354 13.875C31.0971 15.0787 32.8081 15.9417 32.9386 17.3592C33.0691 18.7766 31.5775 20.2932 31.0794 21.7502C30.5989 23.1557 30.9762 24.9641 29.896 26.2474C28.8158 27.5307 26.7121 27.7731 25.3139 28.5995C23.8645 29.4561 22.6535 31.1499 21.0553 31.4761C19.457 31.8023 17.9845 30.6561 16.4337 30.4119C14.9376 30.1761 12.8679 30.7855 11.5954 29.9824C10.3229 29.1793 10.3593 27.2864 9.64234 26.1253C8.89915 24.9215 7.18822 24.0585 7.05768 22.641C6.92713 21.2236 8.41877 19.707 8.91684 18.2501C9.39736 16.8445 9.02 15.0361 10.1003 13.7528C11.1804 12.4695 13.2841 12.2271 14.6823 11.4007C16.1318 10.5441 17.3428 8.85033 18.941 8.52404C20.5392 8.19789 22.0118 9.34412 23.5626 9.58834C25.0586 9.82396 27.1284 9.21472 28.4009 10.0179Z" stroke="url(#paint16_linear_286:4984)" stroke-width="0.2" stroke-miterlimit="10"/>
<path d="M28.9121 10.1345C30.1696 11.0061 30.0578 12.939 30.7382 14.1542C31.4437 15.4141 33.1432 16.3645 33.2192 17.8182C33.2954 19.272 31.7237 20.7623 31.1612 22.2313C30.6185 23.6484 30.9292 25.5116 29.7837 26.7798C28.6381 28.0481 26.4969 28.2117 25.0474 29.0002C23.5447 29.8176 22.2505 31.5002 20.6181 31.7696C18.9857 32.039 17.5389 30.8089 15.9773 30.4971C14.4706 30.1965 12.3491 30.7364 11.0916 29.8648C9.83405 28.9932 9.94596 27.0602 9.26537 25.845C8.56 24.5852 6.86048 23.6347 6.78443 22.181C6.70825 20.7274 8.27993 19.237 8.84248 17.7681C9.38507 16.3509 9.07447 14.4877 10.22 13.2195C11.3654 11.9513 13.5066 11.7877 14.9561 10.9991C16.4587 10.1817 17.7529 8.49904 19.3854 8.22953C21.0179 7.96017 22.4645 9.19029 24.0262 9.50202C25.533 9.80282 27.6545 9.26277 28.9121 10.1345Z" stroke="url(#paint17_linear_286:4984)" stroke-width="0.2" stroke-miterlimit="10"/>
<path d="M29.4211 10.2743C30.6608 11.2154 30.4709 13.1861 31.1122 14.4553C31.7771 15.7709 33.4615 16.8102 33.481 18.2989C33.5006 19.7876 31.849 21.2477 31.2207 22.7265C30.6146 24.1531 30.8556 26.0695 29.6445 27.3197C28.4336 28.57 26.2574 28.6515 24.7573 29.3994C23.2023 30.1747 21.8241 31.8425 20.1593 32.0525C18.4944 32.2625 17.0773 30.9476 15.507 30.5666C13.9922 30.1991 11.8212 30.6661 10.5814 29.7251C9.34172 28.7841 9.53158 26.8133 8.89031 25.5441C8.22545 24.2285 6.54106 23.1892 6.52152 21.7005C6.50197 20.2119 8.15355 18.7518 8.78187 17.273C9.38795 15.8464 9.14698 13.9301 10.358 12.6798C11.569 11.4296 13.7452 11.348 15.2452 10.6001C16.8002 9.82472 18.1784 8.15692 19.8433 7.94691C21.5081 7.73689 22.9253 9.05191 24.4955 9.43284C26.0102 9.80024 28.1815 9.33325 29.4211 10.2743Z" stroke="url(#paint18_linear_286:4984)" stroke-width="0.2" stroke-miterlimit="10"/>
<path d="M29.93 10.4379C31.1488 11.4492 30.8781 13.4556 31.4779 14.7781C32.0995 16.1492 33.765 17.2786 33.7257 18.8006C33.6864 20.3226 31.9549 21.7488 31.2597 23.235C30.589 24.6686 30.7572 26.6368 29.4806 27.8661C28.204 29.0953 25.9955 29.0918 24.4458 29.7961C22.8393 30.5263 21.3768 32.1755 19.6814 32.3237C17.9861 32.4718 16.6022 31.0713 15.0261 30.6192C13.5059 30.183 11.2873 30.5735 10.0684 29.5622C8.84958 28.551 9.12023 26.5446 8.52058 25.2221C7.89896 23.8509 6.2334 22.7216 6.27278 21.1995C6.31201 19.6775 8.04348 18.2514 8.73872 16.7651C9.40943 15.3316 9.24121 13.3634 10.5179 12.1341C11.7944 10.9048 14.0029 10.9084 15.5526 10.2041C17.1591 9.47385 18.6217 7.8247 20.317 7.67646C22.0124 7.52837 23.3961 8.92884 24.9722 9.38097C26.4926 9.8171 28.7111 9.42663 29.93 10.4379Z" stroke="url(#paint19_linear_286:4984)" stroke-width="0.2" stroke-miterlimit="10"/>
<path d="M30.4415 10.6253C31.6365 11.7074 31.2826 13.7471 31.8378 15.1226C32.4133 16.5486 34.0562 17.7693 33.9561 19.3233C33.8559 20.8771 32.045 22.2653 31.2815 23.7562C30.5452 25.1945 30.6375 27.2125 29.2951 28.4177C27.9527 29.6228 25.7152 29.5309 24.1168 30.1888C22.46 30.8707 20.9126 32.4977 19.1889 32.5813C17.4651 32.6649 16.1183 31.1782 14.5394 30.6533C13.0161 30.1468 10.7525 30.4572 9.55748 29.375C8.36248 28.2928 8.71631 26.2532 8.16117 24.8777C7.58563 23.4517 5.94276 22.2309 6.04291 20.6769C6.14307 19.1231 7.95401 17.7349 8.71745 16.244C9.45379 14.8057 9.36147 12.7878 10.7039 11.5826C12.0462 10.3775 14.2838 10.4693 15.8821 9.81148C17.539 9.12948 19.0863 7.50259 20.8101 7.41899C22.5339 7.33538 23.8807 8.82202 25.4597 9.34692C26.9829 9.85329 29.2464 9.5431 30.4415 10.6253Z" stroke="url(#paint20_linear_286:4984)" stroke-width="0.2" stroke-miterlimit="10"/>
<path d="M30.9512 10.8365C32.1192 11.9901 31.68 14.0603 32.1879 15.4883C32.7144 16.9686 34.3308 18.2819 34.1679 19.8659C34.0048 21.4498 32.1146 22.7961 31.2821 24.2893C30.4788 25.7297 30.4924 27.7956 29.0844 28.9735C27.6764 30.1515 25.4126 29.9681 23.7672 30.5764C22.0614 31.207 20.4288 32.8078 18.6788 32.8243C16.9287 32.8409 15.623 31.2678 14.0438 30.6681C12.5203 30.0898 10.2144 30.3163 9.0464 29.1626C7.87834 28.009 8.31763 25.9388 7.80971 24.5108C7.28311 23.0306 5.66677 21.7173 5.8297 20.1334C5.99278 18.5494 7.8829 17.2031 8.71554 15.71C9.51879 14.2695 9.50508 12.2036 10.9131 11.0257C12.3212 9.84767 14.5849 10.0311 16.2303 9.42279C17.9361 8.79218 19.5687 7.19139 21.3188 7.17484C23.0688 7.15829 24.3745 8.7314 25.9538 9.33105C27.4771 9.90948 29.7831 9.68291 30.9512 10.8365Z" stroke="url(#paint21_linear_286:4984)" stroke-width="0.2" stroke-miterlimit="10"/>
<path d="M31.4601 11.0734C32.598 12.2991 32.0708 14.3971 32.5289 15.8767C33.0039 17.4106 34.5897 18.8172 34.3617 20.4294C34.1337 22.0416 32.1651 23.3418 31.2621 24.8344C30.3911 26.2742 30.3231 28.3861 28.8497 29.5336C27.3763 30.6811 25.0897 30.4032 23.3981 30.9591C21.6444 31.5353 19.9268 33.106 18.1528 33.0529C16.3788 32.9999 15.1181 31.3401 13.5417 30.6641C12.0209 30.0121 9.67539 30.1516 8.53742 28.9259C7.39961 27.7001 7.92678 25.6021 7.46865 24.1225C6.9937 22.5886 5.4079 21.1821 5.63589 19.5698C5.86388 17.9576 7.83247 16.6575 8.73544 15.1648C9.60643 13.7249 9.67453 11.6131 11.1479 10.4656C12.6213 9.31808 14.9079 9.59605 16.5996 9.04016C18.3531 8.46391 20.0707 6.89322 21.8447 6.9463C23.6187 6.99938 24.8796 8.65922 26.456 9.33506C27.9766 9.9871 30.3223 9.84786 31.4601 11.0734Z" stroke="url(#paint22_linear_286:4984)" stroke-width="0.2" stroke-miterlimit="10"/>
<path d="M31.9681 11.3366C33.0726 12.6346 32.4551 14.7576 32.8607 16.2881C33.2812 17.8745 34.8323 19.3754 34.5374 21.0138C34.2425 22.6522 32.1961 23.9023 31.2221 25.3916C30.2823 26.8281 30.1297 28.9835 28.5911 30.0973C27.0525 31.2112 24.7467 30.8357 23.0105 31.3361C21.2108 31.8549 19.4081 33.3913 17.6126 33.2662C15.8173 33.1411 14.6054 31.3945 13.0348 30.6407C11.5197 29.9137 9.13747 29.9622 8.03304 28.6641C6.92862 27.3661 7.5461 25.2432 7.14048 23.7127C6.72003 22.1262 5.1689 20.6255 5.4638 18.987C5.7587 17.3485 7.80505 16.0984 8.77922 14.6092C9.71881 13.1726 9.87148 11.0173 11.4101 9.90348C12.9487 8.78962 15.2545 9.16514 16.9907 8.66464C18.7904 8.14588 20.5932 6.60944 22.3886 6.73457C24.184 6.85969 25.3959 8.60629 26.9663 9.36002C28.4814 10.0872 30.8638 10.0385 31.9681 11.3366Z" stroke="url(#paint23_linear_286:4984)" stroke-width="0.2" stroke-miterlimit="10"/>
<path d="M32.4692 11.6241C33.5368 12.9948 32.827 15.1398 33.1773 16.7199C33.5403 18.3579 35.0527 19.9538 34.6889 21.6163C34.3251 23.2789 32.202 24.4746 31.1559 25.9576C30.1468 27.3881 29.9066 29.5847 28.3035 30.6614C26.7002 31.7381 24.3785 31.2621 22.5994 31.7043C20.7552 32.1625 18.8675 33.6606 17.0532 33.4609C15.2388 33.2611 14.0801 31.4278 12.5184 30.5947C11.012 29.7911 8.59611 29.7456 7.5285 28.3749C6.46088 27.0042 7.17067 24.8593 6.82042 23.2792C6.45731 21.6412 4.94499 20.0453 5.3088 18.3827C5.67262 16.7201 7.79572 15.5244 8.8418 14.0415C9.85091 12.6109 10.091 10.4143 11.6942 9.33769C13.2975 8.26095 15.6192 8.7369 17.3982 8.29476C19.2424 7.83649 21.1301 6.33843 22.9445 6.53818C24.7589 6.73792 25.9176 8.57125 27.4792 9.40432C28.9856 10.208 31.4016 10.2535 32.4692 11.6241Z" stroke="url(#paint24_linear_286:4984)" stroke-width="0.2" stroke-miterlimit="10"/>
<path d="M32.9659 11.9396C33.9934 13.383 33.1891 15.5464 33.4815 17.1754C33.7844 18.8639 35.2537 20.5551 34.8191 22.2397C34.3845 23.9242 32.1859 25.0611 31.067 26.5348C29.9879 27.9564 29.6574 30.1915 27.9901 31.2278C26.323 32.264 23.9892 31.6848 22.1689 32.0655C20.282 32.4601 18.3098 33.9156 16.4793 33.6389C14.6487 33.3622 13.5474 31.4424 11.998 30.5286C10.5034 29.6471 8.05708 29.504 7.02955 28.0605C6.00202 26.6171 6.80627 24.4537 6.51393 22.8247C6.2109 21.1362 4.74165 19.445 5.17623 17.7604C5.61081 16.076 7.80954 14.939 8.92838 13.4653C10.0076 12.0437 10.338 9.80862 12.0053 8.77238C13.6723 7.73615 16.0062 8.31526 17.8264 7.93461C19.7134 7.53998 21.6856 6.08458 23.5161 6.36122C25.3467 6.63786 26.448 8.55766 27.9974 9.47147C29.4921 10.353 31.9384 10.4961 32.9659 11.9396Z" stroke="url(#paint25_linear_286:4984)" stroke-width="0.2" stroke-miterlimit="10"/>
<path d="M33.4602 12.2804C34.4442 13.7966 33.5434 15.9756 33.7751 17.6518C34.0152 19.3894 35.437 21.1767 34.9298 22.8807C34.4227 24.5848 32.1495 25.6589 30.9575 27.1201C29.8076 28.5298 29.3841 30.8006 27.6538 31.7931C25.9233 32.7854 23.5815 32.1002 21.7219 32.4164C19.7942 32.7441 17.7381 34.1527 15.8941 33.7969C14.0502 33.4411 13.0103 31.435 11.4764 30.4393C9.99672 29.4786 7.52368 29.2345 6.53982 27.7185C5.55581 26.2023 6.45663 24.0234 6.22494 22.3472C5.98482 20.6096 4.56309 18.8223 5.07029 17.1182C5.57735 15.4141 7.85055 14.3401 9.04258 12.8788C10.1925 11.4693 10.616 9.19833 12.3463 8.2059C14.0768 7.21361 16.4186 7.89873 18.2781 7.58257C20.2059 7.25484 22.2619 5.84624 24.106 6.20206C25.9499 6.55789 26.9898 8.56401 28.5237 9.55967C30.0031 10.5203 32.4763 10.7644 33.4602 12.2804Z" stroke="url(#paint26_linear_286:4984)" stroke-width="0.2" stroke-miterlimit="10"/>
<path d="M33.9459 12.6497C34.8828 14.2384 33.8837 16.429 34.0521 18.1514C34.2265 19.9368 35.5961 21.82 35.0148 23.5411C34.4334 25.2623 32.0874 26.269 30.8217 27.7147C29.6005 29.1094 29.0815 31.4131 27.2886 32.358C25.4958 33.3029 23.15 32.5091 21.2532 32.7579C19.2868 33.0159 17.1476 34.3731 15.2932 33.9357C13.4388 33.4982 12.4645 31.4066 10.9498 30.3278C9.48854 29.287 6.99221 28.9387 6.05527 27.3499C5.11834 25.7611 6.11748 23.5705 5.94912 21.8481C5.77463 20.0628 4.40498 18.1797 4.98637 16.4584C5.56776 14.7372 7.91372 13.7305 9.17951 12.2848C10.4006 10.8902 10.9197 8.58649 12.7125 7.64157C14.5053 6.69665 16.8512 7.49048 18.748 7.24166C20.7142 6.98371 22.8535 5.62646 24.708 6.0639C26.5622 6.50133 27.5366 8.59291 29.0514 9.67177C30.5126 10.7127 33.0089 11.061 33.9459 12.6497Z" stroke="url(#paint27_linear_286:4984)" stroke-width="0.2" stroke-miterlimit="10"/>
<path d="M34.4228 13.0465C35.3092 14.7076 34.2099 16.9064 34.3122 18.6731C34.4182 20.5046 35.7315 22.484 35.0741 24.2197C34.4166 25.9554 31.9997 26.8903 30.6597 28.3172C29.367 29.6936 28.7497 32.0271 26.8957 32.9211C25.0417 33.8151 22.696 32.9101 20.7641 33.0884C18.7614 33.2734 16.5398 34.575 14.6781 34.0538C12.8163 33.5326 11.9121 31.3562 10.42 30.1931C8.98058 29.071 6.46483 28.6153 5.57842 26.9542C4.69199 25.2933 5.79128 23.0944 5.68899 21.3277C5.58298 19.4962 4.26968 17.5169 4.92711 15.7812C5.58455 14.0454 8.00156 13.1105 9.34154 11.6836C10.6341 10.3073 11.2515 7.9737 13.1055 7.07972C14.9596 6.18574 17.3052 7.09071 19.2372 6.91237C21.2399 6.72746 23.4614 5.42586 25.3231 5.94704C27.1849 6.46822 28.0891 8.64455 29.5812 9.80777C31.0204 10.9298 33.5363 11.3856 34.4228 13.0465Z" stroke="url(#paint28_linear_286:4984)" stroke-width="0.2" stroke-miterlimit="10"/>
<path d="M34.8895 13.47C35.7218 15.2029 34.5208 17.4059 34.5543 19.2156C34.5891 21.0916 35.8415 23.1666 35.1064 24.9141C34.3716 26.6616 31.8852 27.5205 30.4709 28.9251C29.1065 30.28 28.3884 32.6402 26.4742 33.4795C24.56 34.319 22.219 33.3003 20.2544 33.4055C18.2178 33.5144 15.915 34.7556 14.0492 34.1486C12.1833 33.5417 11.3534 31.2814 9.88739 30.033C8.47338 28.8287 5.94222 28.2624 5.10987 26.5295C4.27752 24.7966 5.47854 22.5936 5.44502 20.784C5.4102 18.908 4.15782 16.8329 4.89287 15.0853C5.62778 13.3379 8.11413 12.4788 9.52843 11.0743C10.8928 9.71958 11.6109 7.35934 13.5251 6.52C15.4394 5.68051 17.7803 6.69919 19.7449 6.59404C21.7816 6.48503 24.0843 5.24393 25.9501 5.85086C27.8161 6.45779 28.646 8.71815 30.112 9.96653C31.526 11.1708 34.0571 11.7371 34.8895 13.47Z" stroke="url(#paint29_linear_286:4984)" stroke-width="0.2" stroke-miterlimit="10"/>
<path d="M35.3468 13.9221C36.1216 15.7263 34.8172 17.9296 34.7796 19.7803C34.7404 21.6989 35.9272 23.8697 35.1133 25.6261C34.2993 27.3825 31.746 28.1609 30.257 29.5396C28.8207 30.8696 27.9997 33.2527 26.0266 34.0341C24.0538 34.8155 21.7219 33.6809 19.7269 33.7098C17.6589 33.7397 15.2762 34.9161 13.4097 34.2211C11.5431 33.5262 10.7917 31.1832 9.35578 29.8487C7.97071 28.5616 5.42829 27.8816 4.65358 26.0775C3.87887 24.2733 5.18318 22.07 5.22084 20.2192C5.25994 18.3007 4.07319 16.13 4.88713 14.3735C5.70108 12.6171 8.25449 11.8386 9.74339 10.46C11.1797 9.13001 12.0008 6.74681 13.9738 5.96539C15.9466 5.18411 18.2785 6.31864 20.2735 6.28982C22.3416 6.25986 24.7241 5.08353 26.5907 5.77848C28.4573 6.4733 29.2088 8.81641 30.6446 10.1508C32.0297 11.4379 34.5721 12.1179 35.3468 13.9221Z" stroke="url(#paint30_linear_286:4984)" stroke-width="0.2" stroke-miterlimit="10"/>
<path d="M35.7907 14.4018C36.5042 16.2764 35.0952 18.4761 34.9837 20.3658C34.868 22.3247 35.9845 24.5905 35.09 26.353C34.1956 28.1154 31.5774 28.8088 30.014 30.1581C28.5059 31.46 27.5792 33.8627 25.5492 34.5821C23.5191 35.3019 21.2012 34.0492 19.1785 33.9988C17.0819 33.9467 14.6209 35.0536 12.757 34.2689C10.8931 33.4841 10.2245 31.0596 8.82253 29.6386C7.47 28.2678 4.92073 27.4714 4.20722 25.5965C3.49372 23.7218 4.90275 21.5222 5.01432 19.6325C5.13002 17.6735 4.01347 15.4078 4.90803 13.6453C5.80244 11.8828 8.42062 11.1895 9.98405 9.84005C11.4921 8.53833 12.4187 6.13559 14.4488 5.41609C16.4789 4.69645 18.7967 5.94911 20.8194 5.99947C22.9161 6.05155 25.3771 4.9447 27.241 5.7294C29.1048 6.5141 29.7734 8.93867 31.1755 10.3597C32.528 11.7306 35.0772 12.527 35.7907 14.4018Z" stroke="url(#paint31_linear_286:4984)" stroke-width="0.2" stroke-miterlimit="10"/>
<path d="M36.2236 14.911C36.8723 16.8555 35.3573 19.047 35.1694 20.9736C34.9745 22.9709 36.0161 25.3311 35.0399 27.0964C34.0637 28.8617 31.3832 29.4656 29.7456 30.7822C28.1658 32.0522 27.1317 34.4705 25.0461 35.1247C22.9603 35.779 20.6615 34.4061 18.6139 34.2739C16.4912 34.1367 13.9538 35.1695 12.0961 34.2931C10.2385 33.4166 9.6572 30.9121 8.29278 29.404C6.97662 27.949 4.42507 27.0332 3.77634 25.0887C3.12761 23.1442 4.64264 20.9528 4.83054 19.0261C5.02543 17.0289 3.98393 14.6686 4.96009 12.9034C5.93625 11.1381 8.61679 10.5341 10.2543 9.21755C11.8341 7.94762 12.8684 5.52933 14.954 4.87518C17.0398 4.22088 19.3386 5.59382 21.3862 5.72607C23.5088 5.86318 26.0463 4.83038 27.904 5.70682C29.7616 6.58324 30.3429 9.08772 31.7073 10.5959C33.0233 12.0507 35.575 12.9665 36.2236 14.911Z" stroke="url(#paint32_linear_286:4984)" stroke-width="0.2" stroke-miterlimit="10"/>
<path d="M36.6395 15.4483C37.2197 17.4613 35.5978 19.6403 35.3308 21.6018C35.0542 23.6351 36.016 26.0886 34.9569 27.8537C33.8977 29.6186 31.1576 30.1287 29.4461 31.4086C27.7949 32.6433 26.6513 35.0735 24.5119 35.6585C22.3725 36.2438 20.0975 34.7489 18.0279 34.5319C15.8824 34.3069 13.2702 35.2609 11.4227 34.291C9.5752 33.321 9.08528 30.7385 7.76257 29.1425C6.4865 27.6031 3.93738 26.5652 3.35713 24.5521C2.77688 22.5391 4.39878 20.3601 4.66572 18.3986C4.94236 16.3653 3.98061 13.9117 5.03966 12.1467C6.09886 10.3817 8.83903 9.87167 10.5505 8.59175C12.2017 7.35706 13.3453 4.92706 15.4847 4.34182C17.6241 3.75658 19.8991 5.2515 21.9687 5.4685C24.1141 5.6935 26.7263 4.73945 28.5739 5.70934C30.4214 6.67937 30.9113 9.26188 32.2341 10.8578C33.51 12.3973 36.0592 13.4352 36.6395 15.4483Z" stroke="url(#paint33_linear_286:4984)" stroke-width="0.2" stroke-miterlimit="10"/>
<path d="M37.0434 16.0135C37.5516 18.0938 35.8217 20.2557 35.4734 22.2495C35.1124 24.3164 35.9899 26.8622 34.8466 28.6237C33.7034 30.3851 30.9066 30.7967 29.1215 32.0362C27.3995 33.2322 26.1442 35.6697 23.9532 36.1821C21.7621 36.6946 19.5161 35.0761 17.4275 34.7716C15.2624 34.456 12.5778 35.3264 10.7441 34.2614C8.91039 33.1963 8.51633 30.5374 7.23926 28.8537C6.00729 27.2295 3.46529 26.0667 2.95709 23.9864C2.4489 21.9061 4.1788 19.7441 4.52706 17.7503C4.88802 15.6835 4.01059 13.1376 5.15382 11.3761C6.2972 9.61472 9.09401 9.20311 10.8791 7.96358C12.6012 6.76769 13.8564 4.33014 16.0474 3.81766C18.2384 3.30518 20.4845 4.9238 22.5731 5.22826C24.7381 5.54385 27.4228 4.67341 29.2566 5.73845C31.0902 6.80351 31.4843 9.46249 32.7614 11.1461C33.9932 12.7705 36.5352 13.9331 37.0434 16.0135Z" stroke="url(#paint34_linear_286:4984)" stroke-width="0.2" stroke-miterlimit="10"/>
<path d="M37.4254 16.607C37.8579 18.7533 36.0192 20.8934 35.5873 22.9171C35.1397 25.0149 35.9278 27.6517 34.6995 29.406C33.4712 31.1602 30.6209 31.4691 28.7629 32.6646C26.9705 33.8179 25.602 36.2586 23.3615 36.6948C21.1209 37.1309 18.9091 35.3871 16.8049 34.9924C14.6237 34.5833 11.8686 35.3657 10.0528 34.2039C8.23704 33.0421 7.94314 30.3092 6.71587 28.5375C5.53198 26.8284 3.00211 25.5385 2.56967 23.3923C2.13722 21.246 3.97584 19.1059 4.40772 17.0822C4.85542 14.9843 4.0673 12.3476 5.29557 10.5933C6.52383 8.83902 9.37414 8.53013 11.2321 7.33468C13.0245 6.18146 14.3931 3.74062 16.6336 3.30447C18.8741 2.86832 21.086 4.61221 23.1901 5.00683C25.3714 5.41602 28.1264 4.63361 29.9422 5.79539C31.7581 6.95717 32.052 9.69005 33.2792 11.4618C34.4632 13.1708 36.9929 14.4606 37.4254 16.607Z" stroke="url(#paint35_linear_286:4984)" stroke-width="0.2" stroke-miterlimit="10"/>
<path d="M37.7958 17.2288C38.1489 19.4396 36.201 21.5531 35.6833 23.6039C35.1465 25.7299 35.8404 28.4559 34.5263 30.1996C33.2121 31.9434 30.3117 32.1449 28.3816 33.2923C26.5197 34.3992 25.0361 36.8389 22.7485 37.195C20.4609 37.5511 18.2889 35.6805 16.1722 35.1931C13.9781 34.6878 11.1555 35.3772 9.36161 34.1173C7.56765 32.8575 7.37833 30.0528 6.20484 28.1931C5.07288 26.3991 2.56057 24.98 2.20745 22.7692C1.85434 20.5585 3.80224 18.445 4.32001 16.3942C4.85674 14.2682 4.16278 11.5422 5.47693 9.79843C6.79109 8.05472 9.69158 7.85312 11.6217 6.70575C13.4836 5.5989 14.9672 3.15921 17.2547 2.80309C19.5422 2.44698 21.7143 4.31756 23.831 4.80493C26.0252 5.31027 28.8478 4.62088 30.6417 5.88081C32.4356 7.14062 32.6249 9.94529 33.7984 11.805C34.9303 13.599 37.4427 15.0181 37.7958 17.2288Z" stroke="url(#paint36_linear_286:4984)" stroke-width="0.2" stroke-miterlimit="10"/>
<path d="M38.1404 17.8798C38.4106 20.1531 36.353 22.2351 35.7469 24.3103C35.1187 26.4614 35.714 29.275 34.3132 31.0045C32.9124 32.734 29.9655 32.824 27.9641 33.9194C26.0337 34.9761 24.4336 37.4101 22.1015 37.6825C19.7694 37.9551 17.6425 35.9566 15.517 35.3739C13.3137 34.7698 10.4261 35.3613 8.65832 34.0021C6.89046 32.6428 6.80971 29.7691 5.69444 27.8218C4.61855 25.9432 2.12906 24.3925 1.85898 22.1191C1.58876 19.8458 3.64638 17.7638 4.25245 15.6886C4.88064 13.5376 4.28541 10.7239 5.68617 8.99442C7.08693 7.26495 10.034 7.17492 12.0352 6.07948C13.9658 5.02285 15.5658 2.58886 17.898 2.31636C20.2301 2.04385 22.3569 4.04226 24.4824 4.62508C26.6857 5.22916 29.5732 4.63763 31.3411 5.99687C33.1089 7.35611 33.1897 10.2299 34.305 12.1772C35.3808 14.0558 37.8702 15.6064 38.1404 17.8798Z" stroke="url(#paint37_linear_286:4984)" stroke-width="0.2" stroke-miterlimit="10"/>
<path d="M38.4645 18.5593C38.6481 20.8933 36.4806 22.9387 35.7842 25.0352C35.0625 27.2083 35.554 30.1075 34.0661 31.8188C32.5781 33.5301 29.5883 33.5045 27.517 34.5439C25.5188 35.5466 23.8011 37.9699 21.4272 38.1551C19.0532 38.3402 16.9772 36.213 14.8466 35.5324C12.638 34.8269 9.68863 35.3161 7.95117 33.8565C6.21371 32.3968 6.24581 29.4567 5.19288 27.4221C4.1772 25.4594 1.7161 23.775 1.53234 21.441C1.34872 19.107 3.5162 17.0615 4.21259 14.9651C4.93437 12.7919 4.44285 9.89282 5.93079 8.18144C7.41872 6.47009 10.4085 6.49577 12.4799 5.45641C14.478 4.4537 16.1958 2.03042 18.5697 1.84522C20.9437 1.66003 23.0197 3.78728 25.1501 4.46782C27.3589 5.17334 30.3082 4.68412 32.0457 6.1438C33.7832 7.60348 33.751 10.5435 34.804 12.5781C35.8198 14.5411 38.2809 16.2255 38.4645 18.5593Z" stroke="url(#paint38_linear_286:4984)" stroke-width="0.2" stroke-miterlimit="10"/>
<path d="M38.7681 19.2662C38.8617 21.6587 36.5841 23.6624 35.7955 25.777C34.978 27.969 35.3612 30.9515 33.7855 32.6408C32.21 34.3302 29.1813 34.1844 27.0413 35.1639C24.9768 36.1086 23.1401 38.5165 20.7271 38.6108C18.3142 38.7053 16.295 36.4481 14.1631 35.6676C11.9531 34.8583 8.94497 35.2403 7.24232 33.6792C5.53966 32.1181 5.68861 29.1148 4.70232 26.9934C3.75084 24.9469 1.32384 23.1273 1.23024 20.7348C1.13665 18.3423 3.41413 16.3386 4.20282 14.2241C5.02034 12.0321 4.63712 9.04966 6.2128 7.36027C7.78847 5.67089 10.817 5.8167 12.9571 4.83726C15.0216 3.89248 16.8583 1.4846 19.2712 1.39029C21.6841 1.29584 23.7033 3.55292 25.8352 4.33348C28.0452 5.14272 31.0534 4.76079 32.756 6.32191C34.4586 7.88302 34.3097 10.8862 35.296 13.0077C36.2473 15.0541 38.6744 16.8738 38.7681 19.2662Z" stroke="url(#paint39_linear_286:4984)" stroke-width="0.2" stroke-miterlimit="10"/>
<path d="M39.0474 19.9998C39.0474 22.4484 36.6601 24.4051 35.7772 26.5344C34.8618 28.7419 35.1319 31.8049 33.4684 33.4684C31.8049 35.1319 28.7419 34.8618 26.5344 35.7772C24.4051 36.6601 22.4484 39.0474 19.9998 39.0474C17.5511 39.0474 15.5944 36.6601 13.4651 35.7772C11.2577 34.8618 8.19462 35.1319 6.53106 33.4684C4.86765 31.8049 5.13773 28.7419 4.22234 26.5344C3.33934 24.4051 0.952148 22.4484 0.952148 19.9998C0.952148 17.5511 3.33934 15.5944 4.22234 13.4651C5.13773 11.2577 4.86765 8.19462 6.53106 6.53106C8.19462 4.86765 11.2577 5.13773 13.4651 4.22234C15.5944 3.33934 17.5511 0.952148 19.9998 0.952148C22.4484 0.952148 24.4051 3.33934 26.5344 4.22234C28.7419 5.13773 31.8049 4.86765 33.4684 6.53106C35.1319 8.19462 34.8618 11.2577 35.7772 13.4651C36.6601 15.5944 39.0474 17.5511 39.0474 19.9998Z" stroke="url(#paint40_linear_286:4984)" stroke-width="0.2" stroke-miterlimit="10"/>
<defs>
<linearGradient id="paint0_linear_286:4984" x1="0.952148" y1="19.9998" x2="38.095" y2="19.9998" gradientUnits="userSpaceOnUse">
<stop stop-color="#E926C3"/>
<stop offset="1" stop-color="#FF4D86"/>
</linearGradient>
<linearGradient id="paint1_linear_286:4984" x1="0.952148" y1="19.9998" x2="38.095" y2="19.9998" gradientUnits="userSpaceOnUse">
<stop stop-color="#E926C3"/>
<stop offset="1" stop-color="#FF4D86"/>
</linearGradient>
<linearGradient id="paint2_linear_286:4984" x1="0.952148" y1="19.9998" x2="38.095" y2="19.9998" gradientUnits="userSpaceOnUse">
<stop stop-color="#E926C3"/>
<stop offset="1" stop-color="#FF4D86"/>
</linearGradient>
<linearGradient id="paint3_linear_286:4984" x1="0.952148" y1="19.9998" x2="38.095" y2="19.9998" gradientUnits="userSpaceOnUse">
<stop stop-color="#E926C3"/>
<stop offset="1" stop-color="#FF4D86"/>
</linearGradient>
<linearGradient id="paint4_linear_286:4984" x1="0.952148" y1="19.9998" x2="38.095" y2="19.9998" gradientUnits="userSpaceOnUse">
<stop stop-color="#E926C3"/>
<stop offset="1" stop-color="#FF4D86"/>
</linearGradient>
<linearGradient id="paint5_linear_286:4984" x1="0.952148" y1="19.9998" x2="38.095" y2="19.9998" gradientUnits="userSpaceOnUse">
<stop stop-color="#E926C3"/>
<stop offset="1" stop-color="#FF4D86"/>
</linearGradient>
<linearGradient id="paint6_linear_286:4984" x1="0.952148" y1="19.9998" x2="38.095" y2="19.9998" gradientUnits="userSpaceOnUse">
<stop stop-color="#E926C3"/>
<stop offset="1" stop-color="#FF4D86"/>
</linearGradient>
<linearGradient id="paint7_linear_286:4984" x1="0.952148" y1="19.9998" x2="38.095" y2="19.9998" gradientUnits="userSpaceOnUse">
<stop stop-color="#E926C3"/>
<stop offset="1" stop-color="#FF4D86"/>
</linearGradient>
<linearGradient id="paint8_linear_286:4984" x1="0.952148" y1="19.9998" x2="38.095" y2="19.9998" gradientUnits="userSpaceOnUse">
<stop stop-color="#E926C3"/>
<stop offset="1" stop-color="#FF4D86"/>
</linearGradient>
<linearGradient id="paint9_linear_286:4984" x1="0.952148" y1="19.9998" x2="38.095" y2="19.9998" gradientUnits="userSpaceOnUse">
<stop stop-color="#E926C3"/>
<stop offset="1" stop-color="#FF4D86"/>
</linearGradient>
<linearGradient id="paint10_linear_286:4984" x1="0.952148" y1="19.9998" x2="38.095" y2="19.9998" gradientUnits="userSpaceOnUse">
<stop stop-color="#E926C3"/>
<stop offset="1" stop-color="#FF4D86"/>
</linearGradient>
<linearGradient id="paint11_linear_286:4984" x1="0.952148" y1="19.9998" x2="38.095" y2="19.9998" gradientUnits="userSpaceOnUse">
<stop stop-color="#E926C3"/>
<stop offset="1" stop-color="#FF4D86"/>
</linearGradient>
<linearGradient id="paint12_linear_286:4984" x1="0.952148" y1="19.9998" x2="38.095" y2="19.9998" gradientUnits="userSpaceOnUse">
<stop stop-color="#E926C3"/>
<stop offset="1" stop-color="#FF4D86"/>
</linearGradient>
<linearGradient id="paint13_linear_286:4984" x1="0.952148" y1="19.9998" x2="38.095" y2="19.9998" gradientUnits="userSpaceOnUse">
<stop stop-color="#E926C3"/>
<stop offset="1" stop-color="#FF4D86"/>
</linearGradient>
<linearGradient id="paint14_linear_286:4984" x1="0.952148" y1="19.9998" x2="38.095" y2="19.9998" gradientUnits="userSpaceOnUse">
<stop stop-color="#E926C3"/>
<stop offset="1" stop-color="#FF4D86"/>
</linearGradient>
<linearGradient id="paint15_linear_286:4984" x1="0.952148" y1="19.9998" x2="38.095" y2="19.9998" gradientUnits="userSpaceOnUse">
<stop stop-color="#E926C3"/>
<stop offset="1" stop-color="#FF4D86"/>
</linearGradient>
<linearGradient id="paint16_linear_286:4984" x1="0.952148" y1="19.9998" x2="38.095" y2="19.9998" gradientUnits="userSpaceOnUse">
<stop stop-color="#E926C3"/>
<stop offset="1" stop-color="#FF4D86"/>
</linearGradient>
<linearGradient id="paint17_linear_286:4984" x1="0.952148" y1="19.9998" x2="38.095" y2="19.9998" gradientUnits="userSpaceOnUse">
<stop stop-color="#E926C3"/>
<stop offset="1" stop-color="#FF4D86"/>
</linearGradient>
<linearGradient id="paint18_linear_286:4984" x1="0.952148" y1="19.9998" x2="38.095" y2="19.9998" gradientUnits="userSpaceOnUse">
<stop stop-color="#E926C3"/>
<stop offset="1" stop-color="#FF4D86"/>
</linearGradient>
<linearGradient id="paint19_linear_286:4984" x1="0.952148" y1="19.9998" x2="38.095" y2="19.9998" gradientUnits="userSpaceOnUse">
<stop stop-color="#E926C3"/>
<stop offset="1" stop-color="#FF4D86"/>
</linearGradient>
<linearGradient id="paint20_linear_286:4984" x1="0.952148" y1="19.9998" x2="38.095" y2="19.9998" gradientUnits="userSpaceOnUse">
<stop stop-color="#E926C3"/>
<stop offset="1" stop-color="#FF4D86"/>
</linearGradient>
<linearGradient id="paint21_linear_286:4984" x1="0.952148" y1="19.9998" x2="38.095" y2="19.9998" gradientUnits="userSpaceOnUse">
<stop stop-color="#E926C3"/>
<stop offset="1" stop-color="#FF4D86"/>
</linearGradient>
<linearGradient id="paint22_linear_286:4984" x1="0.952148" y1="19.9998" x2="38.095" y2="19.9998" gradientUnits="userSpaceOnUse">
<stop stop-color="#E926C3"/>
<stop offset="1" stop-color="#FF4D86"/>
</linearGradient>
<linearGradient id="paint23_linear_286:4984" x1="0.952148" y1="19.9998" x2="38.095" y2="19.9998" gradientUnits="userSpaceOnUse">
<stop stop-color="#E926C3"/>
<stop offset="1" stop-color="#FF4D86"/>
</linearGradient>
<linearGradient id="paint24_linear_286:4984" x1="0.952148" y1="19.9998" x2="38.095" y2="19.9998" gradientUnits="userSpaceOnUse">
<stop stop-color="#E926C3"/>
<stop offset="1" stop-color="#FF4D86"/>
</linearGradient>
<linearGradient id="paint25_linear_286:4984" x1="0.952148" y1="19.9998" x2="38.095" y2="19.9998" gradientUnits="userSpaceOnUse">
<stop stop-color="#E926C3"/>
<stop offset="1" stop-color="#FF4D86"/>
</linearGradient>
<linearGradient id="paint26_linear_286:4984" x1="0.952148" y1="19.9998" x2="38.095" y2="19.9998" gradientUnits="userSpaceOnUse">
<stop stop-color="#E926C3"/>
<stop offset="1" stop-color="#FF4D86"/>
</linearGradient>
<linearGradient id="paint27_linear_286:4984" x1="0.952148" y1="19.9998" x2="38.095" y2="19.9998" gradientUnits="userSpaceOnUse">
<stop stop-color="#E926C3"/>
<stop offset="1" stop-color="#FF4D86"/>
</linearGradient>
<linearGradient id="paint28_linear_286:4984" x1="0.952148" y1="19.9998" x2="38.095" y2="19.9998" gradientUnits="userSpaceOnUse">
<stop stop-color="#E926C3"/>
<stop offset="1" stop-color="#FF4D86"/>
</linearGradient>
<linearGradient id="paint29_linear_286:4984" x1="0.952148" y1="19.9998" x2="38.095" y2="19.9998" gradientUnits="userSpaceOnUse">
<stop stop-color="#E926C3"/>
<stop offset="1" stop-color="#FF4D86"/>
</linearGradient>
<linearGradient id="paint30_linear_286:4984" x1="0.952148" y1="19.9998" x2="38.095" y2="19.9998" gradientUnits="userSpaceOnUse">
<stop stop-color="#E926C3"/>
<stop offset="1" stop-color="#FF4D86"/>
</linearGradient>
<linearGradient id="paint31_linear_286:4984" x1="0.952148" y1="19.9998" x2="38.095" y2="19.9998" gradientUnits="userSpaceOnUse">
<stop stop-color="#E926C3"/>
<stop offset="1" stop-color="#FF4D86"/>
</linearGradient>
<linearGradient id="paint32_linear_286:4984" x1="0.952148" y1="19.9998" x2="38.095" y2="19.9998" gradientUnits="userSpaceOnUse">
<stop stop-color="#E926C3"/>
<stop offset="1" stop-color="#FF4D86"/>
</linearGradient>
<linearGradient id="paint33_linear_286:4984" x1="0.952148" y1="19.9998" x2="38.095" y2="19.9998" gradientUnits="userSpaceOnUse">
<stop stop-color="#E926C3"/>
<stop offset="1" stop-color="#FF4D86"/>
</linearGradient>
<linearGradient id="paint34_linear_286:4984" x1="0.952148" y1="19.9998" x2="38.095" y2="19.9998" gradientUnits="userSpaceOnUse">
<stop stop-color="#E926C3"/>
<stop offset="1" stop-color="#FF4D86"/>
</linearGradient>
<linearGradient id="paint35_linear_286:4984" x1="0.952148" y1="19.9998" x2="38.095" y2="19.9998" gradientUnits="userSpaceOnUse">
<stop stop-color="#E926C3"/>
<stop offset="1" stop-color="#FF4D86"/>
</linearGradient>
<linearGradient id="paint36_linear_286:4984" x1="0.952148" y1="19.9998" x2="38.095" y2="19.9998" gradientUnits="userSpaceOnUse">
<stop stop-color="#E926C3"/>
<stop offset="1" stop-color="#FF4D86"/>
</linearGradient>
<linearGradient id="paint37_linear_286:4984" x1="0.952148" y1="19.9998" x2="38.095" y2="19.9998" gradientUnits="userSpaceOnUse">
<stop stop-color="#E926C3"/>
<stop offset="1" stop-color="#FF4D86"/>
</linearGradient>
<linearGradient id="paint38_linear_286:4984" x1="0.952148" y1="19.9998" x2="38.095" y2="19.9998" gradientUnits="userSpaceOnUse">
<stop stop-color="#E926C3"/>
<stop offset="1" stop-color="#FF4D86"/>
</linearGradient>
<linearGradient id="paint39_linear_286:4984" x1="0.952148" y1="19.9998" x2="38.095" y2="19.9998" gradientUnits="userSpaceOnUse">
<stop stop-color="#E926C3"/>
<stop offset="1" stop-color="#FF4D86"/>
</linearGradient>
<linearGradient id="paint40_linear_286:4984" x1="0.952148" y1="19.9998" x2="38.095" y2="19.9998" gradientUnits="userSpaceOnUse">
<stop stop-color="#E926C3"/>
<stop offset="1" stop-color="#FF4D86"/>
</linearGradient>
</defs>
</svg>
