<?xml version="1.0" standalone="no"?>
<!DOCTYPE svg PUBLIC "-//W3C//DTD SVG 20010904//EN"
 "http://www.w3.org/TR/2001/REC-SVG-20010904/DTD/svg10.dtd">
<svg version="1.0" xmlns="http://www.w3.org/2000/svg"
 width="700.000000pt" height="700.000000pt" viewBox="0 0 700.000000 700.000000"
 preserveAspectRatio="xMidYMid meet">
<metadata>
Created by potrace 1.14, written by Peter Selinger 2001-2017
</metadata>
<g transform="translate(0.000000,700.000000) scale(0.100000,-0.100000)"
fill="#000000" stroke="none">
<path d="M3352 6835 c-121 -27 -283 -102 -417 -191 -33 -22 -145 -98 -250
-169 -290 -196 -398 -240 -770 -310 -395 -74 -545 -121 -685 -216 -155 -105
-246 -248 -319 -505 -36 -124 -73 -298 -96 -444 -23 -146 -68 -298 -120 -407
-25 -50 -97 -170 -162 -265 -236 -350 -271 -407 -318 -524 -46 -113 -56 -163
-60 -284 -5 -154 19 -246 114 -435 80 -159 156 -281 276 -440 159 -212 229
-386 288 -715 11 -58 43 -225 53 -275 30 -149 95 -317 159 -415 137 -209 330
-304 775 -386 304 -56 456 -97 585 -158 50 -23 208 -122 352 -219 365 -246
507 -312 693 -324 152 -10 279 21 450 108 100 51 115 61 410 261 204 138 329
204 465 243 82 23 323 76 419 91 56 8 59 9 200 44 229 56 350 115 464 224 155
148 236 361 321 841 59 339 97 425 344 792 175 260 245 383 285 498 54 159 54
331 0 489 -50 147 -197 404 -344 599 -172 230 -223 355 -298 737 -25 129 -48
245 -51 258 -3 12 -7 31 -10 42 -90 410 -275 606 -670 710 -91 24 -338 75
-460 96 -62 10 -202 47 -270 71 -114 41 -193 85 -392 220 -302 204 -313 211
-413 262 -90 46 -184 83 -246 96 -64 14 -240 14 -302 0z m266 -30 c147 -21
309 -106 647 -340 191 -131 297 -192 412 -236 87 -33 52 -29 -76 8 -141 40
-238 90 -531 275 -177 111 -228 140 -329 183 -159 68 -294 90 -446 72 l-60 -7
40 16 c85 34 225 45 343 29z m17 -109 c117 -39 222 -92 375 -189 302 -190 426
-258 550 -298 l55 -18 -45 5 c-139 19 -309 90 -567 237 -268 153 -415 219
-543 246 -83 17 -196 20 -275 6 -38 -7 -71 -11 -73 -10 -6 5 131 48 162 52 16
1 32 5 34 8 3 3 53 3 111 1 90 -3 123 -9 216 -40z m-180 -53 c131 -29 282 -98
530 -240 179 -103 302 -164 390 -193 39 -13 75 -28 80 -33 6 -5 4 -6 -5 -3 -8
3 -33 8 -55 11 -130 19 -238 62 -550 220 -386 195 -558 239 -769 196 -90 -18
-100 -16 -38 6 147 54 288 66 417 36z m-52 -89 c121 -33 229 -79 462 -198 242
-124 295 -147 405 -180 71 -22 77 -25 37 -21 -164 19 -254 49 -574 196 -210
96 -296 129 -418 159 -123 30 -274 31 -375 0 -47 -14 -50 -12 -15 7 112 63
321 78 478 37z m-111 -76 c117 -25 200 -56 423 -158 228 -104 353 -154 435
-173 36 -9 74 -18 85 -21 11 -3 -11 -3 -50 0 -151 12 -278 50 -615 188 -255
104 -344 127 -500 131 -98 3 -140 0 -195 -14 -38 -11 -71 -18 -73 -16 -7 6
109 50 173 66 93 22 205 21 317 -3z m-128 -72 c118 -19 204 -48 516 -174 186
-74 310 -115 400 -131 52 -9 51 -10 -27 -6 -120 7 -218 29 -398 91 -469 163
-532 179 -700 177 -76 -1 -131 -7 -177 -21 -38 -11 -68 -18 -68 -15 0 4 82 41
125 55 93 31 223 41 329 24z m46 -109 c52 -14 154 -46 225 -72 261 -94 301
-107 390 -131 49 -13 101 -24 115 -24 14 0 31 -4 39 -9 17 -11 -108 -5 -189 9
-105 18 -106 18 -432 118 -244 75 -338 92 -483 88 -88 -2 -136 -8 -180 -23
-33 -11 -69 -24 -80 -27 -11 -4 11 9 49 29 111 59 190 76 331 71 84 -3 149
-12 215 -29z m-750 -11 c0 -9 -166 -101 -242 -133 -81 -34 -290 -92 -486 -134
-317 -69 -514 -154 -638 -277 -45 -45 -46 -45 -28 -13 33 59 126 153 200 201
91 60 274 127 414 153 14 3 75 15 135 26 61 12 126 24 145 27 126 19 391 97
465 137 34 18 35 19 35 13z m560 -50 c85 -12 227 -49 435 -114 209 -66 302
-89 373 -91 12 -1 22 -5 22 -10 0 -10 -116 -7 -195 5 -51 7 -196 42 -407 98
-92 24 -187 47 -212 50 -25 4 -64 10 -88 14 -112 21 -311 -4 -400 -49 -62 -31
-43 -13 25 24 135 75 268 96 447 73z m-660 -60 c0 -8 -124 -83 -195 -119 -76
-38 -208 -85 -325 -116 -183 -48 -311 -84 -385 -108 -179 -58 -326 -143 -413
-237 -23 -25 -42 -43 -42 -40 0 16 79 121 126 167 128 124 280 185 704 282
231 53 379 99 466 144 65 33 64 33 64 27z m626 -29 c12 -3 37 -8 55 -11 50 -8
135 -28 304 -74 176 -48 282 -70 368 -78 100 -9 80 -15 -45 -13 -131 2 -152 5
-408 61 -216 47 -208 45 -285 58 -177 30 -339 21 -462 -25 -35 -13 -63 -22
-63 -20 0 6 83 50 130 69 81 32 161 44 275 41 61 -2 120 -5 131 -8z m-106 -81
c68 -6 185 -28 445 -86 122 -27 178 -36 274 -45 107 -10 61 -19 -79 -16 -69 1
-149 9 -220 21 -30 5 -71 12 -90 15 -19 3 -66 12 -105 20 -184 36 -256 44
-400 40 -153 -3 -178 -7 -267 -45 -38 -15 -68 -27 -68 -25 0 11 113 71 172 91
69 24 184 42 238 38 14 -1 59 -5 100 -8z m-630 -11 c0 -6 -105 -77 -161 -107
-72 -40 -215 -95 -391 -149 -425 -130 -554 -192 -685 -328 l-54 -56 27 50 c15
28 62 84 103 125 126 124 247 178 658 290 239 65 349 102 440 149 65 33 63 33
63 26z m2774 -89 c63 -37 129 -99 184 -174 63 -84 93 -136 194 -331 45 -86
103 -191 129 -233 27 -43 45 -78 40 -78 -17 0 -122 156 -229 340 -126 216
-200 325 -271 395 -45 46 -152 125 -169 125 -4 0 -17 7 -28 15 -27 20 98 -29
150 -59z m-1140 56 c3 -5 -1 -9 -9 -9 -8 0 -12 4 -9 9 3 4 7 8 9 8 2 0 6 -4 9
-8z m1208 -33 c31 -16 87 -56 123 -90 109 -102 143 -160 358 -609 30 -63 72
-140 92 -170 49 -73 7 -35 -50 45 -54 75 -92 141 -190 330 -86 164 -141 258
-188 320 -48 63 -146 154 -201 186 -61 36 -24 28 56 -12z m83 13 c91 -46 182
-130 249 -232 53 -79 104 -185 191 -395 67 -160 119 -271 157 -332 11 -18 17
-33 14 -33 -13 0 -134 197 -183 300 -201 419 -201 418 -288 533 -49 64 -132
138 -188 170 -26 14 -27 16 -7 11 14 -4 39 -13 55 -22z m155 -32 c155 -100
239 -236 380 -615 45 -121 101 -260 125 -310 40 -82 41 -87 15 -55 -44 53
-129 223 -215 430 -116 278 -175 385 -268 481 -50 52 -121 109 -135 109 -6 0
-14 5 -17 11 -10 14 62 -17 115 -51z m-521 -15 c121 -64 212 -166 381 -431
101 -157 154 -235 194 -285 12 -14 -13 9 -54 51 -41 42 -127 150 -190 241
-205 292 -290 382 -426 450 -35 17 -64 33 -64 34 0 9 100 -29 159 -60z m81 21
c45 -21 90 -55 146 -111 93 -92 128 -143 256 -362 50 -87 112 -189 138 -228
79 -119 78 -121 -9 -20 -53 61 -111 144 -220 319 -144 230 -256 351 -386 420
-72 37 -10 23 75 -18z m616 -69 c131 -119 188 -233 320 -639 41 -125 88 -257
104 -295 23 -52 25 -62 10 -43 -37 47 -110 205 -180 395 -39 105 -87 228 -107
275 -75 175 -179 317 -281 385 -23 15 -42 30 -42 32 0 13 131 -69 176 -110z
m-844 58 c148 -59 234 -148 463 -475 59 -85 111 -157 114 -160 3 -3 22 -23 41
-45 l35 -39 -41 32 c-54 42 -91 85 -252 292 -199 256 -323 371 -444 410 -21 6
-38 13 -38 16 0 8 67 -9 122 -31z m855 1 c188 -111 284 -283 402 -721 42 -158
75 -264 110 -355 21 -53 21 -54 2 -30 -36 45 -108 223 -175 431 -132 411 -206
550 -359 670 -60 48 -55 49 20 5z m-2633 10 c32 -4 62 -8 65 -10 3 -2 30 -7
60 -10 29 -4 56 -8 60 -10 3 -2 31 -7 61 -11 30 -4 58 -9 61 -11 11 -6 192
-34 264 -39 22 -2 54 -4 70 -5 l30 -3 -35 -7 c-36 -7 -259 -4 -295 4 -12 2
-48 7 -80 11 -33 4 -69 9 -80 11 -11 2 -42 7 -70 10 -27 3 -55 7 -62 9 -19 6
-144 17 -223 19 -142 4 -300 -27 -387 -75 l-38 -21 25 21 c50 43 183 100 265
114 80 14 199 15 309 3z m1666 -23 c131 -43 251 -153 442 -403 70 -91 137
-176 149 -190 76 -85 77 -86 29 -48 -59 47 -123 117 -246 264 -196 236 -294
323 -429 380 -44 18 -51 23 -25 18 19 -3 55 -13 80 -21z m1083 -7 c167 -108
272 -285 346 -586 11 -47 40 -168 65 -270 24 -102 56 -216 70 -255 14 -38 24
-71 22 -72 -2 -2 -17 23 -34 54 -40 76 -90 222 -147 430 -67 243 -92 316 -146
429 -52 111 -124 208 -195 267 -57 46 -49 48 19 3z m-3478 -12 c-115 -95 -252
-163 -525 -259 -422 -148 -553 -219 -672 -363 -38 -46 -35 -31 8 39 107 177
261 265 694 399 74 23 160 50 190 60 88 28 222 86 276 118 60 37 68 39 29 6z
m2347 -22 c112 -49 222 -149 394 -357 54 -66 101 -122 104 -125 3 -3 28 -30
55 -59 42 -46 45 -51 17 -31 -41 27 -148 134 -302 300 -142 153 -222 220 -325
271 -43 22 -81 42 -83 44 -9 9 97 -23 140 -43z m1338 -72 c92 -92 137 -168
184 -309 32 -96 74 -270 90 -371 3 -19 8 -46 11 -60 3 -14 9 -47 14 -75 19
-100 51 -231 70 -290 11 -33 18 -61 16 -63 -6 -6 -56 112 -86 203 -17 50 -44
149 -61 220 -122 525 -176 656 -327 804 -50 48 -52 52 -21 35 19 -10 69 -53
110 -94z m-1450 58 c96 -38 195 -115 328 -256 70 -74 164 -172 209 -218 154
-158 26 -56 -176 141 -254 247 -315 294 -456 347 l-50 19 45 -6 c25 -3 70 -15
100 -27z m-56 -41 c98 -45 183 -113 366 -294 96 -95 184 -179 195 -188 20 -16
20 -16 -1 -6 -48 23 -191 143 -334 280 -102 99 -244 194 -335 227 -27 9 -54
21 -58 25 -18 15 112 -19 167 -44z m-1434 29 c15 -5 28 -7 135 -21 28 -4 61
-9 75 -11 14 -2 50 -7 80 -10 30 -4 62 -8 70 -10 8 -1 60 -3 115 -4 87 -2 95
-3 60 -12 -70 -16 -305 -13 -460 7 -195 26 -438 26 -545 1 -42 -9 -107 -32
-145 -51 -61 -29 -66 -30 -40 -9 49 40 169 95 247 114 58 14 107 17 233 15 88
-2 167 -5 175 -9z m1259 -27 c93 -21 235 -106 336 -200 22 -21 49 -46 61 -56
12 -10 59 -52 105 -94 46 -42 98 -89 114 -104 17 -15 23 -23 15 -19 -40 20
-117 79 -258 196 -219 183 -311 242 -425 273 -41 11 -45 14 -22 14 17 0 50 -4
74 -10z m-2069 -24 c0 -3 -35 -31 -78 -63 -96 -71 -240 -143 -447 -222 -349
-135 -492 -214 -605 -338 -59 -63 -61 -65 -42 -26 28 55 83 126 133 171 107
97 227 156 544 268 248 87 367 137 440 183 54 34 55 35 55 27z m1988 -10 c118
-28 205 -82 434 -272 85 -70 168 -138 184 -150 50 -39 -75 35 -140 83 -34 24
-114 84 -178 133 -170 130 -290 194 -388 208 -19 3 -37 7 -39 9 -10 9 69 2
127 -11z m-1288 -19 c58 -3 114 -8 126 -10 11 -2 57 -7 102 -11 44 -4 89 -8
99 -10 10 -2 72 -4 137 -4 66 -1 117 -3 115 -5 -20 -20 -272 -26 -514 -12
-262 15 -367 10 -499 -24 -43 -11 -99 -31 -124 -45 -68 -38 -63 -21 9 25 85
55 201 90 319 97 52 3 97 7 98 9 2 1 9 1 15 -1 7 -2 59 -6 117 -9z m1180 -11
c116 -18 230 -82 445 -248 71 -55 150 -113 174 -129 25 -15 41 -28 35 -28 -18
0 -159 88 -309 194 -82 57 -186 123 -230 145 -82 41 -188 74 -201 62 -4 -3 -4
-1 0 6 3 6 14 10 24 9 9 -2 37 -7 62 -11z m-160 -35 c0 -5 -2 -10 -4 -10 -3 0
-8 5 -11 10 -3 6 -1 10 4 10 6 0 11 -4 11 -10z m140 -17 c105 -29 200 -82 365
-203 50 -37 122 -85 160 -108 38 -23 65 -42 61 -42 -19 0 -141 68 -276 155
-80 51 -170 106 -201 124 -59 33 -190 81 -221 81 -10 0 -18 4 -18 9 0 11 59 4
130 -16z m-1960 -44 c-101 -91 -256 -179 -495 -279 -176 -74 -303 -138 -388
-193 -86 -56 -189 -152 -213 -199 -21 -40 -26 -34 -8 8 54 129 164 235 344
332 41 22 174 79 295 127 233 92 394 167 460 215 56 40 58 36 5 -11z m930 16
c60 -8 329 -7 341 1 7 4 9 3 6 -3 -4 -6 -27 -14 -53 -18 -25 -3 -56 -9 -67
-12 -12 -2 -161 -5 -332 -5 -398 1 -502 -14 -645 -91 -52 -27 -54 -28 -33 -5
53 56 203 118 338 138 49 7 376 4 445 -5z m990 -21 c85 -29 161 -69 305 -163
55 -35 129 -82 165 -103 36 -21 60 -38 55 -38 -16 0 -158 75 -288 152 -67 39
-153 86 -192 104 -73 34 -210 76 -218 67 -3 -2 -8 0 -11 5 -11 18 105 2 184
-24z m-260 -14 c0 -5 -5 -10 -11 -10 -5 0 -7 5 -4 10 3 6 8 10 11 10 2 0 4 -4
4 -10z m155 -16 c76 -19 182 -70 359 -173 76 -45 142 -81 147 -81 4 0 11 -5
14 -10 10 -16 -81 23 -191 81 -250 132 -340 170 -433 185 -22 4 -41 10 -41 14
0 10 74 2 145 -16z m-621 -14 c-18 -18 -193 -41 -354 -45 -490 -14 -610 -36
-761 -139 -8 -6 3 6 25 27 69 66 211 122 361 143 28 4 187 7 355 6 168 0 321
3 340 8 19 4 37 8 40 9 2 1 0 -3 -6 -9z m551 -30 c39 -9 104 -32 145 -51 85
-39 349 -179 338 -179 -14 0 -105 39 -243 105 -167 80 -287 122 -375 131 -36
3 -67 8 -70 11 -11 11 142 -2 205 -17z m-1785 -4 c0 -3 -17 -21 -37 -41 -69
-66 -216 -157 -393 -242 -418 -202 -519 -268 -623 -407 -46 -61 -47 -52 -1 34
84 160 222 257 599 421 224 97 343 157 405 204 48 36 50 37 50 31z m1732 -41
c76 -20 125 -40 263 -105 61 -29 135 -63 165 -77 33 -14 43 -21 25 -18 -27 6
-133 47 -344 135 -94 39 -211 70 -270 71 -40 1 -42 2 -16 8 41 9 105 4 177
-14z m-597 4 c-85 -27 -203 -43 -405 -54 -191 -11 -237 -15 -325 -30 -142 -24
-237 -60 -340 -127 -27 -18 -27 -17 5 12 94 85 217 140 374 165 51 8 191 17
312 20 211 4 354 13 363 21 2 2 14 4 25 3 16 -1 14 -3 -9 -10z m497 -43 c40
-8 109 -28 153 -44 108 -40 335 -135 331 -139 -5 -6 -190 57 -271 92 -102 44
-299 94 -354 90 -11 -1 -21 2 -21 7 0 12 80 10 162 -6z m-627 -37 c-86 -24
-380 -64 -440 -61 -11 1 -45 -3 -75 -8 -30 -5 -75 -12 -100 -15 -117 -16 -274
-75 -350 -133 -25 -18 -31 -20 -20 -7 23 30 50 52 112 90 84 53 177 82 315
101 26 3 56 8 65 9 9 2 75 6 145 10 70 3 148 8 173 10 25 2 77 7 115 11 39 3
72 8 74 10 2 2 16 4 30 3 15 0 -4 -9 -44 -20z m-1101 -35 c-104 -98 -196 -157
-449 -289 -318 -165 -448 -260 -527 -384 -35 -56 -37 -36 -2 33 51 102 124
179 249 261 87 57 123 76 415 218 107 53 231 121 275 151 44 31 82 56 84 56 2
0 -18 -21 -45 -46z m1694 20 c42 -9 154 -44 247 -79 155 -58 204 -81 115 -54
-19 5 -42 12 -50 14 -8 2 -62 19 -120 38 -143 49 -254 76 -324 81 -32 3 -61 7
-64 10 -12 12 122 5 196 -10z m-211 0 c-3 -3 -12 -4 -19 -1 -8 3 -5 6 6 6 11
1 17 -2 13 -5z m-397 -33 c-18 -10 -149 -46 -200 -55 -77 -12 -132 -20 -250
-36 -275 -36 -436 -88 -550 -178 l-45 -35 43 44 c84 89 246 164 404 188 109
17 130 19 253 31 136 12 326 38 334 45 2 3 9 5 15 5 6 0 4 -4 -4 -9z m562 -16
c79 -17 357 -104 372 -117 5 -4 -49 8 -120 27 -297 81 -349 91 -431 90 -24 0
-43 3 -43 7 0 14 146 9 222 -7z m-1727 -103 c-96 -93 -160 -136 -415 -282
-107 -62 -224 -133 -260 -158 -94 -66 -198 -169 -232 -229 -33 -58 -43 -68
-27 -26 37 97 77 159 151 232 75 75 180 142 433 276 220 117 364 205 399 244
11 12 22 21 25 21 3 0 -30 -35 -74 -78z m1830 16 c85 -23 155 -46 155 -49 0
-4 -64 9 -142 28 -170 41 -302 61 -378 58 -41 -2 -49 -1 -30 6 14 5 73 7 133
4 88 -3 135 -11 262 -47z m-750 33 c-13 -12 -159 -57 -210 -65 -22 -4 -76 -13
-120 -22 -44 -8 -98 -17 -120 -20 -22 -3 -46 -7 -54 -10 -8 -3 -30 -7 -50 -10
-131 -21 -316 -97 -390 -160 -23 -20 -38 -30 -35 -22 10 24 123 112 181 141
94 48 232 86 363 102 41 4 142 18 230 31 19 3 51 7 71 10 20 3 58 11 85 19 62
17 60 17 49 6z m565 -45 c125 -27 310 -75 290 -75 -14 0 -44 4 -68 9 -23 6
-59 13 -80 16 -20 3 -64 12 -97 19 -83 19 -166 28 -260 28 -60 1 -71 3 -45 8
36 8 216 4 260 -5z m-610 -20 c0 -11 -225 -76 -345 -101 -328 -66 -462 -115
-582 -211 l-58 -47 50 53 c28 28 69 65 92 81 91 63 251 116 448 149 97 16 118
20 155 26 19 3 46 8 60 10 14 3 57 13 95 23 79 22 85 23 85 17z m675 -50 c72
-15 135 -29 140 -31 11 -5 -92 4 -115 10 -8 2 -35 7 -60 10 -25 3 -52 8 -60
10 -33 8 -149 18 -220 18 -53 -1 -66 2 -45 7 57 14 228 3 360 -24z m318 27
c-7 -2 -19 -2 -25 0 -7 3 -2 5 12 5 14 0 19 -2 13 -5z m-2039 -35 c-95 -104
-184 -173 -404 -309 -303 -187 -425 -288 -490 -403 -18 -31 -34 -56 -36 -56
-6 0 23 75 51 131 36 71 157 190 265 261 47 31 161 99 253 152 175 100 288
173 347 225 46 39 51 39 14 -1z m2901 -74 c27 -29 72 -89 99 -135 26 -46 68
-118 92 -159 27 -45 35 -63 19 -45 -29 34 -42 54 -148 216 -42 65 -99 137
-129 164 -45 42 -48 46 -18 29 19 -10 57 -42 85 -70z m-136 -16 c51 -51 199
-258 184 -258 -5 0 -43 46 -85 103 -80 107 -152 188 -203 226 l-30 22 42 -22
c23 -12 64 -44 92 -71z m192 35 c46 -42 103 -132 188 -298 86 -168 42 -108
-112 157 -32 53 -80 120 -108 148 -55 56 -32 51 32 -7z m102 -34 c52 -59 69
-90 153 -274 75 -165 53 -144 -42 40 -82 159 -121 221 -177 282 -38 43 -39 45
-10 25 18 -13 52 -45 76 -73z m-2073 77 c0 -11 -197 -73 -382 -122 -261 -67
-350 -101 -463 -175 l-90 -59 63 59 c72 68 163 118 279 155 100 31 241 65 348
83 32 5 150 36 200 52 35 11 45 13 45 7z m599 -11 c14 -2 57 -9 96 -15 153
-24 59 -24 -115 1 -36 5 -123 7 -194 6 -70 -2 -124 -2 -120 0 57 18 249 23
333 8z m1109 -73 c51 -51 210 -257 194 -251 -6 2 -57 60 -115 129 -99 119
-130 152 -187 193 -20 13 -16 13 18 -3 23 -11 64 -42 90 -68z m125 28 c22 -19
76 -91 121 -160 105 -159 105 -159 82 -141 -9 8 -52 64 -94 125 -42 61 -103
140 -137 175 -61 65 -44 65 28 1z m310 -19 c42 -46 97 -153 152 -291 20 -52
43 -108 51 -125 14 -28 14 -29 -1 -10 -9 11 -34 58 -57 105 -111 235 -141 289
-190 345 -40 45 -46 54 -22 38 17 -12 47 -40 67 -62z m54 17 c59 -62 95 -129
153 -285 28 -76 59 -157 70 -180 11 -24 18 -43 15 -43 -11 0 -60 98 -113 226
-73 178 -112 249 -165 303 -23 24 -33 39 -22 33 11 -6 39 -30 62 -54z m130
-80 c32 -50 61 -119 108 -260 94 -283 69 -256 -41 44 -61 166 -105 251 -162
312 l-37 40 44 -34 c24 -19 64 -65 88 -102z m-734 82 c31 -22 101 -95 157
-161 119 -142 96 -131 -40 20 -52 57 -117 122 -143 143 -64 50 -46 49 26 -2z
m-110 14 c54 -28 100 -69 203 -181 114 -125 94 -112 -56 34 -58 57 -125 117
-150 133 -49 33 -48 40 3 14z m-683 -4 c0 -5 -2 -10 -4 -10 -3 0 -8 5 -11 10
-3 6 -1 10 4 10 6 0 11 -4 11 -10z m629 -20 c37 -20 95 -69 166 -142 114 -116
90 -101 -54 34 -46 43 -107 91 -135 108 -67 39 -50 39 23 0z m938 -30 c12 -14
38 -54 57 -90 33 -62 50 -114 112 -335 15 -55 32 -109 37 -120 7 -14 6 -17 -1
-10 -18 16 -66 142 -101 260 -36 121 -105 274 -148 326 -24 31 -25 32 -3 14
13 -11 34 -31 47 -45z m-1799 35 c15 -2 54 -8 87 -11 100 -11 77 -16 -30 -7
-55 4 -165 8 -245 8 -133 0 -140 1 -85 11 58 10 217 10 273 -1z m803 -26 c35
-19 99 -71 156 -127 103 -100 97 -98 -30 12 -43 37 -106 85 -139 107 -73 47
-67 51 13 8z m1055 -6 c78 -82 110 -160 165 -398 22 -93 41 -179 44 -190 3
-11 -4 -1 -15 22 -11 22 -38 108 -60 190 -64 234 -102 325 -163 391 -11 12
-17 22 -14 22 4 0 23 -17 43 -37z m-2496 22 c0 -14 -151 -69 -355 -130 -254
-75 -383 -132 -485 -214 -54 -43 -45 -24 15 32 109 104 241 158 595 246 104
26 144 38 228 70 1 1 2 -1 2 -4z m-981 -52 c-79 -86 -161 -152 -344 -275 -311
-210 -413 -298 -483 -419 -36 -62 -38 -61 -15 7 54 163 176 271 583 522 74 46
171 112 215 147 44 36 82 65 84 65 2 0 -16 -21 -40 -47z m1278 41 c-3 -3 -12
-4 -19 -1 -8 3 -5 6 6 6 11 1 17 -2 13 -5z m1103 -36 c36 -22 200 -157 200
-165 0 -5 -52 33 -155 113 -38 30 -85 61 -102 69 -18 9 -33 18 -33 20 0 7 52
-15 90 -37z m1250 -113 c37 -78 55 -146 100 -380 11 -60 23 -119 25 -130 3
-11 -2 -4 -11 15 -9 19 -40 130 -69 245 -55 222 -85 301 -137 368 l-32 42 43
-40 c26 -25 57 -71 81 -120z m-2040 120 c52 -3 96 -8 98 -10 2 -2 -79 -3 -180
-2 -100 1 -205 -1 -233 -5 -40 -6 -44 -5 -20 3 74 24 140 27 335 14z m775 -61
c44 -29 98 -70 120 -90 39 -35 39 -35 5 -13 -19 13 -57 40 -85 60 -27 21 -77
54 -110 74 -33 20 -49 34 -35 30 14 -4 61 -31 105 -61z m1309 -18 c53 -78 86
-186 111 -371 3 -22 8 -53 10 -70 3 -16 8 -50 11 -75 3 -25 10 -60 14 -79 5
-19 8 -37 6 -39 -10 -9 -56 173 -81 318 -33 191 -74 308 -134 385 -16 20 -16
20 6 1 12 -10 38 -41 57 -70z m227 67 c13 -16 12 -17 -3 -4 -10 7 -18 15 -18
17 0 8 8 3 21 -13z m-1678 -22 c45 -19 193 -116 203 -133 3 -5 -27 13 -68 39
-40 26 -100 62 -133 80 -68 37 -68 42 -2 14z m-123 -2 c59 -13 117 -43 252
-130 113 -73 181 -101 273 -113 350 -47 380 -54 439 -113 56 -55 78 -136 91
-333 12 -175 29 -252 75 -335 10 -16 40 -70 69 -120 146 -255 132 -350 -102
-664 -138 -185 -171 -248 -236 -456 -66 -207 -107 -292 -174 -359 -67 -67
-161 -113 -327 -161 -263 -75 -275 -81 -507 -238 -77 -53 -179 -115 -225 -138
-76 -39 -90 -43 -158 -43 -88 0 -156 27 -281 111 -104 70 -160 100 -222 118
-54 16 -78 20 -172 30 -72 8 -223 34 -270 46 -26 7 -56 27 -87 59 -63 66 -80
124 -93 330 -14 218 -21 243 -136 443 -80 140 -100 195 -100 274 -1 122 29
179 233 455 99 134 134 205 202 417 118 364 180 420 581 531 144 39 208 71
395 195 295 196 359 222 480 194z m1680 -120 c43 -84 62 -179 86 -429 3 -30
10 -81 15 -114 6 -32 8 -60 6 -62 -9 -9 -37 118 -62 281 -14 94 -28 177 -30
185 -2 8 -7 28 -9 45 -8 44 -46 134 -78 185 l-28 45 36 -40 c20 -22 49 -65 64
-96z m-2890 105 c0 -10 -108 -53 -277 -110 -202 -68 -293 -103 -359 -140 -61
-34 -160 -109 -173 -132 -6 -9 -11 -11 -11 -5 0 22 114 129 176 165 83 49 192
91 367 142 84 25 177 53 207 64 64 22 70 24 70 16z m719 2 c-2 -2 -83 -7 -179
-9 -96 -3 -188 -11 -205 -17 -22 -8 -27 -8 -19 0 6 6 33 15 60 19 50 9 351 14
343 7z m44 -3 c-7 -2 -19 -2 -25 0 -7 3 -2 5 12 5 14 0 19 -2 13 -5z m-1664
-34 c-24 -46 -191 -198 -309 -283 -349 -251 -431 -326 -511 -467 -17 -30 -27
-43 -23 -29 51 187 144 287 477 512 210 142 314 220 351 265 25 29 30 29 15 2z
m3870 -103 c44 -90 64 -203 76 -436 7 -122 13 -178 21 -191 3 -5 0 -9 -5 -9
-6 0 -11 1 -11 3 0 1 -6 36 -14 77 -15 78 -19 106 -36 280 -15 145 -44 261
-85 339 l-34 66 29 -34 c16 -19 43 -62 59 -95z m-2373 91 c4 -4 -24 -7 -62 -8
-91 -1 -152 -6 -204 -18 -23 -5 -38 -6 -34 -1 14 13 94 26 174 29 41 1 76 4
77 5 5 5 43 0 49 -7z m-680 -43 c-38 -20 -161 -71 -273 -115 -236 -91 -319
-133 -411 -208 -73 -60 -67 -44 11 32 55 53 154 114 238 148 30 11 140 50 244
86 105 36 201 71 215 79 14 7 30 13 35 13 6 0 -21 -16 -59 -35z m3113 -48 c63
-112 76 -189 86 -520 3 -92 8 -179 11 -192 3 -13 4 -24 1 -24 -5 0 -16 44 -32
128 -2 13 -7 63 -10 110 -21 333 -34 413 -83 514 -34 68 -14 57 27 -16z
m-2462 48 c-3 -3 -32 -8 -64 -11 -32 -3 -85 -8 -118 -13 -33 -4 -62 -6 -64 -4
-11 10 13 15 100 20 52 4 95 7 96 8 6 5 55 5 50 0z m46 -1 c-7 -2 -19 -2 -25
0 -7 3 -2 5 12 5 14 0 19 -2 13 -5z m2500 -91 c35 -64 57 -150 63 -247 9 -127
10 -495 2 -487 -13 13 -25 131 -28 252 -3 207 -9 294 -24 367 -18 81 -42 149
-65 178 -16 20 -16 20 5 2 12 -9 33 -39 47 -65z m-2806 62 c-3 -3 -12 -4 -19
-1 -8 3 -5 6 6 6 11 1 17 -2 13 -5z m-37 -8 c0 -2 -9 -6 -20 -9 -11 -3 -18 -1
-14 4 5 9 34 13 34 5z m-1221 -37 c-57 -81 -158 -172 -374 -339 -223 -173
-319 -271 -378 -385 -30 -57 -34 -51 -12 21 16 55 74 148 128 206 55 60 167
149 348 279 93 67 199 150 236 185 37 35 69 63 71 64 2 0 -7 -14 -19 -31z
m836 6 c-22 -14 -120 -59 -218 -100 -303 -129 -372 -167 -470 -261 -34 -32
-57 -52 -51 -44 103 147 209 214 543 339 90 34 176 68 190 76 44 24 48 16 6
-10z m585 16 c0 -4 -30 -12 -67 -16 -38 -4 -75 -8 -83 -10 -70 -14 -94 -17
-89 -11 8 9 36 15 144 30 50 7 91 14 93 15 1 0 2 -3 2 -8z m58 2 c-10 -2 -26
-2 -35 0 -10 3 -2 5 17 5 19 0 27 -2 18 -5z m2658 -78 c54 -93 69 -184 65
-385 -1 -74 -3 -199 -4 -276 -1 -78 -5 -140 -9 -138 -13 8 -21 138 -22 379 -2
258 -11 336 -47 423 -24 55 -17 54 17 -3z m-1035 18 c13 -16 12 -17 -3 -4 -17
13 -22 21 -14 21 2 0 10 -8 17 -17z m-1741 3 c0 -2 -13 -6 -29 -8 -17 -2 -28
-1 -25 4 5 8 54 12 54 4z m-71 -10 c-2 -2 -29 -9 -59 -15 -30 -6 -66 -13 -80
-16 l-25 -6 25 12 c38 16 152 37 139 25z m-494 -22 c-19 -16 -144 -77 -330
-163 -138 -64 -242 -129 -314 -195 -39 -36 -56 -49 -44 -31 85 119 199 191
506 319 86 36 165 70 175 75 26 15 30 12 7 -5z m3456 -124 c24 -73 34 -280 19
-400 -11 -89 -23 -237 -23 -282 0 -21 -4 -38 -9 -38 -10 0 -12 70 -7 215 2 61
3 193 4 295 0 190 -1 196 -51 340 -3 8 6 -3 20 -25 14 -22 35 -69 47 -105z
m-2874 114 c-3 -3 -12 -4 -19 -1 -8 3 -5 6 6 6 11 1 17 -2 13 -5z m-1430 -61
c-48 -66 -164 -175 -337 -320 -205 -171 -321 -298 -353 -385 -3 -10 -11 -18
-16 -18 -6 0 -5 16 3 38 54 153 152 262 420 467 124 95 261 211 287 243 38 47
35 28 -4 -25z m1328 47 c-3 -5 -16 -10 -28 -9 -20 1 -20 2 3 9 14 4 26 8 28 9
2 1 0 -3 -3 -9z m42 4 c-3 -3 -12 -4 -19 -1 -8 3 -5 6 6 6 11 1 17 -2 13 -5z
m-117 -24 c-14 -4 -34 -8 -45 -8 -16 0 -15 2 5 8 14 4 34 8 45 8 16 0 15 -2
-5 -8z m-415 -10 c-8 -13 -131 -81 -295 -164 -173 -88 -280 -158 -354 -232
l-59 -59 30 45 c73 108 162 168 448 303 116 54 214 103 220 108 12 12 18 12
10 -1z m3509 -38 c41 -81 58 -166 57 -287 0 -60 -3 -121 -5 -135 -3 -14 -7
-47 -11 -75 -3 -27 -10 -84 -16 -125 -14 -104 -16 -126 -19 -195 -2 -59 -2
-59 -11 -20 -7 37 -4 233 5 300 31 221 23 448 -19 548 -22 53 -10 46 19 -11z
m-3174 28 c-8 -5 -19 -10 -25 -10 -5 0 -3 5 5 10 8 5 20 10 25 10 6 0 3 -5 -5
-10z m110 -20 c-14 -4 -34 -8 -45 -8 -16 0 -15 2 5 8 14 4 34 8 45 8 16 0 15
-2 -5 -8z m-85 -20 c-11 -5 -27 -9 -35 -9 -9 0 -8 4 5 9 11 5 27 9 35 9 9 0 8
-4 -5 -9z m-1215 -65 c-48 -70 -131 -155 -284 -293 -234 -209 -307 -292 -362
-407 -38 -77 -44 -68 -16 22 38 121 130 233 332 402 209 174 248 209 309 274
24 26 46 47 48 47 2 0 -10 -20 -27 -45z m4464 -36 c37 -111 41 -291 10 -443
-2 -12 -7 -37 -10 -56 -3 -19 -12 -69 -20 -110 -8 -41 -17 -113 -21 -160 -5
-61 -9 -77 -13 -55 -7 31 -4 193 4 231 2 12 10 65 16 119 6 54 14 107 16 119
10 44 13 263 4 311 -11 63 -16 85 -25 110 -7 19 -6 19 8 -1 9 -12 23 -41 31
-65z m-3664 67 c0 -8 -129 -86 -250 -152 -159 -86 -257 -152 -328 -220 -31
-30 -58 -54 -60 -54 -7 0 31 48 76 94 67 69 137 114 360 231 216 113 202 107
202 101z m365 -26 c-27 -12 -43 -12 -25 0 8 5 22 9 30 9 10 0 8 -3 -5 -9z
m2150 -75 c7 -27 16 -72 19 -100 8 -75 9 -255 2 -262 -3 -4 -7 11 -7 33 -5
159 -23 314 -45 378 -13 37 -12 39 2 21 8 -11 21 -42 29 -70z m66 -44 c10 -51
19 -395 10 -385 -8 8 -10 33 -16 191 -5 153 -14 224 -34 276 -17 43 -12 46 9
7 10 -19 24 -60 31 -89z m42 42 c19 -43 22 -65 22 -198 0 -82 -2 -181 -6 -220
l-5 -70 -2 90 c-6 293 -10 362 -25 403 -22 57 -11 54 16 -5z m1138 -115 c14
-84 4 -226 -27 -378 -57 -279 -64 -313 -70 -369 -6 -62 -15 -46 -13 24 2 72
28 269 53 410 33 178 36 322 10 420 -15 54 -12 56 12 8 14 -29 30 -81 35 -115z
m-3816 126 c-16 -14 -102 -68 -190 -121 -202 -122 -280 -178 -351 -256 -45
-49 -53 -55 -38 -27 49 89 187 197 404 315 69 37 141 78 160 91 46 30 52 29
15 -2z m2738 -31 c20 -43 22 -62 20 -198 -1 -82 -4 -159 -7 -170 -2 -11 -5
-49 -5 -84 -1 -35 -4 -61 -8 -58 -4 4 -5 62 -3 130 6 235 3 340 -13 385 -20
56 -11 53 16 -5z m-3482 19 c-32 -61 -124 -164 -322 -362 -229 -230 -278 -292
-321 -409 l-17 -46 5 50 c14 133 114 271 339 470 50 43 142 132 205 196 63 64
116 117 118 118 1 1 -2 -7 -7 -17z m-846 -77 c-36 -100 -106 -226 -242 -440
-135 -213 -176 -286 -220 -395 -33 -81 -62 -197 -64 -257 l-2 -38 -6 35 c-13
67 0 183 31 280 43 134 96 226 330 572 75 112 149 229 164 260 15 32 29 56 31
55 1 -2 -9 -34 -22 -72z m1605 51 c0 -2 -8 -10 -17 -17 -16 -13 -17 -12 -4 4
13 16 21 21 21 13z m2796 -63 c11 -44 12 -213 0 -268 -2 -11 -7 -45 -10 -75
-4 -30 -11 -77 -16 -105 -7 -42 -8 -35 -4 40 2 50 7 124 11 165 10 106 6 250
-7 285 -9 23 -9 27 1 18 6 -6 18 -33 25 -60z m1058 -8 c24 -69 31 -206 17
-304 -7 -44 -34 -172 -62 -283 -44 -180 -61 -267 -62 -305 0 -7 -4 -10 -7 -8
-8 5 -6 72 5 165 6 53 11 79 55 285 31 141 40 209 44 325 2 58 -1 87 -20 170
-9 41 12 10 30 -45z m-3903 31 c-7 -8 -74 -54 -149 -102 -213 -137 -308 -211
-376 -294 l-28 -35 24 44 c34 65 145 162 277 243 64 39 148 91 186 114 78 48
83 50 66 30z m2895 -21 c24 -58 23 -176 -2 -330 -13 -77 -23 -154 -23 -172 -1
-17 -5 -34 -9 -37 -5 -3 -7 12 -6 32 5 68 15 169 18 188 19 102 23 267 7 322
-13 43 -4 41 15 -3z m-3622 -17 c-35 -67 -128 -181 -252 -310 -229 -235 -289
-312 -332 -423 -32 -79 -40 -87 -29 -28 29 155 72 216 341 485 125 125 239
246 254 268 32 48 41 52 18 8z m3685 -30 c17 -65 19 -134 5 -223 -14 -91 -23
-143 -29 -165 -13 -44 -23 -107 -24 -144 -1 -16 -4 -26 -8 -22 -10 10 -5 64
21 226 26 160 33 311 17 353 -6 16 -7 26 -2 23 4 -3 13 -25 20 -48z m-2974 2
c-10 -11 -81 -63 -159 -117 -203 -141 -274 -201 -348 -294 l-27 -34 16 35 c28
61 169 191 293 271 63 41 142 93 175 115 70 49 74 51 50 24z m4001 -78 c20
-88 14 -259 -12 -344 -3 -9 -7 -25 -9 -35 -2 -10 -20 -74 -40 -143 -53 -179
-95 -352 -88 -363 3 -6 1 -7 -5 -3 -11 7 -10 40 4 146 2 19 27 127 53 240 27
113 54 230 61 262 14 69 17 214 7 288 -10 76 8 46 29 -48z m-954 -71 c0 -66
-20 -175 -68 -366 -3 -11 -8 -37 -11 -58 -3 -21 -9 -39 -13 -42 -9 -6 6 97 39
265 22 108 29 170 28 243 -2 91 -1 96 11 66 8 -18 14 -67 14 -108z m-4592 58
c-33 -97 -98 -226 -210 -414 -190 -318 -256 -487 -261 -660 -1 -34 -2 -36 -8
-15 -4 14 -6 68 -5 120 4 162 68 324 227 577 41 65 102 161 135 213 33 53 77
130 98 173 21 42 40 75 42 73 1 -2 -7 -32 -18 -67z m788 -39 c-40 -67 -141
-189 -281 -340 -123 -133 -223 -286 -247 -378 -9 -33 -9 -31 -5 21 4 69 45
163 110 251 51 71 84 107 243 271 126 129 174 184 200 227 9 15 18 26 20 24 2
-2 -16 -36 -40 -76z m3859 -50 c1 -86 -4 -113 -49 -282 -28 -104 -54 -188 -58
-188 -9 0 6 74 51 255 25 102 32 153 33 237 1 135 20 117 23 -22z m963 48 c14
-53 18 -97 16 -163 -6 -131 -23 -203 -117 -490 -32 -99 -66 -207 -74 -240
l-15 -60 5 65 c7 97 24 172 96 415 68 230 86 369 66 509 -10 68 1 52 23 -36z
m-4090 58 c-6 -8 -82 -68 -168 -133 -161 -121 -289 -240 -317 -293 -9 -16 -18
-30 -21 -30 -18 0 62 114 121 172 53 52 371 293 394 297 2 1 -2 -6 -9 -13z
m3186 -181 c-6 -76 -26 -156 -87 -340 -21 -67 -39 -128 -39 -137 0 -9 -4 -19
-9 -22 -10 -7 12 119 33 184 51 156 79 289 80 378 1 93 1 94 14 50 8 -27 11
-69 8 -113z m-3237 82 c-25 -23 -65 -58 -89 -77 -194 -155 -295 -251 -327
-313 -8 -16 -17 -27 -20 -24 -11 11 73 125 136 185 57 55 327 269 341 271 3 0
-15 -18 -41 -42z m4214 -53 c33 -146 7 -291 -110 -609 -37 -99 -79 -223 -95
-275 l-28 -95 6 60 c8 90 28 170 94 370 105 321 134 488 106 612 -5 21 -4 24
4 12 5 -9 16 -43 23 -75z m-4879 34 c-34 -67 -92 -146 -209 -288 -214 -258
-268 -339 -300 -456 -13 -47 -13 -48 -14 -14 -1 48 21 124 54 190 43 84 110
171 255 329 137 150 220 253 220 274 0 6 3 8 6 5 3 -4 -2 -21 -12 -40z m3960
-93 c-5 -86 -14 -119 -113 -405 -81 -230 -62 -116 25 155 50 156 72 265 68
340 l-2 50 12 -40 c7 -22 11 -67 10 -100z m-4769 31 c-28 -86 -67 -168 -186
-386 -165 -306 -207 -420 -224 -609 -5 -58 -15 -65 -16 -10 -5 154 1 202 41
321 34 103 93 217 228 445 50 83 110 192 134 242 23 50 44 87 46 82 1 -4 -9
-42 -23 -85z m1515 60 c0 -3 -53 -51 -117 -107 -176 -153 -271 -247 -314 -313
-46 -70 -51 -63 -9 11 30 52 153 183 220 235 19 15 76 60 125 102 95 78 95 79
95 72z m3309 -121 c1 -81 -39 -220 -109 -380 -10 -22 -30 -76 -46 -120 -15
-44 -31 -84 -35 -89 -14 -16 38 164 80 278 71 190 88 256 91 361 2 41 4 45 10
25 4 -14 8 -47 9 -75z m-4038 -12 c-23 -43 -110 -168 -196 -278 -154 -198
-236 -333 -251 -410 -10 -55 -21 -41 -13 18 19 137 111 282 348 547 17 19 57
72 88 118 31 45 58 82 60 82 2 0 -14 -35 -36 -77z m4973 -93 c0 -155 -21 -238
-124 -490 -40 -96 -88 -222 -108 -280 -51 -150 -50 -150 -45 -100 10 88 44
207 123 425 101 278 119 351 127 499 8 160 27 123 27 -54z m-5735 80 c-16 -76
-62 -184 -182 -430 -156 -321 -191 -428 -197 -600 -2 -72 -16 -19 -19 74 -4
152 41 296 170 544 45 86 85 162 90 168 14 17 115 225 130 266 18 52 22 41 8
-22z m1430 33 c-13 -15 -51 -52 -84 -82 -139 -130 -242 -243 -277 -302 -47
-78 -50 -69 -6 15 34 63 146 182 303 323 85 76 104 90 64 46z m3424 -60 c0
-97 -33 -201 -136 -423 -19 -41 -40 -93 -48 -115 -7 -22 -19 -47 -26 -54 -19
-22 25 112 92 279 72 182 95 259 98 337 3 83 20 63 20 -24z m937 -18 c25 -119
8 -264 -48 -420 -13 -38 -65 -160 -115 -270 -50 -110 -103 -236 -118 -280 -25
-70 -28 -75 -23 -35 8 69 43 183 97 315 158 386 189 493 191 648 0 53 1 97 2
97 2 0 8 -25 14 -55z m-885 -66 c-6 -82 -42 -183 -133 -372 -43 -89 -85 -178
-92 -197 -22 -58 -31 -58 -14 0 8 30 38 107 66 170 123 282 157 382 159 479
l1 36 8 -29 c5 -16 7 -55 5 -87z m-4151 10 c-21 -40 -96 -152 -166 -249 -127
-175 -221 -337 -234 -404 -9 -53 -23 -44 -17 11 12 113 71 217 257 457 79 102
155 203 167 226 39 69 33 35 -7 -41z m525 -86 c-94 -96 -160 -173 -187 -218
-46 -77 -55 -81 -18 -6 38 75 90 137 209 251 61 58 115 110 121 116 6 7 13 10
15 8 2 -2 -61 -70 -140 -151z m3676 17 c-8 -105 -31 -160 -198 -483 -42 -82
-77 -144 -77 -138 0 23 47 136 122 291 106 219 143 328 140 415 l-1 30 10 -30
c5 -16 7 -55 4 -85z m-4955 -6 c-21 -79 -62 -182 -123 -314 -153 -331 -192
-457 -197 -635 -2 -56 -3 -58 -11 -25 -13 52 -13 176 0 248 20 107 68 227 185
467 62 127 124 258 137 293 31 81 36 63 9 -34z m137 64 c-3 -8 -6 -5 -6 6 -1
11 2 17 5 13 3 -3 4 -12 1 -19z m5718 -40 c26 -189 -11 -330 -177 -668 -56
-113 -118 -245 -139 -295 -21 -49 -39 -80 -39 -69 0 44 64 228 129 365 162
348 213 512 208 666 -3 73 8 74 18 1z m-5089 -32 c-20 -42 -91 -158 -158 -258
-134 -200 -191 -306 -209 -385 -15 -66 -28 -69 -22 -6 10 117 63 217 241 463
70 97 138 197 152 222 38 73 36 48 -4 -36z m628 52 c-17 -18 -64 -68 -105
-111 -81 -87 -189 -225 -189 -244 0 -6 -5 -15 -11 -18 -16 -10 16 60 52 112
31 45 266 293 278 293 3 0 -9 -15 -25 -32z m3611 -108 c-5 -78 -49 -188 -136
-340 -40 -69 -96 -170 -125 -225 -30 -55 -54 -97 -54 -93 0 22 67 174 132 294
129 242 167 338 169 434 1 41 2 42 9 17 5 -16 7 -55 5 -87z m142 78 c-3 -8 -6
-5 -6 6 -1 11 2 17 5 13 3 -3 4 -12 1 -19z m-3734 -10 c-11 -13 -31 -36 -44
-52 -13 -16 -44 -51 -69 -79 -63 -69 -156 -195 -180 -242 -12 -22 -18 -29 -14
-15 8 33 67 130 110 181 52 62 207 229 212 229 3 0 -4 -10 -15 -22z m-1377
-55 c-17 -104 -41 -177 -130 -395 -131 -324 -166 -450 -161 -592 2 -42 2 -76
0 -76 -10 0 -27 123 -27 185 1 140 45 279 183 581 43 94 90 208 106 253 15 44
30 81 32 81 2 0 1 -17 -3 -37z m730 -69 c-20 -43 -78 -143 -127 -222 -143
-228 -163 -270 -207 -432 l-10 -35 -1 50 c-2 118 40 208 223 483 74 111 138
211 141 223 4 11 9 18 12 15 3 -3 -11 -40 -31 -82z m5152 -35 c0 -93 -9 -150
-40 -249 -22 -69 -119 -275 -189 -400 -65 -118 -140 -268 -160 -324 -23 -63
-24 -44 -3 36 23 89 62 184 154 368 132 266 190 413 206 523 3 21 7 46 9 55 2
9 4 40 5 67 2 83 17 21 18 -76z m-865 30 c-6 -103 -49 -200 -180 -407 -47 -74
-103 -166 -124 -205 -22 -40 -37 -61 -34 -47 12 46 63 149 143 287 132 229
182 346 182 427 0 21 3 27 9 18 4 -8 7 -40 4 -73z m-3695 -5 c-112 -140 -178
-231 -208 -288 -16 -32 -30 -53 -30 -46 0 24 71 147 123 212 62 78 158 188
163 188 3 0 -19 -30 -48 -66z m82 32 c0 -2 -8 -10 -17 -17 -16 -13 -17 -12 -4
4 13 16 21 21 21 13z m3650 -156 c-18 -83 -73 -189 -189 -360 -58 -85 -122
-184 -144 -220 -21 -36 -35 -54 -32 -40 13 45 66 143 158 290 50 80 107 177
128 215 38 71 78 186 81 234 1 14 3 6 6 -19 2 -25 -2 -70 -8 -100z m-4308 51
c-17 -39 -71 -143 -122 -231 -116 -202 -156 -290 -172 -374 -7 -36 -15 -66
-19 -66 -9 0 0 108 12 155 20 72 65 160 169 326 56 90 114 187 128 216 37 75
39 58 4 -26z m534 -57 c-52 -70 -110 -158 -130 -196 -20 -39 -36 -64 -36 -57
0 26 69 148 121 216 62 81 131 163 135 163 2 0 -39 -57 -90 -126z m4654 89 c8
-81 0 -191 -19 -263 -30 -118 -88 -239 -231 -486 -73 -126 -148 -260 -166
-299 -18 -38 -33 -64 -33 -57 -3 48 116 315 209 472 58 99 158 313 184 395 28
90 39 147 42 220 1 28 2 51 3 53 4 9 7 -3 11 -35z m-5934 -113 c-13 -52 -50
-165 -81 -250 -60 -162 -118 -341 -130 -400 -4 -19 -9 -84 -11 -144 -2 -60 -5
-111 -8 -113 -2 -2 -9 25 -15 60 -31 178 -4 300 156 692 39 94 78 199 89 235
29 100 30 34 0 -80z m4481 103 c-3 -10 -5 -4 -5 12 0 17 2 24 5 18 2 -7 2 -21
0 -30z m-3704 -74 c-10 -30 -42 -101 -71 -159 -30 -58 -80 -154 -111 -215 -62
-120 -89 -195 -98 -267 -9 -73 -27 -47 -19 27 11 110 50 201 190 438 41 71 85
153 97 183 28 68 35 64 12 -7z m4330 -16 c-6 -66 -36 -149 -80 -225 -40 -69
-55 -90 -198 -288 -53 -74 -106 -152 -116 -172 -22 -43 -33 -51 -19 -14 22 60
67 136 180 305 142 213 195 312 212 392 14 69 27 70 21 2z m-5057 -27 c-8 -85
-34 -182 -112 -420 -88 -269 -112 -420 -91 -564 4 -27 1 -21 -14 23 -14 41
-21 89 -21 150 -2 155 14 217 161 620 28 77 56 166 63 198 7 31 14 57 16 57 3
0 2 -29 -2 -64z m5938 -93 c-10 -185 -68 -319 -283 -657 -70 -111 -147 -240
-171 -288 -25 -48 -46 -85 -48 -83 -7 7 53 165 92 240 22 44 87 159 144 255
173 293 237 447 249 602 6 75 8 79 14 43 4 -22 6 -73 3 -112z m-5190 60 c-9
-39 -51 -134 -132 -303 -78 -163 -111 -252 -119 -323 -4 -34 -9 -45 -16 -38
-17 17 6 145 42 234 17 43 67 145 110 225 44 81 87 166 96 190 20 48 28 55 19
15z m4351 -17 c-13 -131 -68 -227 -300 -521 -43 -55 -96 -127 -117 -159 -49
-76 -49 -59 0 30 42 76 83 137 199 294 103 140 160 239 186 322 24 74 37 88
32 34z m888 -146 c-5 -134 -68 -307 -174 -475 -24 -39 -101 -153 -171 -255
-69 -102 -145 -221 -168 -265 -52 -99 -54 -101 -34 -35 25 84 119 258 251 466
194 304 267 469 281 634 6 65 7 70 12 35 3 -22 4 -69 3 -105z m-5957 73 c-3
-32 -8 -69 -11 -83 -2 -14 -7 -38 -11 -55 -3 -16 -30 -117 -60 -223 -58 -208
-69 -251 -80 -327 -11 -72 -9 -227 4 -264 6 -17 8 -29 3 -27 -22 14 -45 126
-46 221 0 150 14 210 122 545 28 85 57 181 64 213 6 31 14 57 16 57 2 0 2 -26
-1 -57z m724 -45 c-12 -35 -48 -122 -80 -193 -85 -191 -121 -299 -128 -385 -7
-96 -21 -57 -16 46 4 89 41 194 132 379 38 77 77 161 88 187 27 67 30 41 4
-34z m4384 47 c-3 -65 -44 -172 -95 -251 -28 -43 -115 -155 -193 -249 -78 -93
-154 -189 -170 -212 -16 -24 -30 -43 -33 -43 -2 0 9 24 23 53 32 63 93 151
195 277 149 186 219 297 248 395 19 63 20 65 23 65 2 0 3 -16 2 -35z m-883
-67 c-30 -63 -127 -198 -196 -273 -20 -22 -26 -26 -13 -9 12 16 31 41 40 55
10 13 36 49 59 79 57 76 103 149 118 188 8 18 16 31 18 28 3 -2 -9 -33 -26
-68z m26 -50 c-37 -75 -101 -160 -197 -264 -64 -69 -61 -65 52 76 84 106 150
205 163 248 4 13 9 21 12 18 4 -3 -10 -38 -30 -78z m-4213 30 c-2 -62 -14
-158 -25 -198 -38 -141 -100 -416 -106 -470 -9 -84 -9 -171 0 -240 5 -44 4
-50 -4 -30 -39 90 -49 238 -23 370 7 41 41 169 74 286 33 117 62 232 66 256
11 78 20 92 18 26z m716 -25 c-11 -38 -38 -113 -60 -168 -42 -101 -98 -253
-107 -290 -11 -49 -17 -93 -17 -137 -1 -34 -3 -42 -10 -30 -10 18 -11 118 -2
165 10 56 40 134 112 300 41 92 74 169 74 171 0 10 20 56 24 56 3 0 -4 -30
-14 -67z m4371 -61 c-35 -117 -97 -206 -288 -418 -163 -180 -170 -189 -204
-242 -34 -54 -38 -49 -8 11 33 65 96 150 229 307 67 80 146 182 176 227 53 79
102 185 106 227 0 12 3 6 5 -12 3 -19 -5 -64 -16 -100z m-4335 8 c-8 -36 -37
-126 -64 -201 -78 -212 -101 -297 -102 -384 -2 -75 -18 -46 -19 33 -1 83 26
183 100 367 37 94 73 190 79 214 17 65 21 44 6 -29z m3509 39 c-23 -72 -115
-192 -266 -350 -67 -68 -49 -45 68 91 100 116 164 204 183 250 14 34 25 41 15
9z m874 -70 c-24 -149 -83 -239 -326 -491 -92 -95 -186 -199 -210 -232 -24
-32 -43 -54 -43 -49 0 20 123 193 192 269 40 44 105 116 143 158 125 139 201
259 239 379 10 33 13 17 5 -34z m-5094 -32 c-2 -12 -6 -51 -10 -87 -8 -78 -5
-57 -48 -260 -56 -263 -65 -407 -32 -545 3 -11 -2 -4 -11 15 -27 58 -42 139
-42 224 0 103 10 166 54 346 58 236 74 311 75 353 l1 32 8 -28 c5 -15 7 -38 5
-50z m4240 31 c-40 -81 -106 -162 -223 -278 -124 -123 -120 -113 10 25 88 93
160 183 195 244 30 55 44 62 18 9z m-3514 -104 c-11 -44 -34 -119 -51 -169
-51 -150 -72 -245 -73 -329 -1 -93 -18 -69 -20 29 -2 85 7 129 48 247 20 57
53 153 73 214 41 123 54 128 23 8z m3528 34 c-12 -23 -35 -62 -51 -85 -30 -44
-235 -250 -278 -280 -14 -9 35 44 109 119 124 126 212 235 227 280 3 11 8 17
11 15 2 -3 -6 -25 -18 -49z m869 -30 c-11 -61 -52 -156 -99 -225 -17 -27 -122
-138 -233 -248 -111 -110 -222 -222 -245 -250 -43 -49 -43 -49 -20 -10 42 73
111 156 240 289 147 151 188 197 246 274 45 60 103 169 103 193 0 13 8 29 15
29 1 0 -2 -24 -7 -52z m-5082 -60 c-4 -57 -8 -116 -10 -131 -5 -33 -27 -163
-32 -192 -6 -31 -23 -136 -29 -180 -10 -75 -5 -220 9 -280 8 -33 13 -61 12
-63 -7 -6 -47 100 -54 141 -9 54 -9 207 0 272 4 28 17 96 29 150 11 55 23 111
25 125 3 14 10 45 15 70 10 43 14 71 23 150 6 43 5 40 12 40 3 0 3 -46 0 -102z
m733 49 c-9 -52 -51 -216 -79 -312 -25 -85 -34 -148 -35 -237 0 -88 -17 -60
-21 36 -4 84 8 142 77 366 28 91 53 171 55 178 8 29 11 9 3 -31z m3485 -48
c-36 -66 -129 -166 -252 -271 -53 -46 -105 -92 -115 -103 -19 -20 -19 -20 -5
1 7 12 42 48 77 80 126 115 246 242 281 297 19 30 37 53 38 51 2 -1 -9 -26
-24 -55z m-3463 -94 c-11 -55 -32 -149 -47 -210 -20 -79 -27 -138 -28 -211 -1
-90 -2 -98 -13 -71 -22 51 -15 171 17 292 16 61 42 161 57 222 33 134 42 119
14 -22z m-714 103 c-3 -8 -6 -5 -6 6 -1 11 2 17 5 13 3 -3 4 -12 1 -19z m4193
-73 c-44 -77 -148 -180 -310 -309 -142 -113 -100 -66 65 72 85 72 202 194 235
245 45 70 52 65 10 -8z m-4186 -52 c-1 -54 -5 -110 -8 -125 -2 -15 -10 -71
-16 -124 -6 -53 -14 -106 -17 -118 -2 -11 -6 -79 -8 -151 -3 -119 6 -202 30
-270 4 -11 -1 -6 -12 10 -56 89 -73 262 -44 445 6 36 13 83 17 105 3 22 12 73
19 113 8 40 17 107 21 147 10 106 22 84 18 -32z m5061 78 c-3 -11 -8 -29 -10
-40 -7 -37 -43 -109 -83 -168 -48 -69 -116 -140 -237 -248 -50 -44 -145 -135
-212 -201 -68 -67 -120 -117 -116 -110 53 91 87 130 329 371 198 198 274 292
305 378 13 37 36 54 24 18z m-4307 -73 c-4 -35 -21 -128 -37 -208 -22 -110
-29 -169 -28 -247 2 -96 1 -100 -11 -65 -28 78 -10 237 52 467 2 6 6 28 10 50
16 87 26 89 14 3z m3427 -49 c-50 -73 -128 -146 -262 -246 -43 -31 -100 -75
-128 -97 -46 -37 -48 -37 -20 -7 17 18 55 51 85 74 30 23 57 44 60 47 3 3 30
25 60 50 93 75 180 163 213 212 16 27 33 46 35 43 3 -3 -16 -37 -43 -76z
m-4131 -104 c-2 -71 -5 -139 -8 -150 -6 -31 -19 -202 -20 -280 -2 -84 10 -184
29 -239 8 -22 12 -42 10 -44 -10 -11 -53 99 -71 183 -7 31 -7 203 0 265 7 61
25 191 32 230 2 14 7 68 11 120 10 135 21 77 17 -85z m5016 65 c-44 -130 -127
-228 -355 -419 -182 -152 -157 -130 -256 -226 -79 -77 -81 -78 -48 -30 38 57
203 225 329 336 161 142 249 240 304 340 20 36 37 74 37 85 2 16 2 16 6 -2 2
-12 -5 -50 -17 -84z m-4273 8 c-4 -40 -9 -84 -12 -98 -3 -14 -7 -38 -10 -55
-3 -16 -8 -43 -11 -60 -12 -68 -16 -254 -6 -284 6 -18 7 -29 3 -27 -14 9 -32
88 -34 146 -2 77 7 142 38 285 19 89 23 115 24 143 1 12 4 22 7 22 4 0 4 -33
1 -72z m3437 20 c-45 -87 -134 -176 -282 -280 -57 -40 -133 -95 -170 -121
-110 -79 -9 9 127 111 164 122 240 190 291 260 24 34 46 62 48 62 1 0 -5 -15
-14 -32z m-3391 -45 c-1 -27 -7 -84 -13 -128 -27 -211 -30 -284 -14 -355 7
-30 11 -56 10 -58 -2 -1 -11 19 -22 45 -19 51 -24 157 -11 248 8 55 45 288 46
293 5 12 6 -6 4 -45z m-732 -69 c2 -43 -1 -155 -5 -249 -13 -267 -9 -338 28
-447 12 -38 21 -68 20 -68 -11 0 -56 98 -73 159 -18 65 -20 97 -17 237 2 89 6
166 9 170 6 11 21 201 20 263 -1 78 16 19 18 -65z m775 -31 c-3 -60 -9 -121
-12 -138 -8 -44 -9 -234 -1 -280 l6 -40 -16 35 c-21 46 -24 177 -7 310 20 153
23 173 23 198 1 12 4 22 7 22 3 0 3 -48 0 -107z m4219 70 c-9 -58 -59 -158
-114 -227 -62 -77 -114 -124 -325 -289 -93 -73 -203 -163 -245 -202 -62 -57
-70 -63 -46 -30 52 73 158 175 331 321 240 201 347 320 385 427 7 20 15 37 17
37 2 0 1 -17 -3 -37z m-872 -15 c-31 -57 -175 -192 -268 -252 -49 -33 -130
-85 -180 -118 -117 -76 -53 -19 90 79 191 132 282 209 339 286 35 46 43 48 19
5z m-4061 -333 c-1 -271 10 -360 53 -470 29 -73 6 -47 -36 40 -42 88 -57 194
-52 365 3 80 6 163 8 185 1 22 4 81 5 130 2 85 3 87 12 45 5 -25 10 -157 10
-295z m5045 313 c-3 -8 -6 -5 -6 6 -1 11 2 17 5 13 3 -3 4 -12 1 -19z m-4287
-115 c-6 -228 -4 -339 8 -372 17 -48 7 -51 -14 -5 -14 30 -18 67 -18 164 0 69
3 152 6 185 4 33 7 80 7 104 1 24 4 42 7 38 4 -3 5 -55 4 -114z m3316 75 c-66
-112 -148 -182 -378 -321 -84 -51 -166 -101 -183 -111 l-30 -18 25 21 c14 12
110 79 215 148 186 123 305 223 346 290 30 49 34 40 5 -9z m-4011 -188 c3 -52
7 -161 10 -241 6 -169 24 -277 60 -357 22 -49 22 -54 5 -32 -48 59 -84 158
-96 265 -3 28 -6 164 -7 302 -2 216 0 246 10 205 7 -26 15 -90 18 -142z m748
-50 c3 -155 8 -216 20 -249 12 -35 13 -41 2 -30 -8 8 -22 43 -31 79 -14 54
-16 94 -11 235 4 94 7 179 8 190 l2 20 3 -20 c2 -11 5 -112 7 -225z m4127 168
c-50 -162 -153 -265 -541 -543 -46 -33 -122 -94 -169 -135 -63 -56 -78 -66
-60 -40 47 67 176 186 330 305 85 66 186 146 223 179 82 70 173 181 207 253
13 29 26 51 27 49 2 -2 -6 -32 -17 -68z m-4084 -4 c1 -8 5 -85 9 -170 6 -157
14 -225 34 -277 18 -46 12 -45 -14 3 -13 25 -27 72 -31 105 -13 100 -11 426 2
339z m3217 -15 c-48 -83 -189 -197 -355 -288 -117 -63 -174 -95 -213 -118
l-40 -24 30 26 c17 14 91 62 165 107 207 124 305 194 368 264 31 35 58 63 60
64 2 0 -5 -14 -15 -31z m-3158 -123 c14 -216 21 -262 49 -341 8 -20 8 -20 -8
0 -30 36 -47 118 -52 245 -2 69 -6 150 -8 180 -4 43 -3 49 4 26 5 -16 12 -66
15 -110z m-791 -6 c13 -105 16 -145 21 -246 7 -172 39 -317 86 -394 20 -33 21
-34 1 -17 -31 28 -78 125 -95 197 -20 80 -25 145 -32 369 -3 95 -7 185 -10
200 -3 14 1 8 9 -14 7 -22 16 -65 20 -95z m4823 27 c-54 -149 -161 -258 -432
-439 -199 -134 -323 -225 -372 -275 -18 -18 -33 -28 -33 -23 0 22 195 202 309
285 320 233 372 276 454 378 26 32 56 76 67 97 30 59 33 49 7 -23z m-874 22
c-58 -99 -182 -187 -458 -327 -242 -123 -170 -69 110 83 128 70 233 143 297
208 35 36 64 66 66 66 2 1 -5 -13 -15 -30z m-3889 -89 c8 -47 18 -110 21 -140
3 -30 7 -75 10 -100 3 -25 8 -65 10 -90 15 -134 52 -256 98 -325 l20 -30 -25
25 c-85 88 -128 243 -143 519 -6 132 -14 210 -21 231 -3 10 -2 11 4 5 5 -5 17
-48 26 -95z m3868 -12 c-43 -59 -131 -134 -209 -179 -52 -30 -453 -220 -453
-214 0 7 149 89 306 169 185 94 262 144 339 224 27 29 51 52 53 52 1 0 -15
-24 -36 -52z m-3787 -128 c7 -41 16 -97 20 -125 3 -27 8 -61 10 -75 3 -14 7
-41 10 -60 2 -19 9 -50 14 -67 5 -18 8 -33 6 -33 -8 0 45 -131 69 -171 l27
-44 -36 39 c-60 67 -105 186 -121 321 -3 33 -8 68 -10 79 -2 10 -6 53 -9 95
-3 42 -10 100 -15 130 -6 30 -10 59 -9 65 2 20 30 -78 44 -154z m4690 93 c-40
-106 -127 -211 -254 -306 -35 -26 -141 -95 -235 -154 -175 -108 -285 -183
-321 -216 -11 -10 -33 -28 -50 -40 l-30 -20 30 34 c83 93 172 165 371 299 287
192 418 307 476 416 29 55 36 48 13 -13z m-893 -25 c-85 -123 -189 -189 -507
-323 -88 -36 -170 -73 -182 -81 -12 -8 -26 -14 -30 -14 -15 1 92 63 167 98
346 160 463 229 536 317 48 57 54 58 16 3z m-3738 -73 c8 -33 17 -73 20 -90
47 -282 70 -362 137 -472 33 -55 -1 -24 -45 40 -58 86 -96 224 -121 447 -6 50
-17 111 -31 165 -3 15 -1 13 10 -5 8 -14 21 -52 30 -85z m60 -32 c14 -43 39
-141 57 -218 37 -168 73 -266 124 -337 l38 -53 -33 30 c-78 72 -125 178 -160
362 -29 150 -50 255 -56 276 -3 9 -3 17 0 17 2 0 16 -35 30 -77z m3696 53 c0
-2 -8 -10 -17 -17 -16 -13 -17 -12 -4 4 13 16 21 21 21 13z m857 -79 c-45 -90
-129 -184 -233 -258 -44 -32 -170 -109 -282 -173 -212 -122 -274 -161 -357
-229 -56 -46 -36 -18 40 56 75 73 148 125 360 257 284 176 407 278 472 388 40
68 40 40 0 -41z m-4488 -13 c12 -31 40 -124 62 -207 45 -166 92 -280 141 -342
25 -31 26 -36 8 -20 -38 31 -58 56 -89 110 -39 67 -56 120 -102 315 -22 91
-42 173 -45 183 -3 9 -3 17 0 17 2 0 14 -25 25 -56z m3585 34 c-95 -114 -199
-173 -501 -286 -89 -34 -180 -70 -202 -82 -23 -11 -41 -18 -41 -16 0 11 137
79 285 141 248 104 373 173 434 239 30 32 52 35 25 4z m-3504 -112 c17 -43 33
-86 35 -95 8 -41 76 -235 99 -284 15 -30 43 -76 63 -103 l36 -49 -47 45 c-65
62 -117 173 -166 353 -23 82 -47 167 -55 189 -23 68 2 28 35 -56z m3500 35
c-73 -104 -220 -184 -515 -281 -71 -24 -161 -56 -199 -72 -38 -15 -72 -28 -75
-28 -24 1 154 82 299 136 96 36 216 85 266 109 91 44 211 127 221 152 3 7 9
13 15 13 5 0 0 -13 -12 -29z m935 7 c-37 -120 -134 -236 -280 -333 -82 -54
-97 -63 -365 -205 -174 -93 -242 -134 -315 -193 -39 -31 -34 -24 25 35 97 96
161 140 410 283 113 65 234 138 269 163 92 65 191 162 226 221 33 56 40 62 30
29z m-4375 -55 c12 -27 43 -107 70 -180 61 -168 103 -252 154 -311 39 -44 39
-45 9 -24 -74 52 -132 156 -189 334 -20 62 -44 137 -55 166 -20 56 -22 62 -14
62 2 0 14 -21 25 -47z m-925 -157 c25 -74 55 -192 115 -446 71 -304 148 -471
278 -599 74 -72 21 -45 -66 34 -101 92 -160 191 -216 360 -23 72 -65 253 -80
345 -6 36 -9 50 -26 136 -6 28 -13 63 -16 78 -11 64 -35 155 -54 210 -11 33
-20 62 -20 65 2 15 63 -116 85 -183z m1003 99 c17 -33 54 -116 82 -185 59
-143 103 -219 156 -274 21 -21 28 -34 17 -28 -38 21 -119 119 -150 183 -17 35
-53 123 -79 194 -25 72 -53 144 -61 160 -9 17 -11 26 -5 20 5 -5 23 -37 40
-70z m2402 55 c-8 -5 -22 -9 -30 -9 -10 0 -8 3 5 9 27 12 43 12 25 0z m950
-29 c-79 -111 -242 -194 -570 -290 -74 -21 -161 -48 -192 -59 -32 -11 -58 -18
-58 -16 0 11 137 65 322 128 108 36 227 80 264 96 77 35 188 106 223 144 32
34 37 33 11 -3z m-3210 -200 c77 -167 118 -235 177 -296 39 -39 21 -31 -34 16
-68 57 -104 122 -199 354 -25 60 -49 115 -52 120 -4 6 3 0 15 -14 12 -14 54
-95 93 -180z m2137 193 c-3 -3 -12 -4 -19 -1 -8 3 -5 6 6 6 11 1 17 -2 13 -5z
m-3197 -177 c17 -43 64 -193 104 -335 78 -269 104 -347 153 -448 50 -103 116
-186 201 -257 45 -37 32 -34 -31 6 -111 72 -200 181 -258 317 -43 101 -63 168
-105 344 -57 239 -102 411 -123 463 -33 85 -33 89 -3 38 17 -27 45 -85 62
-128z m3319 169 c-2 -1 -19 -8 -36 -14 -37 -12 -45 -6 -10 8 22 9 54 13 46 6z
m1875 -53 c-80 -182 -190 -269 -594 -466 -140 -69 -291 -149 -335 -178 -112
-75 -117 -77 -60 -25 110 103 196 159 440 286 274 143 372 207 466 303 28 29
62 71 76 95 14 23 27 42 29 42 2 0 -8 -26 -22 -57z m-4052 -168 c70 -138 104
-192 162 -254 38 -41 39 -43 9 -22 -54 37 -120 120 -162 205 -42 87 -122 255
-129 271 -17 43 71 -104 120 -200z m2065 189 c-3 -3 -12 -4 -19 -1 -8 3 -5 6
6 6 11 1 17 -2 13 -5z m-44 -11 c-7 -2 -19 -2 -25 0 -7 3 -2 5 12 5 14 0 19
-2 13 -5z m157 -3 c-8 -5 -22 -9 -30 -9 -10 0 -8 3 5 9 27 12 43 12 25 0z
m-2143 -125 c119 -205 146 -246 200 -300 l58 -59 -47 32 c-85 58 -116 103
-242 347 -62 120 -44 108 31 -20z m3077 103 c-61 -73 -135 -126 -242 -175 -71
-32 -152 -56 -472 -141 -63 -17 -124 -33 -135 -36 -11 -4 4 5 34 19 30 14 129
49 220 76 346 105 450 148 549 230 65 54 73 59 46 27z m-985 8 c-6 -6 -138
-36 -152 -35 -7 1 20 9 58 19 70 18 102 24 94 16z m-1967 -211 c50 -79 106
-154 144 -192 54 -53 57 -58 26 -40 -77 45 -148 139 -252 332 -17 33 -37 67
-43 76 -7 8 0 2 16 -15 15 -17 64 -89 109 -161z m-1229 72 c25 -51 86 -214
136 -363 94 -283 135 -385 195 -479 44 -68 116 -147 170 -187 57 -41 29 -34
-40 10 -191 124 -269 268 -398 737 -41 146 -73 247 -98 310 -31 78 -31 78 -19
71 4 -3 29 -47 54 -99z m3004 97 c-3 -3 -12 -4 -19 -1 -8 3 -5 6 6 6 11 1 17
-2 13 -5z m210 0 c-9 -9 -167 -43 -167 -35 0 3 35 14 78 22 94 20 97 20 89 13z
m-1911 -179 c89 -127 119 -163 173 -207 43 -37 31 -36 -22 1 -74 51 -117 106
-236 301 -65 106 -27 63 85 -95z m66 0 c92 -121 132 -166 177 -200 44 -32 33
-33 -17 -1 -58 38 -114 101 -207 236 -96 139 -70 120 47 -35z m1668 146 c0 -5
-18 -11 -40 -13 -45 -4 -41 8 5 15 17 2 31 5 33 6 1 0 2 -3 2 -8z m2075 -38
c-38 -91 -79 -144 -175 -224 -83 -70 -192 -128 -442 -238 -241 -106 -333 -152
-412 -208 -61 -44 -56 -29 9 27 90 78 206 146 465 273 335 163 457 247 535
366 34 51 40 52 20 4z m-2168 21 c-3 -3 -12 -4 -19 -1 -8 3 -5 6 6 6 11 1 17
-2 13 -5z m262 2 c-10 -10 -129 -35 -194 -41 -38 -4 -74 -10 -80 -13 -7 -3 -7
-1 0 5 6 6 37 14 70 17 33 4 87 13 120 20 66 15 91 18 84 12z m909 -51 c-110
-104 -275 -172 -533 -221 -48 -9 -274 -61 -302 -70 -10 -3 -7 1 7 9 35 21 157
58 350 108 257 65 363 108 470 188 30 23 57 41 60 41 3 -1 -21 -25 -52 -55z
m-4004 -99 c30 -61 91 -210 136 -331 135 -361 211 -490 354 -598 59 -44 50
-48 -20 -8 -116 67 -218 188 -290 347 -19 42 -75 197 -123 343 -49 146 -99
289 -112 316 -13 28 -25 55 -28 60 -2 6 3 4 12 -4 9 -7 41 -63 71 -125z m1339
3 c58 -69 124 -141 148 -159 65 -50 69 -55 20 -29 -25 13 -66 45 -92 71 -51
51 -207 253 -191 247 6 -2 57 -61 115 -130z m77 -8 c52 -57 117 -122 143 -143
67 -52 43 -48 -29 5 -33 24 -104 97 -159 162 -116 140 -91 126 45 -24z m83
-10 c53 -55 120 -114 147 -132 28 -18 50 -34 50 -36 0 -2 -24 8 -52 24 -50 26
-127 97 -243 222 -84 90 -7 29 98 -78z m62 8 c82 -76 156 -132 197 -149 13 -5
17 -9 9 -9 -38 -2 -136 68 -233 165 -56 58 -105 108 -108 112 -9 12 53 -42
135 -119z m225 -112 c54 -32 46 -35 -13 -6 -57 29 -108 70 -197 158 -75 73
-74 73 45 -26 66 -55 140 -112 165 -126z m1003 216 c-13 -2 -33 -2 -45 0 -13
2 -3 4 22 4 25 0 35 -2 23 -4z m-1021 -143 c29 -22 72 -49 96 -60 52 -25 56
-35 5 -14 -75 31 -162 94 -253 183 -23 23 -13 17 32 -17 37 -28 91 -70 120
-92z m18 49 c19 -15 62 -44 94 -63 67 -40 68 -46 3 -16 -41 20 -187 125 -217
157 -17 18 68 -37 120 -78z m28 39 c42 -29 104 -67 137 -86 33 -18 49 -30 35
-26 -39 10 -108 50 -190 110 -95 69 -83 70 18 2z m1229 46 c-3 -3 -12 -4 -19
-1 -8 3 -5 6 6 6 11 1 17 -2 13 -5z m-2993 -71 c60 -93 92 -159 181 -373 118
-282 183 -401 272 -495 47 -51 127 -115 141 -115 6 0 14 -4 17 -10 14 -22 -93
32 -154 78 -131 98 -208 232 -341 587 -45 121 -100 259 -124 308 -23 48 -40
87 -39 87 2 0 23 -30 47 -67z m2955 62 c-3 -2 -36 -9 -74 -14 -85 -12 -241
-23 -234 -17 4 4 48 10 184 22 39 3 72 8 74 10 2 2 16 4 29 4 14 0 23 -2 21
-5z m970 -68 c-119 -112 -245 -158 -599 -222 -107 -19 -219 -41 -248 -48 -69
-19 -54 -5 23 21 69 23 127 38 351 87 252 55 377 103 479 184 72 57 70 49 -6
-22z m-922 37 c-3 -3 -12 -4 -19 -1 -8 3 -5 6 6 6 11 1 17 -2 13 -5z m-74 -19
c-72 -23 -283 -38 -299 -22 -4 4 31 7 77 7 86 1 138 6 199 20 55 13 69 9 23
-5z m-2799 -122 c43 -66 89 -158 205 -408 75 -161 149 -274 235 -361 45 -45
100 -91 124 -103 60 -31 52 -35 -13 -7 -199 89 -309 240 -480 661 -61 148
-115 262 -146 307 -11 14 -19 29 -19 33 0 12 46 -48 94 -122z m4785 53 c-65
-120 -200 -232 -378 -313 -42 -19 -173 -73 -291 -120 -215 -85 -355 -152 -420
-201 -23 -17 -30 -20 -20 -7 24 30 164 130 242 173 40 22 146 72 236 111 398
173 524 251 626 384 16 21 30 36 32 34 2 -2 -10 -29 -27 -61z m-2299 49 c0 -7
-30 -13 -34 -7 -3 4 4 9 15 9 10 1 19 0 19 -2z m250 -41 c-61 -12 -400 -20
-388 -9 2 3 72 6 154 7 82 1 172 4 199 8 83 12 104 8 35 -6z m1033 -44 c-104
-98 -269 -164 -488 -194 -22 -3 -89 -12 -150 -20 -161 -22 -186 -26 -225 -37
-47 -12 -71 -12 -49 1 20 11 190 56 244 64 126 18 332 58 407 80 107 31 220
85 273 131 63 54 56 40 -12 -25z m-3669 -74 c30 -44 97 -162 149 -261 107
-204 144 -269 195 -340 51 -73 151 -168 213 -205 30 -17 43 -28 29 -24 -59 16
-144 68 -205 125 -107 101 -160 189 -342 579 -27 58 -69 136 -92 175 -56 91
-18 56 53 -49z m2616 68 c-30 -8 -91 -15 -135 -16 -81 -1 -277 11 -284 17 -2
2 77 2 175 1 99 -2 197 0 219 4 67 13 84 9 25 -6z m-2570 -46 c45 -49 128
-176 215 -328 42 -74 102 -173 133 -220 70 -107 208 -246 282 -283 30 -15 44
-25 30 -22 -85 20 -202 95 -270 172 -60 69 -138 190 -210 328 -112 215 -142
269 -181 328 -20 31 -36 57 -33 57 2 0 18 -15 34 -32z m4630 -20 c-25 -48 -88
-128 -139 -173 -96 -86 -254 -162 -551 -265 -238 -83 -346 -130 -450 -193 -67
-41 -11 10 78 71 106 72 199 117 448 215 243 96 329 137 430 203 78 51 194
163 194 186 0 6 3 9 6 6 3 -3 -4 -26 -16 -50z m-1034 -14 c-118 -108 -262
-163 -501 -189 -33 -3 -71 -8 -85 -10 -14 -2 -61 -6 -105 -10 -118 -9 -184
-18 -260 -35 -22 -5 -41 -7 -43 -5 -6 6 141 49 203 59 17 2 48 7 70 11 22 3
55 8 73 10 233 29 321 45 426 76 83 24 188 77 237 119 58 49 47 32 -15 -26z
m-1178 31 c154 0 152 -14 -3 -17 -89 -2 -182 5 -300 22 -43 6 -28 7 50 2 61
-4 174 -7 253 -7z m-2244 -135 c23 -30 87 -125 141 -210 187 -295 291 -411
435 -484 34 -17 34 -17 5 -11 -63 13 -159 71 -229 136 -86 80 -141 158 -267
374 -98 170 -175 291 -190 301 -5 3 -9 10 -9 17 0 13 49 -40 114 -123z m1841
110 c3 -5 1 -10 -4 -10 -6 0 -11 5 -11 10 0 6 2 10 4 10 3 0 8 -4 11 -10z
m175 -17 c36 -5 124 -8 197 -8 83 0 124 -3 110 -9 -28 -11 -215 -12 -292 -2
-33 4 -87 14 -120 22 l-60 14 50 -5 c28 -3 79 -8 115 -12z m-1971 -66 c51 -55
133 -164 266 -352 131 -187 229 -283 351 -345 69 -35 59 -39 -23 -9 -156 58
-264 166 -435 436 -110 174 -173 266 -211 310 -42 50 -6 21 52 -40z m1728 47
c-3 -3 -12 -4 -19 -1 -8 3 -5 6 6 6 11 1 17 -2 13 -5z m413 -46 c75 -1 87 -3
55 -9 -40 -8 -223 -4 -254 5 -9 3 -27 7 -41 10 -211 38 -216 51 -7 19 83 -13
195 -24 247 -25z m-1971 -112 c37 -44 112 -139 167 -211 157 -207 310 -346
407 -370 42 -11 42 -24 -1 -14 -129 29 -262 127 -379 279 -28 36 -92 126 -144
200 -51 74 -118 164 -149 200 l-55 65 43 -34 c24 -18 74 -70 111 -115z m1539
119 c203 -43 302 -57 407 -58 81 0 86 -1 45 -9 -43 -9 -193 -5 -255 7 -82 16
-304 74 -262 69 27 -3 56 -7 65 -9z m1637 -20 c-103 -85 -235 -144 -365 -163
-124 -19 -151 -22 -255 -27 -133 -7 -264 -16 -297 -20 -16 -2 -47 -6 -70 -9
l-43 -6 37 14 c20 8 50 17 65 19 91 16 164 27 203 31 25 2 72 7 105 11 33 3
80 7 105 9 61 5 138 17 215 32 72 14 214 68 260 99 59 39 83 46 40 10z m-3109
-90 c33 -33 107 -116 164 -185 196 -237 324 -347 454 -392 61 -21 42 -23 -31
-4 -144 38 -285 150 -423 336 -68 91 -184 240 -215 275 -5 6 -23 27 -40 46
l-30 34 30 -25 c17 -14 57 -52 91 -85z m1471 59 c161 -39 306 -63 366 -60 20
2 37 -2 37 -6 0 -11 -162 -8 -228 3 -64 12 -361 98 -340 98 9 1 83 -15 165
-35z m2650 -36 c-112 -173 -265 -259 -702 -393 -240 -73 -366 -122 -470 -183
l-40 -23 30 26 c98 85 245 160 470 239 186 66 288 103 330 121 173 74 272 135
356 219 29 30 55 53 57 51 2 -2 -12 -27 -31 -57z m-3972 -93 c39 -40 125 -131
192 -203 160 -170 262 -246 388 -289 l40 -13 -40 6 c-169 25 -314 134 -535
404 -57 69 -106 127 -109 130 -3 3 -28 30 -56 60 l-50 54 50 -39 c28 -21 82
-71 120 -110z m1265 90 c195 -53 295 -73 357 -71 23 1 39 -2 36 -7 -8 -12
-156 -6 -226 10 -70 16 -368 111 -377 120 -3 3 4 3 15 0 11 -3 99 -27 195 -52z
m-1274 -10 c33 -25 133 -119 224 -209 217 -215 300 -277 435 -328 45 -16 46
-18 15 -14 -57 6 -92 18 -160 53 -88 44 -175 117 -300 253 -58 62 -144 153
-192 202 -47 48 -85 88 -83 88 1 0 29 -20 61 -45z m1078 15 c33 -10 88 -27
121 -39 143 -51 299 -87 372 -86 22 0 39 -4 36 -9 -9 -14 -182 1 -259 23 -75
22 -365 128 -374 138 -3 3 6 2 19 -2 12 -4 51 -15 85 -25z m-69 -30 c44 -16
137 -49 206 -74 123 -44 251 -74 297 -71 12 1 22 -2 22 -7 0 -22 -184 3 -290
40 -50 18 -298 120 -345 143 -33 15 19 1 110 -31z m-882 -24 c56 -43 89 -71
141 -120 94 -90 219 -198 277 -241 63 -46 181 -107 233 -119 15 -4 26 -9 24
-12 -9 -8 -156 35 -206 60 -85 43 -180 122 -352 292 -91 90 -174 170 -185 179
-40 32 20 -2 68 -39z m252 -134 c233 -196 376 -289 475 -308 16 -4 30 -10 30
-14 0 -14 -132 20 -197 51 -66 31 -189 120 -258 186 -58 55 -223 203 -270 241
-37 30 -34 29 27 -8 36 -23 123 -89 193 -148z m690 78 c101 -43 223 -88 260
-96 11 -3 49 -7 85 -11 42 -4 57 -9 45 -13 -20 -7 -67 -5 -138 5 -62 9 -175
50 -307 113 -69 33 -146 69 -172 80 -27 12 -48 23 -48 25 0 7 154 -51 275
-103z m1830 64 c-74 -66 -216 -124 -340 -139 -33 -4 -69 -9 -80 -11 -11 -2
-121 -6 -245 -9 -124 -3 -261 -10 -304 -15 -85 -11 -112 -7 -49 5 21 5 43 9
48 11 66 18 172 30 345 39 340 19 482 48 609 126 61 37 64 35 16 -7z m-2270 8
c-3 -3 -11 0 -18 7 -9 10 -8 11 6 5 10 -3 15 -9 12 -12z m161 -11 c38 -16 119
-52 179 -81 205 -97 281 -124 397 -140 58 -8 56 -9 -32 -5 -140 5 -172 17
-508 191 -133 69 -145 81 -36 35z m-452 -35 c44 -30 138 -99 208 -153 70 -54
158 -117 195 -139 72 -43 188 -90 238 -97 l30 -4 -32 -2 c-122 -5 -309 89
-494 251 -81 70 -191 161 -219 180 -14 9 -21 17 -16 17 5 1 45 -23 90 -53z
m76 10 c41 -24 143 -92 225 -150 83 -58 182 -121 221 -141 70 -35 198 -78 207
-68 3 2 8 0 11 -5 8 -13 -62 -6 -138 13 -92 24 -201 86 -357 206 -79 61 -171
128 -203 150 -79 53 -59 50 34 -5z m125 -15 c33 -19 110 -67 171 -106 155
-101 247 -149 334 -175 109 -33 122 -39 70 -35 -123 11 -231 57 -381 160 -52
36 -141 97 -199 136 -58 39 -107 73 -110 76 -11 10 58 -23 115 -56z m200 -55
c257 -147 368 -197 467 -209 53 -6 38 -15 -21 -11 -119 6 -240 59 -456 199
-60 39 -131 83 -157 98 -27 15 -48 30 -48 32 0 8 93 -39 215 -109z m50 38
c261 -134 301 -153 365 -174 36 -12 90 -24 120 -28 38 -4 48 -7 35 -12 -11 -4
-29 -6 -40 -5 -11 2 -42 6 -70 10 -81 11 -185 57 -376 166 -98 56 -179 104
-179 105 0 10 26 -1 145 -62z m3179 1 c-58 -103 -178 -206 -316 -270 -99 -46
-182 -72 -444 -144 -239 -65 -347 -102 -443 -151 -34 -16 -61 -28 -61 -26 0
10 116 84 186 120 93 47 175 78 379 141 403 124 546 193 667 319 29 31 54 56
55 56 1 0 -10 -20 -23 -45z m-1070 4 c-15 -25 -128 -98 -188 -123 -123 -49
-217 -58 -598 -60 -281 -1 -336 1 -295 10 85 19 135 24 292 29 357 12 420 16
510 35 90 18 216 69 260 103 24 19 29 21 19 6z m-89 -126 c-55 -49 -164 -99
-260 -120 -90 -19 -307 -23 -495 -9 -135 9 -356 9 -372 0 -6 -4 -8 -3 -5 3 15
24 184 37 482 36 250 -1 317 1 400 17 102 18 244 69 266 96 6 8 14 14 18 14 3
-1 -12 -17 -34 -37z m1128 0 c-17 -29 -67 -93 -99 -129 -28 -30 -123 -99 -172
-123 -119 -60 -247 -98 -627 -186 -165 -39 -293 -79 -380 -122 l-50 -24 30 26
c38 32 179 106 265 138 70 26 187 61 345 102 352 91 536 177 660 304 46 48 52
51 28 14z m-1163 -78 c0 -3 -27 -23 -59 -44 -55 -35 -185 -84 -256 -96 -37 -6
-290 -7 -325 -1 -14 3 -54 7 -90 10 -36 3 -87 8 -115 11 -95 12 -120 13 -234
14 -63 1 -112 3 -110 5 20 20 291 26 534 11 309 -18 471 1 603 70 53 27 52 27
52 20z m1116 -62 c-43 -84 -185 -206 -297 -256 -120 -54 -219 -80 -554 -146
-227 -45 -356 -77 -410 -101 -138 -61 -137 -50 3 27 115 63 238 102 523 169
278 64 390 98 505 154 81 39 217 138 228 166 3 8 8 14 11 14 3 0 -1 -12 -9
-27z m-1156 -17 c0 -7 -89 -65 -139 -91 -87 -44 -165 -58 -316 -59 -142 -1
-173 2 -350 28 -55 9 -123 18 -150 21 -28 3 -63 8 -80 10 -16 2 -72 4 -124 4
-52 1 -92 3 -90 5 23 23 347 24 492 1 76 -12 201 -19 327 -19 170 0 261 17
360 68 36 18 66 34 68 35 1 0 2 -1 2 -3z m-75 -105 c-45 -44 -194 -109 -289
-127 -110 -21 -281 -7 -561 45 -168 31 -226 39 -316 46 -30 2 -65 5 -79 6 -14
1 -2 5 25 9 54 6 233 4 294 -4 43 -7 240 -34 296 -42 238 -34 438 -18 570 46
67 32 73 34 60 21z m-1139 -75 c44 -3 154 -19 245 -35 90 -17 179 -33 196 -36
237 -41 431 -30 572 31 49 21 53 22 31 4 -52 -42 -149 -82 -245 -101 -49 -9
-220 -13 -260 -5 -11 2 -42 7 -68 10 -57 9 -37 5 -262 54 -247 55 -308 65
-392 66 -59 1 -58 13 2 18 44 3 63 3 181 -6z m4 -71 c41 -7 156 -32 255 -54
217 -48 242 -52 370 -56 115 -4 192 6 287 40 83 28 80 19 -6 -24 -137 -67
-284 -84 -471 -55 -49 8 -191 41 -315 73 -254 67 -342 85 -445 92 -26 2 -14 5
35 8 80 6 169 -1 290 -24z m-199 -35 c35 -6 150 -34 254 -61 105 -28 195 -52
200 -53 118 -27 148 -32 210 -41 132 -18 262 -9 360 25 75 26 79 25 30 -5 -46
-29 -150 -64 -215 -72 -162 -22 -310 3 -620 102 -213 68 -344 102 -417 107
-19 1 -36 5 -39 9 -6 10 163 2 237 -11z m-191 -35 c76 -8 187 -37 374 -97 315
-100 372 -111 546 -112 142 0 161 2 222 26 79 30 82 20 5 -15 -116 -53 -156
-62 -282 -62 -176 0 -236 13 -536 121 -268 95 -354 121 -429 130 -33 4 -63 10
-65 15 -5 7 61 5 165 -6z m-120 -40 c3 -2 26 -6 50 -10 25 -3 124 -33 220 -66
496 -171 546 -183 710 -182 93 0 160 11 235 38 11 4 7 -2 -10 -13 -100 -68
-299 -94 -462 -60 -122 24 -172 41 -433 146 -248 100 -322 125 -435 147 l-70
14 94 -5 c52 -3 97 -7 101 -9z m-277 -22 c-7 -2 -19 -2 -25 0 -7 3 -2 5 12 5
14 0 19 -2 13 -5z m108 -7 c95 -12 212 -50 464 -151 143 -57 305 -116 360
-130 164 -44 326 -44 470 -1 11 4 -4 -6 -34 -20 -82 -40 -146 -55 -257 -59
-165 -6 -302 34 -624 182 -205 95 -360 156 -422 167 -21 4 -40 11 -43 16 -3 5
5 7 17 5 13 -2 44 -6 69 -9z m-91 -37 c121 -27 203 -58 457 -175 218 -100 304
-133 426 -163 124 -30 273 -31 377 -1 60 17 43 3 -28 -23 -144 -53 -277 -60
-429 -22 -120 30 -207 68 -468 200 -224 114 -320 155 -435 187 l-65 18 60 -6
c33 -3 80 -10 105 -15z m-122 -31 c118 -28 222 -72 455 -192 266 -136 409
-193 542 -213 69 -11 218 -5 275 10 30 9 56 14 58 12 1 -1 -29 -14 -67 -28
-100 -37 -190 -51 -295 -44 -159 10 -306 70 -629 254 -178 101 -347 183 -432
207 -33 10 -64 20 -70 22 -24 10 88 -9 163 -28z m-185 -8 c152 -35 246 -77
507 -225 346 -197 496 -255 675 -259 74 -2 146 5 198 19 21 6 21 5 2 -6 -38
-24 -162 -51 -250 -54 -202 -8 -351 50 -720 280 -212 133 -358 210 -455 242
-83 27 -65 29 43 3z m-216 4 c-3 -3 -12 -4 -19 -1 -8 3 -5 6 6 6 11 1 17 -2
13 -5z m150 -39 c129 -43 236 -99 471 -247 390 -246 553 -301 809 -274 70 7
45 -7 -57 -31 -157 -37 -319 -13 -505 76 -103 49 -120 60 -440 276 -162 109
-253 161 -395 223 -56 24 14 10 117 -23z"/>
</g>
</svg>
