<svg width="24" height="24" viewBox="0 0 24 24" fill="none" xmlns="http://www.w3.org/2000/svg">
<path d="M0 12C0 5.37258 5.37258 0 12 0C18.6274 0 24 5.37258 24 12C24 18.6274 18.6274 24 12 24C5.37258 24 0 18.6274 0 12Z" fill="#B4B4BC"/>
<g clip-path="url(#clip0_98:18013)">
<path d="M11.9983 1.5L11.8574 1.97856V15.8641L11.9983 16.0046L18.4437 12.1947L11.9983 1.5Z" fill="#343434"/>
<path d="M11.9983 1.5L5.55273 12.1947L11.9983 16.0046V9.265V1.5Z" fill="#8C8C8C"/>
<path d="M11.9983 17.2254L11.9189 17.3223V22.2685L11.9983 22.5003L18.4477 13.4175L11.9983 17.2254Z" fill="#3C3C3B"/>
<path d="M11.9983 22.5003V17.2254L5.55273 13.4175L11.9983 22.5003Z" fill="#8C8C8C"/>
<path d="M11.999 16.0045L18.4444 12.1946L11.999 9.26489V16.0045Z" fill="#141414"/>
<path d="M5.55273 12.1946L11.9983 16.0045V9.26489L5.55273 12.1946Z" fill="#393939"/>
</g>
<defs>
<clipPath id="clip0_98:18013">
<rect x="1.5" y="1.5" width="21" height="21" fill="white"/>
</clipPath>
</defs>
</svg>
