<svg width="24" height="24" viewBox="0 0 24 24" fill="none" xmlns="http://www.w3.org/2000/svg">
<g clip-path="url(#clip0_98:24175)">
<path d="M13.2883 11.9862C13.2883 15.3989 10.5405 18.1655 7.15108 18.1655C3.76168 18.1655 1.01367 15.3989 1.01367 11.9862C1.01367 8.57342 3.76147 5.80664 7.15108 5.80664C10.5407 5.80664 13.2883 8.57342 13.2883 11.9862Z" fill="white"/>
<path d="M20.0183 11.9875C20.0183 15.1998 18.6444 17.805 16.9496 17.805C15.2548 17.805 13.8809 15.1998 13.8809 11.9875C13.8809 8.7751 15.2546 6.16992 16.9494 6.16992C18.6442 6.16992 20.0181 8.77427 20.0181 11.9875" fill="white"/>
<path d="M22.7716 11.9909C22.7716 14.8684 22.2885 17.2025 21.6923 17.2025C21.0962 17.2025 20.6133 14.869 20.6133 11.9909C20.6133 9.11278 21.0964 6.7793 21.6923 6.7793C22.2883 6.7793 22.7716 9.11257 22.7716 11.9909Z" fill="white"/>
</g>
<defs>
<clipPath id="clip0_98:24175">
<rect width="24" height="24" fill="white"/>
</clipPath>
</defs>
</svg>
