<?xml version="1.0" encoding="UTF-8"?>
<svg fill="none" viewBox="0 0 170 40" xmlns="http://www.w3.org/2000/svg">
<path d="m21.151 10.717c1.1831-0.11 1.9847 0.9654 2.9603 1.3002 1.0114 0.3469 2.5077 0.0777 3.2112 0.8137 0.7036 0.7359 0.3883 2.2409 0.6973 3.2753 0.2982 0.998 1.3337 1.8444 1.1861 3.0377-0.1478 1.1933-1.4194 2.2539-1.9743 3.3313-0.5755 1.1168-0.6298 2.5973-1.5339 3.4827-0.9041 0.8853-2.3679 0.8913-3.4898 1.4364-1.0821 0.5259-2.1717 1.7772-3.3548 1.8871-1.1831 0.11-1.9847-0.9656-2.9603-1.3002-1.0114-0.347-2.5078-0.0777-3.2113-0.8138-0.7034-0.7359-0.3882-2.2409-0.6973-3.2754-0.2981-0.998-1.3336-1.8442-1.186-3.0376 0.1478-1.1933 1.4194-2.2539 1.9743-3.3312 0.5755-1.1169 0.6298-2.5974 1.5339-3.4828 0.9041-0.8853 2.3679-0.8913 3.4897-1.4365 1.0822-0.5259 2.1717-1.7771 3.3549-1.8869z" stroke="url(#a)" stroke-miterlimit="10" stroke-width=".2"/>
<path d="m21.532 10.56c1.2033-0.065 1.9727 1.0661 2.9481 1.4472 1.0112 0.395 2.5382 0.1798 3.2218 0.96 0.6836 0.7803 0.3044 2.3055 0.5766 3.3751 0.2627 1.0318 1.2784 1.938 1.0814 3.1516-0.1971 1.2136-1.5276 2.2467-2.1327 3.3254-0.6273 1.1183-0.7411 2.6292-1.6924 3.4978s-2.4348 0.8161-3.5932 1.3284c-1.1175 0.4943-2.271 1.7292-3.4742 1.7943-1.2034 0.065-1.9728-1.0661-2.9482-1.4472-1.0112-0.395-2.5382-0.1797-3.2217-0.96-0.6836-0.7803-0.3045-2.3054-0.5767-3.375-0.2627-1.0318-1.2784-1.9381-1.0813-3.1517 0.197-1.2136 1.5275-2.2466 2.1326-3.3254 0.6274-1.1183 0.7411-2.6292 1.6924-3.4978 0.9514-0.8686 2.4349-0.8161 3.5933-1.3284 1.1174-0.4942 2.2709-1.7292 3.4742-1.7943z" stroke="url(#a)" stroke-miterlimit="10" stroke-width=".2"/>
<path d="m21.925 10.413c1.2218-0.0184 1.9568 1.1684 2.9301 1.5967 1.0088 0.4441 2.5647 0.2852 3.2265 1.1098 0.6619 0.8247 0.2171 2.3683 0.4506 3.4723 0.2251 1.065 1.2184 2.0318 0.9707 3.264-0.2477 1.2323-1.6368 2.2349-2.2928 3.3131-0.6802 1.1177-0.8553 2.6573-1.8536 3.507-0.9983 0.8495-2.4994 0.7365-3.6936 1.2138-1.1519 0.4604-2.3696 1.6764-3.5916 1.6947-1.2219 0.0185-1.9568-1.1682-2.9301-1.5965-1.0088-0.4442-2.5647-0.2853-3.2265-1.1099-0.6619-0.8247-0.2171-2.3682-0.4505-3.4722-0.2252-1.0651-1.2185-2.0318-0.9708-3.2641 0.2477-1.2322 1.6369-2.235 2.2929-3.3132 0.6801-1.1176 0.8552-2.6572 1.8535-3.5068 0.9984-0.8496 2.4994-0.7366 3.6936-1.2138 1.1519-0.4605 2.3698-1.6766 3.5916-1.6949z" stroke="url(#a)" stroke-miterlimit="10" stroke-width=".2"/>
<path d="m22.331 10.281c1.2389 0.0301 1.9365 1.2722 2.9056 1.7489 1.0048 0.4943 2.5875 0.394 3.2254 1.2632s0.1261 2.4289 0.3191 3.5664c0.186 1.0973 1.1542 2.1249 0.8543 3.3745-0.2999 1.2495-1.7472 2.2185-2.4547 3.2942-0.7335 1.1151-0.9719 2.6814-2.0172 3.5097-1.0454 0.8284-2.562 0.6528-3.7909 1.0928-1.1854 0.4245-2.4676 1.6185-3.7066 1.5884-1.2389-0.0301-1.9364-1.2722-2.9057-1.7488-1.0046-0.4942-2.5874-0.3939-3.2253-1.2633-0.6379-0.8691-0.1262-2.4288-0.3191-3.5664-0.186-1.0972-1.1542-2.1249-0.8542-3.3744 0.2999-1.2494 1.7471-2.2186 2.4546-3.2941 0.7334-1.1152 0.9719-2.6815 2.0173-3.5098 1.0453-0.8283 2.5619-0.6529 3.7907-1.0929 1.1855-0.4245 2.4678-1.6185 3.7067-1.5884z" stroke="url(#a)" stroke-miterlimit="10" stroke-width=".2"/>
<path d="m22.75 10.162c1.2543 0.0803 1.9118 1.3775 2.8751 1.9034 0.9984 0.5451 2.6063 0.5061 3.2183 1.4199 0.6119 0.9138 0.0315 2.4871 0.1817 3.6574 0.1449 1.1288 1.0853 2.2176 0.7319 3.4826s-1.8585 2.1973-2.6179 3.2684c-0.7875 1.1103-1.091 2.7013-2.1832 3.506-1.092 0.8046-2.6219 0.5648-3.8845 0.9653-1.218 0.3864-2.5647 1.5553-3.8189 1.475-1.2543-0.0804-1.9118-1.3776-2.875-1.9035-0.9984-0.5451-2.6063-0.506-3.2182-1.4198-0.612-0.9139-0.0317-2.4872-0.1818-3.6574-0.145-1.1289-1.0854-2.2177-0.7319-3.4827 0.3534-1.2649 1.8584-2.1972 2.6179-3.2683 0.7874-1.1102 1.0909-2.7014 2.1831-3.506 1.092-0.8047 2.6219-0.5649 3.8846-0.9654 1.2181-0.3862 2.5646-1.555 3.8188-1.4749z" stroke="url(#a)" stroke-miterlimit="10" stroke-width=".2"/>
<path d="m23.174 10.055c1.2677 0.1321 1.8827 1.4841 2.8379 2.0601 0.9901 0.597 2.6209 0.6213 3.2049 1.5796 0.5838 0.9584-0.0667 2.5431 0.0392 3.7449 0.1021 1.1594 1.0119 2.3099 0.6037 3.5884-0.4082 1.2784-1.9702 2.1711-2.7824 3.2352-0.8419 1.1031-1.2128 2.7169-2.3513 3.4956s-2.6792 0.4724-3.9745 0.8311c-1.2496 0.3461-2.6604 1.4867-3.9282 1.3546-1.2676-0.1321-1.8828-1.4841-2.8378-2.06-0.9901-0.5971-2.6209-0.6213-3.2049-1.5797-0.5838-0.9583 0.0667-2.5429-0.0392-3.7448-0.1021-1.1594-1.0118-2.3099-0.6036-3.5884 0.4081-1.2785 1.9702-2.1712 2.7823-3.2353 0.8419-1.1031 1.2128-2.7168 2.3513-3.4956 1.1385-0.7786 2.6792-0.4724 3.9745-0.831 1.2496-0.3461 2.6605-1.4869 3.9281-1.3547z" stroke="url(#a)" stroke-miterlimit="10" stroke-width=".2"/>
<path d="m23.612 9.9634c1.2794 0.18571 1.849 1.5919 2.794 2.2187 0.9798 0.6497 2.6312 0.7398 3.1849 1.7424 0.5537 1.0027-0.1684 2.5961-0.1088 3.8286 0.0576 1.189 0.9337 2.401 0.4695 3.6911-0.4644 1.2902-2.0825 2.1401-2.9477 3.195-0.8968 1.0936-1.3365 2.7281-2.521 3.4784s-2.7335 0.3756-4.0603 0.6904c-1.2799 0.3038-2.7547 1.413-4.0341 1.2274-1.2793-0.1857-1.8488-1.5919-2.7939-2.2187-0.9797-0.6498-2.6311-0.7398-3.1848-1.7425-0.55367-1.0027 0.1682-2.5961 0.1086-3.8286-0.0574-1.1889-0.9336-2.4009-0.4693-3.6911 0.4644-1.2902 2.0824-2.1401 2.9476-3.195 0.8968-1.0935 1.3365-2.728 2.521-3.4783 1.1844-0.7504 2.7336-0.3757 4.0603-0.6906 1.2799-0.3036 2.7547-1.4128 4.034-1.2272z" stroke="url(#a)" stroke-miterlimit="10" stroke-width=".2"/>
<path d="m24.058 9.8882c1.289 0.24096 1.8103 1.7008 2.7431 2.3791 0.9669 0.703 2.6369 0.8611 3.1582 1.908 0.5213 1.0468-0.2735 2.6463-0.2619 3.9082 0.0111 1.2172 0.8508 2.4909 0.3292 3.7907-0.5216 1.2999-2.1949 2.1038-3.1135 3.1473-0.9521 1.0817-1.4624 2.7345-2.6925 3.4538-1.23 0.7193-2.7848 0.2747-4.1418 0.5433-1.309 0.2593-2.8474 1.334-4.1364 1.093-1.2888-0.241-1.8104-1.7008-2.7431-2.3791-0.9669-0.703-2.6369-0.8611-3.1582-1.9079-0.52133-1.0468 0.2735-2.6463 0.2619-3.9083-0.011-1.2172-0.85086-2.4908-0.32924-3.7907 0.52164-1.2999 2.195-2.1037 3.1135-3.1473 0.9521-1.0817 1.4624-2.7344 2.6925-3.4538 1.23-0.7193 2.7848-0.2746 4.1418-0.5432 1.3088-0.2592 2.8473-1.334 4.1364-1.0931z" stroke="url(#a)" stroke-miterlimit="10" stroke-width=".2"/>
<path d="m24.514 9.8284c1.2965 0.29777 1.7669 1.8106 2.6853 2.5411 0.9519 0.7571 2.6379 0.9854 3.1246 2.0762 0.4866 1.0905-0.382 2.6935-0.4204 3.9834-0.037 1.2444 0.7636 2.5794 0.1833 3.8872-0.5801 1.3076-2.3075 2.0622-3.2795 3.0918-1.0076 1.0676-1.5903 2.736-2.8652 3.422s-2.8328 0.1693-4.2184 0.3897c-1.3367 0.2125-2.9382 1.2494-4.2348 0.9516-1.2965-0.2977-1.767-1.8105-2.6854-2.541-0.9519-0.7571-2.6378-0.9854-3.1245-2.0762-0.48667-1.0905 0.38188-2.6933 0.42028-3.9834 0.037-1.2444-0.76356-2.5795-0.18333-3.8872 0.58013-1.3076 2.3076-2.0622 3.2796-3.0918 1.0075-1.0676 1.5902-2.7361 2.8651-3.422 1.275-0.686 2.8328-0.1693 4.2184-0.3897 1.3368-0.2126 2.9384-1.2494 4.2349-0.95167z" stroke="url(#a)" stroke-miterlimit="10" stroke-width=".2"/>
<path d="m24.977 9.7856c1.302 0.35612 1.7188 1.9207 2.6203 2.7041 0.9345 0.8119 2.6339 1.1124 3.0837 2.2464 0.45 1.134-0.4938 2.7374-0.5838 4.054-0.0867 1.2703 0.6714 2.6668 0.0317 3.98-0.6398 1.3131-2.4202 2.015-3.4458 3.0284-1.0633 1.0505-1.7199 2.7325-3.0389 3.3825-1.3191 0.65-2.8772 0.0598-4.29 0.2295-1.3629 0.1638-3.0269 1.1595-4.3289 0.8032-1.302-0.3561-1.7188-1.9208-2.6203-2.7041-0.9345-0.8119-2.6339-1.1126-3.0837-2.2465-0.44999-1.134 0.49374-2.7373 0.58384-4.0541 0.08676-1.2702-0.67144-2.6667-0.03171-3.9798 0.63969-1.3131 2.4202-2.0151 3.4458-3.0285 1.0633-1.0505 1.7199-2.7325 3.039-3.3825 1.319-0.65 2.8771-0.0598 4.29-0.2296 1.3629-0.1637 3.0268-1.1593 4.3288-0.80302z" stroke="url(#a)" stroke-miterlimit="10" stroke-width=".2"/>
<path d="m25.447 9.7612c1.3052 0.416 1.6653 2.0316 2.5479 2.8681 0.9149 0.867 2.6248 1.2423 3.0358 2.4192 0.4111 1.1769-0.6089 2.7776-0.7523 4.1196-0.1382 1.2946 0.5747 2.752-0.1255 4.0683-0.7003 1.3163-2.5322 1.9627-3.6118 2.9572-1.1191 1.0311-1.851 2.7236-3.2134 3.3353-1.3624 0.6116-2.9177-0.054-4.356 0.0631-1.3875 0.1128-3.1131 1.0637-4.4183 0.6477s-1.6654-2.0316-2.548-2.8682c-0.9149-0.867-2.6248-1.2422-3.0358-2.4192-0.41104-1.1768 0.60894-2.7775 0.75228-4.1196 0.13828-1.2946-0.57465-2.752 0.12562-4.0683 0.70021-1.3163 2.5321-1.9626 3.6117-2.9572 1.1191-1.0311 1.851-2.7236 3.2134-3.3352 1.3624-0.61166 2.9178 0.054 4.3561-0.0631 1.3875-0.1128 3.1131-1.0636 4.4183-0.6477z" stroke="url(#a)" stroke-miterlimit="10" stroke-width=".2"/>
<path d="m25.926 9.7535c1.306 0.47742 1.6071 2.1427 2.4682 3.0329 0.8926 0.9227 2.6105 1.3745 2.9803 2.5936 0.3698 1.219-0.7272 2.814-0.9255 4.1798-0.1914 1.3176 0.4732 2.8353-0.2885 4.1526-0.7617 1.3172-2.6437 1.9044-3.7769 2.8778-1.175 1.0089-1.9837 2.7093-3.3885 3.2799-1.4048 0.5704-2.9545-0.1719-4.4166-0.1098-1.4105 0.0599-3.1965 0.9626-4.5027 0.4854-1.306-0.4775-1.6071-2.1428-2.4682-3.033-0.8926-0.9226-2.6105-1.3745-2.9803-2.5935-0.3698-1.2191 0.72721-2.814 0.92555-4.1798 0.19143-1.3176-0.47328-2.8353 0.28848-4.1527 0.76171-1.3171 2.6437-1.9044 3.7769-2.8777 1.1749-1.0089 1.9838-2.7093 3.3885-3.2799 1.4048-0.57047 2.9545 0.1718 4.4166 0.1097 1.4105-0.06 3.1967-0.96269 4.5027-0.48532z" stroke="url(#a)" stroke-miterlimit="10" stroke-width=".2"/>
<path d="m26.408 9.7655c1.3046 0.54002 1.5436 2.2541 2.3808 3.1982 0.8679 0.9785 2.5907 1.509 2.917 2.7695 0.3265 1.2607-0.8482 2.8468-1.1035 4.2347-0.2463 1.3388 0.3671 2.9164-0.4569 4.2321-0.8241 1.3157-2.7543 1.8404-3.9414 2.7898-1.2305 0.9841-2.1176 2.6895-3.5635 3.2163-1.446 0.5269-2.987-0.2937-4.4709-0.2887-1.4317 0.0048-3.2774 0.8559-4.5819 0.3159s-1.5435-2.2541-2.3807-3.1982c-0.8679-0.9786-2.5906-1.509-2.9171-2.7695-0.32644-1.2607 0.84832-2.8468 1.1036-4.2347 0.24626-1.3388-0.3671-2.9165 0.45702-4.2321 0.82399-1.3157 2.7543-1.8405 3.9412-2.7898 1.2306-0.9842 2.1177-2.6895 3.5636-3.2164 1.446-0.52691 2.987 0.29368 4.4709 0.28878 1.4316-0.0049 3.2774-0.85593 4.5818-0.31592z" stroke="url(#a)" stroke-miterlimit="10" stroke-width=".2"/>
<path d="m26.902 9.7976c1.3005 0.60412 1.4747 2.3652 2.2857 3.3633 0.8406 1.0349 2.5654 1.6456 2.846 2.9471 0.2808 1.3013-0.9724 2.8753-1.2861 4.2833-0.3027 1.3584 0.2563 2.9951-0.631 4.3067-0.8871 1.3116-2.8638 1.7707-4.1044 2.6934-1.2859 0.9565-2.2522 2.6638-3.7385 3.1445-1.4861 0.4806-3.015-0.4197-4.5189-0.4738-1.4509-0.0524-3.3549 0.7437-4.6552 0.1396-1.3005-0.604-1.4747-2.3652-2.2857-3.3634-0.84063-1.0347-2.5654-1.6455-2.846-2.947-0.28078-1.3013 0.97246-2.8752 1.2862-4.2832 0.30263-1.3585-0.25638-2.9952 0.63092-4.3068 0.88711-1.3116 2.8638-1.7707 4.1044-2.6933 1.2859-0.9565 2.2522-2.664 3.7384-3.1446 1.4862-0.48066 3.0151 0.41958 4.519 0.47386 1.4508 0.05229 3.3547-0.74366 4.6552-0.13971z" stroke="url(#a)" stroke-miterlimit="10" stroke-width=".2"/>
<path d="m27.394 9.8503c1.2939 0.66926 1.4007 2.476 2.1828 3.5286 0.8109 1.091 2.5342 1.7842 2.7671 3.1253 0.2329 1.3412-1.0994 2.8996-1.473 4.326-0.3604 1.3761 0.141 3.0711-0.81 4.3759-0.951 1.3049-2.9721 1.6951-4.2657 2.5884-1.3411 0.926-2.3878 2.6321-3.9129 3.064-1.5249 0.4317-3.0385-0.5493-4.5604-0.6648-1.4679-0.1115-3.4289 0.6259-4.7226-0.0434-1.2939-0.6693-1.4007-2.4761-2.1828-3.5285-0.81084-1.0911-2.5343-1.7843-2.7671-3.1255-0.23285-1.3411 1.0994-2.8995 1.4731-4.326 0.36039-1.376-0.1411-3.0709 0.80997-4.3759 0.95108-1.3048 2.9721-1.695 4.2657-2.5883 1.3411-0.926 2.3878-2.6321 3.9129-3.064 1.5249-0.43173 3.0385 0.54931 4.5604 0.66483 1.4679 0.11143 3.4287-0.62589 4.7226 0.04343z" stroke="url(#a)" stroke-miterlimit="10" stroke-width=".2"/>
<path d="m27.897 9.9229c1.2846 0.73559 1.3211 2.5864 2.0719 3.6932 0.7785 1.1474 2.4973 1.9248 2.6801 3.3046 0.183 1.3798-1.2289 2.9193-1.6641 4.3619-0.4197 1.3918 0.0212 3.1441-0.9941 4.4395-1.0154 1.2956-3.079 1.6136-4.4251 2.4747-1.3955 0.8929-2.5239 2.5945-4.0863 2.9748-1.5625 0.3802-3.0572-0.6829-4.5947-0.8618-1.483-0.1726-3.4993 0.5025-4.7839-0.2331-1.2845-0.7356-1.321-2.5864-2.0719-3.6932-0.77841-1.1474-2.4972-1.9249-2.6801-3.3046-0.18291-1.3798 1.229-2.9192 1.6641-4.362 0.41974-1.3917-0.02112-3.144 0.99416-4.4395 1.0153-1.2954 3.079-1.6134 4.4252-2.4747 1.3954-0.8927 2.5238-2.5944 4.0861-2.9747 1.5625-0.38022 3.0573 0.68283 4.5947 0.86173 1.4831 0.17266 3.4993-0.50248 4.7839 0.23314z" stroke="url(#a)" stroke-miterlimit="10" stroke-width=".2"/>
<path d="m28.401 10.018c1.2725 0.803 1.2361 2.6959 1.9531 3.8571 0.7431 1.2037 2.4541 2.0667 2.5846 3.4842 0.1305 1.4174-1.3611 2.934-1.8592 4.391-0.4805 1.4055-0.1032 3.2139-1.1834 4.4972s-3.1839 1.5257-4.5821 2.3521c-1.4494 0.8566-2.6604 2.5504-4.2586 2.8766-1.5983 0.3262-3.0708-0.82-4.6216-1.0642-1.4961-0.2358-3.5658 0.3736-4.8383-0.4295s-1.2361-2.696-1.9531-3.8571c-0.74319-1.2038-2.4541-2.0668-2.5847-3.4843-0.13055-1.4174 1.3611-2.934 1.8592-4.3909 0.48052-1.4056 0.10316-3.214 1.1835-4.4973 1.0801-1.2833 3.1838-1.5257 4.582-2.3521 1.4495-0.8566 2.6605-2.5504 4.2587-2.8767 1.5982-0.32615 3.0708 0.82008 4.6216 1.0643 1.496 0.23562 3.5658-0.37362 4.8383 0.42956z" stroke="url(#a)" stroke-miterlimit="10" stroke-width=".2"/>
<path d="m28.912 10.134c1.2575 0.8716 1.1457 2.8045 1.8261 4.0197 0.7055 1.2599 2.405 2.2103 2.481 3.664 0.0762 1.4538-1.4955 2.9441-2.058 4.4131-0.5427 1.4171-0.232 3.2803-1.3775 4.5485-1.1456 1.2683-3.2868 1.4319-4.7363 2.2204-1.5027 0.8174-2.7969 2.5-4.4293 2.7694s-3.0792-0.9607-4.6408-1.2725c-1.5067-0.3006-3.6282 0.2393-4.8857-0.6323-1.2576-0.8716-1.1456-2.8046-1.8262-4.0198-0.70537-1.2598-2.4049-2.2103-2.4809-3.664-0.07618-1.4536 1.4955-2.944 2.058-4.4129 0.54259-1.4172 0.23199-3.2804 1.3775-4.5486 1.1454-1.2682 3.2866-1.4318 4.7361-2.2204 1.5026-0.8174 2.7968-2.5001 4.4293-2.7696 1.6325-0.26936 3.0791 0.96076 4.6408 1.2725 1.5068 0.3008 3.6283-0.23925 4.8859 0.63248z" stroke="url(#a)" stroke-miterlimit="10" stroke-width=".2"/>
<path d="m29.421 10.274c1.2397 0.9411 1.0498 2.9118 1.6911 4.181 0.6649 1.3156 2.3493 2.3549 2.3688 3.8436 0.0196 1.4887-1.632 2.9488-2.2603 4.4276-0.6061 1.4266-0.3651 3.343-1.5762 4.5932-1.2109 1.2503-3.3871 1.3318-4.8872 2.0797-1.555 0.7753-2.9332 2.4431-4.598 2.6531-1.6649 0.21-3.082-1.1049-4.6523-1.4859-1.5148-0.3675-3.6858 0.0995-4.9256-0.8415-1.2397-0.941-1.0498-2.9118-1.6911-4.181-0.66486-1.3156-2.3492-2.3549-2.3688-3.8436-0.01955-1.4886 1.632-2.9487 2.2604-4.4275 0.60608-1.4266 0.36511-3.3429 1.5761-4.5932 1.211-1.2502 3.3872-1.3318 4.8872-2.0797 1.555-0.77538 2.9332-2.4432 4.5981-2.6532 1.6648-0.21002 3.082 1.105 4.6522 1.4859 1.5147 0.3674 3.686-0.09959 4.9256 0.84146z" stroke="url(#a)" stroke-miterlimit="10" stroke-width=".2"/>
<path d="m29.93 10.438c1.2188 1.0113 0.9481 3.0177 1.5479 4.3402 0.6216 1.3711 2.2871 2.5005 2.2478 4.0225s-1.7708 2.9482-2.466 4.4344c-0.6707 1.4336-0.5025 3.4018-1.7791 4.6311-1.2766 1.2292-3.4851 1.2257-5.0348 1.93-1.6065 0.7302-3.069 2.3794-4.7644 2.5276-1.6953 0.1481-3.0792-1.2524-4.6553-1.7045-1.5202-0.4362-3.7388-0.0457-4.9577-1.057-1.2188-1.0112-0.94817-3.0176-1.5478-4.3401-0.62162-1.3712-2.2872-2.5005-2.2478-4.0226 0.03923-1.522 1.7707-2.9481 2.4659-4.4344 0.67071-1.4335 0.50249-3.4017 1.7792-4.631 1.2765-1.2293 3.485-1.2257 5.0347-1.93 1.6065-0.73025 3.0691-2.3794 4.7644-2.5276 1.6954-0.14809 3.0791 1.2524 4.6552 1.7045 1.5204 0.43613 3.7389 0.04566 4.9578 1.0569z" stroke="url(#a)" stroke-miterlimit="10" stroke-width=".2"/>
<path d="m30.442 10.625c1.195 1.0821 0.8411 3.1218 1.3963 4.4973 0.5755 1.426 2.2184 2.6467 2.1183 4.2007-0.1002 1.5538-1.9111 2.942-2.6746 4.4329-0.7363 1.4383-0.644 3.4563-1.9864 4.6615-1.3424 1.2051-3.5799 1.1132-5.1783 1.7711-1.6568 0.6819-3.2042 2.3089-4.9279 2.3925-1.7238 0.0836-3.0706-1.4031-4.6495-1.928-1.5233-0.5065-3.7869-0.1961-4.9819-1.2783-1.195-1.0822-0.84117-3.1218-1.3963-4.4973-0.57554-1.426-2.2184-2.6468-2.1183-4.2008 0.10016-1.5538 1.9111-2.942 2.6745-4.4329 0.73634-1.4383 0.64402-3.4562 1.9864-4.6614 1.3423-1.2051 3.5799-1.1133 5.1782-1.7711 1.6569-0.682 3.2042-2.3089 4.928-2.3925 1.7238-0.08361 3.0706 1.403 4.6496 1.9279 1.5232 0.50637 3.7867 0.19618 4.9818 1.2784z" stroke="url(#a)" stroke-miterlimit="10" stroke-width=".2"/>
<path d="m30.951 10.836c1.168 1.1536 0.7288 3.2238 1.2367 4.6518 0.5265 1.4803 2.1429 2.7936 1.98 4.3776-0.1631 1.5839-2.0533 2.9302-2.8858 4.4234-0.8033 1.4404-0.7897 3.5063-2.1977 4.6842-1.408 1.178-3.6718 0.9946-5.3172 1.6029-1.7058 0.6306-3.3384 2.2314-5.0884 2.2479-1.7501 0.0166-3.0558-1.5565-4.635-2.1562-1.5235-0.5783-3.8294-0.3518-4.9974-1.5055-1.1681-1.1536-0.72877-3.2238-1.2367-4.6518-0.5266-1.4802-2.1429-2.7935-1.98-4.3774 0.16308-1.584 2.0532-2.9303 2.8858-4.4234 0.80325-1.4405 0.78954-3.5064 2.1976-4.6843 1.4081-1.178 3.6718-0.9946 5.3172-1.6029 1.7058-0.63061 3.3384-2.2314 5.0885-2.248 1.75-0.01655 3.0557 1.5566 4.635 2.1562 1.5233 0.57843 3.8293 0.35186 4.9974 1.5054z" stroke="url(#a)" stroke-miterlimit="10" stroke-width=".2"/>
<path d="m31.46 11.073c1.1379 1.2257 0.6107 3.3237 1.0688 4.8033 0.475 1.5339 2.0608 2.9405 1.8328 4.5527s-2.1966 2.9124-3.0996 4.405c-0.871 1.4398-0.939 3.5517-2.4124 4.6992s-3.76 0.8696-5.4516 1.4255c-1.7537 0.5762-3.4713 2.1469-5.2453 2.0938-1.774-0.053-3.0347-1.7128-4.6111-2.3888-1.5208-0.652-3.8663-0.5125-5.0043-1.7382-1.1378-1.2258-0.61064-3.3238-1.0688-4.8034-0.47495-1.5339-2.0608-2.9404-1.8328-4.5527 0.22799-1.6122 2.1966-2.9123 3.0996-4.405 0.87099-1.4399 0.93909-3.5517 2.4125-4.6992 1.4734-1.1475 3.76-0.86955 5.4517-1.4254 1.7535-0.57625 3.4711-2.1469 5.2451-2.0939s3.0349 1.7129 4.6113 2.3888c1.5206 0.65204 3.8663 0.5128 5.0041 1.7383z" stroke="url(#a)" stroke-miterlimit="10" stroke-width=".2"/>
<path d="m31.968 11.337c1.1045 1.298 0.487 3.421 0.8926 4.9515 0.4205 1.5864 1.9716 3.0873 1.6767 4.7257s-2.3413 2.8885-3.3153 4.3778c-0.9398 1.4365-1.0924 3.5919-2.631 4.7057-1.5386 1.1139-3.8444 0.7384-5.5806 1.2388-1.7997 0.5188-3.6024 2.0552-5.3979 1.9301-1.7953-0.1251-3.0072-1.8717-4.5778-2.6255-1.5151-0.727-3.8973-0.6785-5.0018-1.9766-1.1044-1.298-0.48694-3.4209-0.89256-4.9514-0.42045-1.5865-1.9716-3.0872-1.6767-4.7257s2.3412-2.8886 3.3154-4.3778c0.93959-1.4366 1.0923-3.5919 2.6309-4.7057 1.5386-1.1139 3.8444-0.73834 5.5806-1.2388 1.7997-0.51876 3.6025-2.0552 5.3979-1.9301 1.7954 0.12512 3.0073 1.8717 4.5777 2.6254 1.5151 0.72718 3.8975 0.67848 5.0018 1.9766z" stroke="url(#a)" stroke-miterlimit="10" stroke-width=".2"/>
<path d="m32.469 11.624c1.0676 1.3707 0.3578 3.5157 0.7081 5.0958 0.363 1.638 1.8754 3.2339 1.5116 4.8964-0.3638 1.6626-2.4869 2.8583-3.533 4.3413-1.0091 1.4305-1.2493 3.6271-2.8524 4.7038-1.6033 1.0767-3.925 0.6007-5.7041 1.0429-1.8442 0.4582-3.7319 1.9563-5.5462 1.7566-1.8144-0.1998-2.9731-2.0331-4.5348-2.8662-1.5064-0.8036-3.9223-0.8491-4.9899-2.2198-1.0676-1.3707-0.35783-3.5156-0.70808-5.0957-0.36311-1.638-1.8754-3.2339-1.5116-4.8965 0.36382-1.6626 2.4869-2.8583 3.533-4.3412 1.0091-1.4306 1.2492-3.6272 2.8524-4.7038 1.6033-1.0767 3.925-0.60079 5.704-1.0429 1.8442-0.45827 3.7319-1.9563 5.5463-1.7566 1.8144 0.19974 2.9731 2.0331 4.5347 2.8661 1.5064 0.80368 3.9224 0.84918 4.99 2.2198z" stroke="url(#a)" stroke-miterlimit="10" stroke-width=".2"/>
<path d="m32.966 11.94c1.0275 1.4434 0.2232 3.6068 0.5156 5.2358 0.3029 1.6885 1.7722 3.3797 1.3376 5.0643-0.4346 1.6845-2.6332 2.8214-3.7521 4.2951-1.0791 1.4216-1.4096 3.6567-3.0769 4.693-1.6671 1.0362-4.0009 0.457-5.8212 0.8377-1.8869 0.3946-3.8591 1.8501-5.6896 1.5734-1.8306-0.2767-2.9319-2.1965-4.4813-3.1103-1.4946-0.8815-3.9409-1.0246-4.9684-2.4681-1.0275-1.4434-0.22328-3.6068-0.51562-5.2358-0.30303-1.6885-1.7723-3.3797-1.3377-5.0643 0.43458-1.6844 2.6333-2.8214 3.7522-4.2951 1.0792-1.4216 1.4096-3.6567 3.0769-4.6929 1.667-1.0362 4.0009-0.45712 5.8211-0.83777 1.887-0.39463 3.8592-1.85 5.6897-1.5734 1.8306 0.27664 2.9319 2.1964 4.4813 3.1102 1.4947 0.88153 3.941 1.0246 4.9685 2.4681z" stroke="url(#a)" stroke-miterlimit="10" stroke-width=".2"/>
<path d="m33.46 12.28c0.984 1.5162 0.0832 3.6952 0.3149 5.3714 0.2401 1.7376 1.6619 3.5249 1.1547 5.2289-0.5071 1.7041-2.7803 2.7782-3.9723 4.2394-1.1499 1.4097-1.5734 3.6805-3.3037 4.673-1.7305 0.9923-4.0723 0.3071-5.9319 0.6233-1.9277 0.3277-3.9838 1.7363-5.8278 1.3805-1.8439-0.3558-2.8838-2.3619-4.4177-3.3576-1.4797-0.9607-3.9527-1.2048-4.9366-2.7208-0.98401-1.5162-0.08319-3.6951-0.31488-5.3713-0.24012-1.7376-1.6618-3.5249-1.1546-5.229 0.50706-1.7041 2.7803-2.7781 3.9723-4.2394 1.1499-1.4095 1.5734-3.6805 3.3037-4.6729 1.7305-0.99229 4.0723-0.30717 5.9318-0.62333 1.9278-0.32773 3.9838-1.7363 5.8279-1.3805 1.8439 0.35583 2.8838 2.362 4.4177 3.3576 1.4794 0.96063 3.9526 1.2047 4.9365 2.7207z" stroke="url(#a)" stroke-miterlimit="10" stroke-width=".2"/>
<path d="m33.946 12.65c0.9369 1.5887-0.0622 3.7793 0.1062 5.5017 0.1744 1.7854 1.544 3.6686 0.9627 5.3897-0.5814 1.7212-2.9274 2.7279-4.1931 4.1736-1.2212 1.3947-1.7402 3.6984-3.5331 4.6433-1.7928 0.9449-4.1386 0.1511-6.0354 0.3999-1.9664 0.258-4.1056 1.6152-5.96 1.1778-1.8544-0.4375-2.8287-2.5291-4.3434-3.6079-1.4613-1.0408-3.9576-1.3891-4.8945-2.9779-0.93693-1.5888 0.06221-3.7794-0.10615-5.5018-0.17449-1.7853-1.5441-3.6684-0.96275-5.3897 0.58139-1.7212 2.9274-2.7279 4.1931-4.1736 1.2211-1.3946 1.7402-3.6983 3.533-4.6432s4.1387-0.15109 6.0355-0.39991c1.9662-0.25795 4.1055-1.6152 5.96-1.1778 1.8542 0.43743 2.8286 2.529 4.3434 3.6079 1.4612 1.0409 3.9575 1.3892 4.8945 2.9779z" stroke="url(#a)" stroke-miterlimit="10" stroke-width=".2"/>
<path d="m34.423 13.046c0.8864 1.6611-0.2129 3.8599-0.1106 5.6266 0.106 1.8315 1.4193 3.8109 0.7619 5.5466-0.6575 1.7357-3.0744 2.6706-4.4144 4.0975-1.2927 1.3764-1.91 3.7099-3.764 4.6039s-4.1997-0.011-6.1316 0.1673c-2.0027 0.185-4.2243 1.4866-6.086 0.9654-1.8618-0.5212-2.766-2.6976-4.2581-3.8607-1.4394-1.1221-3.9552-1.5778-4.8416-3.2389-0.88643-1.6609 0.21286-3.8598 0.11057-5.6265-0.10601-1.8315-1.4193-3.8108-0.76188-5.5465 0.65744-1.7358 3.0744-2.6707 4.4144-4.0976 1.2926-1.3763 1.91-3.7099 3.764-4.6039 1.8541-0.89398 4.1997 0.01099 6.1317-0.16735 2.0027-0.18491 4.2242-1.4865 6.0859-0.96533 1.8618 0.52118 2.766 2.6975 4.2581 3.8607 1.4392 1.122 3.9551 1.5778 4.8416 3.2387z" stroke="url(#a)" stroke-miterlimit="10" stroke-width=".2"/>
<path d="m34.89 13.47c0.8323 1.7329-0.3687 3.9359-0.3352 5.7456 0.0348 1.876 1.2872 3.951 0.5521 5.6985-0.7348 1.7475-3.2212 2.6064-4.6355 4.011-1.3644 1.3549-2.0825 3.7151-3.9967 4.5544-1.9142 0.8395-4.2552-0.1792-6.2198-0.074-2.0366 0.1089-4.3394 1.3501-6.2052 0.7431-1.8659-0.6069-2.6958-2.8672-4.1618-4.1156-1.414-1.2043-3.9452-1.7706-4.7775-3.5035s0.36867-3.9359 0.33515-5.7455c-0.03482-1.876-1.2872-3.9511-0.55215-5.6987 0.73491-1.7474 3.2213-2.6065 4.6356-4.011 1.3644-1.3547 2.0825-3.715 3.9967-4.5543 1.9143-0.83949 4.2552 0.17919 6.2198 0.07404 2.0367-0.10901 4.3394-1.3501 6.2052-0.74318 1.866 0.60693 2.6959 2.8673 4.1619 4.1157 1.414 1.2043 3.9451 1.7706 4.7775 3.5035z" stroke="url(#a)" stroke-miterlimit="10" stroke-width=".2"/>
<path d="m35.347 13.922c0.7748 1.8042-0.5296 4.0075-0.5672 5.8582-0.0392 1.9186 1.1476 4.0894 0.3337 5.8458-0.814 1.7564-3.3673 2.5348-4.8563 3.9135-1.4363 1.33-2.2573 3.7131-4.2304 4.4945-1.9728 0.7814-4.3047-0.3532-6.2997-0.3243-2.068 0.0299-4.4507 1.2063-6.3172 0.5113-1.8666-0.6949-2.618-3.0379-4.0539-4.3724-1.3851-1.2871-3.9275-1.9671-4.7022-3.7712-0.77471-1.8042 0.5296-4.0075 0.56726-5.8583 0.0391-1.9185-1.1476-4.0892-0.33371-5.8457 0.81395-1.7564 3.3674-2.5349 4.8563-3.9135 1.4363-1.33 2.2574-3.7132 4.2304-4.4946 1.9728-0.78128 4.3047 0.35325 6.2997 0.32443 2.0681-0.02996 4.4506-1.2063 6.3172-0.51134 1.8666 0.69482 2.6181 3.0379 4.0539 4.3723 1.3851 1.2871 3.9275 1.9671 4.7022 3.7713z" stroke="url(#a)" stroke-miterlimit="10" stroke-width=".2"/>
<path d="m35.791 14.402c0.7135 1.8746-0.6955 4.0743-0.807 5.964-0.1157 1.9589 1.0008 4.2247 0.1063 5.9872-0.8944 1.7624-3.5126 2.4558-5.076 3.8051-1.5081 1.3019-2.4348 3.7046-4.4648 4.424-2.0301 0.7198-4.348-0.5329-6.3707-0.5833-2.0966-0.0521-4.5576 1.0548-6.4215 0.2701-1.8639-0.7848-2.5325-3.2093-3.9345-4.6303-1.3525-1.3708-3.9018-2.1672-4.6153-4.0421-0.7135-1.8747 0.69553-4.0743 0.8071-5.964 0.1157-1.959-1.0008-4.2247-0.10629-5.9872 0.89441-1.7625 3.5126-2.4558 5.076-3.8052 1.508-1.3017 2.4346-3.7045 4.4648-4.424 2.0301-0.71964 4.3479 0.53302 6.3706 0.58338 2.0967 0.05208 4.5577-1.0548 6.4216-0.27007 1.8638 0.7847 2.5324 3.2093 3.9345 4.6303 1.3525 1.3709 3.9017 2.1673 4.6152 4.0421z" stroke="url(#a)" stroke-miterlimit="10" stroke-width=".2"/>
<path d="m36.224 14.911c0.6487 1.9445-0.8663 4.136-1.0542 6.0626-0.1949 1.9973 0.8467 4.3575-0.1295 6.1228s-3.6567 2.3692-5.2943 3.6858c-1.5798 1.27-2.6139 3.6883-4.6995 4.3425-2.0858 0.6543-4.3846-0.7186-6.4322-0.8508-2.1227-0.1372-4.6601 0.8956-6.5178 0.0192-1.8576-0.8765-2.4389-3.381-3.8033-4.8891-1.3162-1.455-3.8677-2.3708-4.5164-4.3153s0.8663-4.1359 1.0542-6.0626c0.19489-1.9972-0.84661-4.3575 0.12955-6.1227 0.97616-1.7653 3.6567-2.3693 5.2942-3.6858 1.5798-1.2699 2.6141-3.6882 4.6997-4.3424 2.0858-0.6543 4.3846 0.71864 6.4322 0.85089 2.1226 0.13711 4.6601-0.89569 6.5178-0.01925 1.8576 0.87642 2.4389 3.3809 3.8033 4.8891 1.316 1.4548 3.8677 2.3706 4.5163 4.3151z" stroke="url(#a)" stroke-miterlimit="10" stroke-width=".2"/>
<path d="m36.64 15.448c0.5802 2.013-1.0417 4.192-1.3087 6.1535-0.2766 2.0333 0.6852 4.4868-0.3739 6.2519-1.0592 1.7649-3.7993 2.275-5.5108 3.5549-1.6512 1.2347-2.7948 3.6649-4.9342 4.2499-2.1394 0.5853-4.4144-0.9096-6.484-1.1266-2.1455-0.225-4.7577 0.729-6.6052-0.2409-1.8475-0.97-2.3374-3.5525-3.6601-5.1485-1.2761-1.5394-3.8252-2.5773-4.4054-4.5904-0.58025-2.013 1.0416-4.192 1.3086-6.1535 0.27664-2.0333-0.68511-4.4869 0.37394-6.2519 1.0592-1.765 3.7994-2.275 5.5108-3.555 1.6512-1.2347 2.7948-3.6647 4.9342-4.2499s4.4144 0.90968 6.484 1.1267c2.1454 0.225 4.7576-0.72905 6.6052 0.24084 1.8475 0.97003 2.3374 3.5525 3.6602 5.1485 1.2759 1.5395 3.8251 2.5774 4.4054 4.5905z" stroke="url(#a)" stroke-miterlimit="10" stroke-width=".2"/>
<path d="m37.043 16.014c0.5082 2.0803-1.2217 4.2422-1.57 6.236-0.361 2.0669 0.5165 4.6127-0.6268 6.3742-1.1432 1.7614-3.94 2.173-5.7251 3.4125-1.722 1.196-2.9773 3.6335-5.1683 4.1459-2.1911 0.5125-4.4371-1.106-6.5257-1.4105-2.1651-0.3156-4.8497 0.5548-6.6834-0.5102-1.8337-1.0651-2.2278-3.724-3.5048-5.4077-1.232-1.6242-3.774-2.787-4.2822-4.8673-0.50819-2.0803 1.2217-4.2423 1.57-6.2361 0.36096-2.0668-0.51647-4.6127 0.62676-6.3742 1.1434-1.7614 3.9402-2.173 5.7253-3.4125 1.7221-1.1959 2.9773-3.6334 5.1683-4.1459s4.4371 1.1061 6.5257 1.4106c2.165 0.31559 4.8497-0.55485 6.6835 0.51019 1.8336 1.0651 2.2277 3.724 3.5048 5.4076 1.2318 1.6244 3.7738 2.787 4.282 4.8674z" stroke="url(#a)" stroke-miterlimit="10" stroke-width=".2"/>
<path d="m37.425 16.607c0.4325 2.1463-1.4062 4.2864-1.8381 6.3101-0.4476 2.0978 0.3405 4.7346-0.8878 6.4889-1.2283 1.7542-4.0786 2.0631-5.9366 3.2586-1.7924 1.1533-3.1609 3.594-5.4014 4.0302-2.2406 0.4361-4.4524-1.3077-6.5566-1.7024-2.1812-0.4091-4.9363 0.3733-6.7521-0.7885-1.8158-1.1618-2.1097-3.8947-3.3369-5.6664-1.1839-1.7091-3.7138-2.999-4.1462-5.1452-0.43245-2.1463 1.4062-4.2864 1.838-6.3101 0.4477-2.0979-0.34042-4.7346 0.88785-6.4889 1.2283-1.7543 4.0786-2.0632 5.9365-3.2586 1.7924-1.1532 3.161-3.5941 5.4015-4.0302s4.4524 1.3077 6.5565 1.7024c2.1813 0.40919 4.9363-0.37322 6.7521 0.78856 1.8159 1.1618 2.1098 3.8947 3.337 5.6664 1.184 1.709 3.7137 2.9988 4.1462 5.1452z" stroke="url(#a)" stroke-miterlimit="10" stroke-width=".2"/>
<path d="m37.796 17.229c0.3531 2.2108-1.5948 4.3243-2.1125 6.3751-0.5368 2.126 0.1571 4.852-1.157 6.5957-1.3142 1.7438-4.2146 1.9453-6.1447 3.0927-1.8619 1.1069-3.3455 3.5466-5.6331 3.9027s-4.4596-1.5145-6.5763-2.0019c-2.1941-0.5053-5.0167 0.1841-6.8106-1.0758-1.794-1.2598-1.9833-4.0645-3.1568-5.9242-1.132-1.794-3.6443-3.2131-3.9974-5.4239-0.35311-2.2107 1.5948-4.3242 2.1126-6.375 0.53673-2.126-0.15723-4.852 1.1569-6.5958 1.3142-1.7437 4.2146-1.9453 6.1448-3.0927 1.8619-1.1068 3.3455-3.5465 5.633-3.9027 2.2875-0.35611 4.4596 1.5145 6.5763 2.0018 2.1942 0.50534 5.0168-0.18405 6.8107 1.0759 1.7939 1.2598 1.9832 4.0645 3.1567 5.9242 1.1319 1.794 3.6443 3.2131 3.9974 5.4238z" stroke="url(#a)" stroke-miterlimit="10" stroke-width=".2"/>
<path d="m38.14 17.88c0.2702 2.2733-1.7874 4.3553-2.3935 6.4305-0.6282 2.1511-0.0329 4.9647-1.4337 6.6942s-4.3477 1.8195-6.3491 2.9149c-1.9304 1.0567-3.5305 3.4907-5.8626 3.7631-2.3321 0.2726-4.459-1.7259-6.5845-2.3086-2.2033-0.6041-5.0909-0.0126-6.8587-1.3718-1.7679-1.3593-1.8486-4.233-2.9639-6.1803-1.0759-1.8786-3.5654-3.4293-3.8355-5.7027-0.27022-2.2733 1.7874-4.3553 2.3935-6.4305 0.62819-2.151 0.03296-4.9647 1.4337-6.6942 1.4008-1.7295 4.3478-1.8195 6.349-2.9149 1.9306-1.0566 3.5306-3.4906 5.8628-3.7631 2.3321-0.27251 4.4589 1.7259 6.5844 2.3087 2.2033 0.60408 5.0908 0.01255 6.8587 1.3718 1.7678 1.3592 1.8486 4.233 2.9639 6.1803 1.0758 1.8786 3.5652 3.4292 3.8354 5.7026z" stroke="url(#a)" stroke-miterlimit="10" stroke-width=".2"/>
<path d="m38.464 18.559c0.1836 2.334-1.9839 4.3794-2.6803 6.4759-0.7217 2.1731-0.2302 5.0723-1.7181 6.7836-1.488 1.7113-4.4778 1.6857-6.5491 2.7251-1.9982 1.0027-3.7159 3.426-6.0898 3.6112-2.374 0.1851-4.45-1.9421-6.5806-2.6227-2.2086-0.7055-5.158-0.2163-6.8954-1.6759-1.7375-1.4597-1.7054-4.3998-2.7583-6.4344-1.0157-1.9627-3.4768-3.6471-3.6605-5.9811-0.18362-2.334 1.9839-4.3795 2.6802-6.4759 0.72178-2.1732 0.23026-5.0723 1.7182-6.7837 1.4879-1.7114 4.4777-1.6857 6.5491-2.725 1.9981-1.0027 3.7159-3.426 6.0898-3.6112 2.374-0.18519 4.45 1.9421 6.5804 2.6226 2.2088 0.70552 5.1581 0.2163 6.8956 1.676s1.7053 4.3997 2.7583 6.4343c1.0158 1.963 3.4769 3.6474 3.6605 5.9812z" stroke="url(#a)" stroke-miterlimit="10" stroke-width=".2"/>
<path d="m38.768 19.266c0.0936 2.3925-2.184 4.3962-2.9726 6.5108-0.8175 2.192-0.4343 5.1745-2.01 6.8638-1.5755 1.6894-4.6042 1.5436-6.7442 2.5231-2.0645 0.9447-3.9012 3.3526-6.3142 3.4469-2.4129 0.0945-4.4321-2.1627-6.564-2.9432-2.21-0.8093-5.2181-0.4273-6.9208-1.9884-1.7027-1.5611-1.5537-4.5644-2.54-6.6858-0.95148-2.0465-3.3785-3.8661-3.4721-6.2586-0.09359-2.3925 2.1839-4.3962 2.9726-6.5107 0.81752-2.192 0.4343-5.1744 2.01-6.8638 1.5757-1.6894 4.6042-1.5436 6.7443-2.523 2.0645-0.94478 3.9012-3.3527 6.3141-3.447 2.4129-0.09445 4.4321 2.1626 6.564 2.9432 2.21 0.80924 5.2182 0.42731 6.9208 1.9884 1.7026 1.5611 1.5537 4.5643 2.54 6.6858 0.9513 2.0464 3.3784 3.8661 3.4721 6.2585z" stroke="url(#a)" stroke-miterlimit="10" stroke-width=".2"/>
<path d="m39.047 20c0 2.4486-2.3873 4.4053-3.2702 6.5346-0.9154 2.2075-0.6453 5.2705-2.3088 6.934s-4.7265 1.3934-6.934 2.3088c-2.1293 0.8829-4.086 3.2702-6.5346 3.2702-2.4487 0-4.4054-2.3873-6.5347-3.2702-2.2074-0.9154-5.2705-0.6453-6.934-2.3088-1.6634-1.6635-1.3933-4.7265-2.3087-6.934-0.883-2.1293-3.2702-4.086-3.2702-6.5346 0-2.4487 2.3872-4.4054 3.2702-6.5347 0.91539-2.2074 0.64531-5.2705 2.3087-6.934 1.6636-1.6634 4.7266-1.3933 6.934-2.3087 2.1293-0.883 4.086-3.2702 6.5347-3.2702 2.4486 0 4.4053 2.3872 6.5346 3.2702 2.2075 0.91539 5.2705 0.64531 6.934 2.3087 1.6635 1.6636 1.3934 4.7266 2.3088 6.934 0.8829 2.1293 3.2702 4.086 3.2702 6.5347z" stroke="url(#a)" stroke-miterlimit="10" stroke-width=".2"/>
<path d="m48.13 14.309h2.4457v1.5543c0.3048-0.4724 0.739-0.8533 1.3029-1.1428 0.579-0.3048 1.1733-0.4572 1.7828-0.4572h1.3714v2.2857h-1.3714c-0.8686 0-1.5695 0.2667-2.1028 0.8-0.5334 0.5334-0.8 1.2267-0.8 2.08v6.2858h-2.6286v-11.406zm11.689 11.589c-1.1581 0-2.0952-0.2895-2.8114-0.8686-0.701-0.5942-1.0514-1.379-1.0514-2.3542v-0.8229c0-0.96 0.3657-1.7295 1.0971-2.3086 0.7467-0.579 1.7219-0.8685 2.9257-0.8685h1.4172c0.4266 0 0.8838 0.0609 1.3714 0.1828s0.9219 0.2819 1.3029 0.48v-1.4171c0-0.4724-0.1524-0.8534-0.4572-1.1429-0.3047-0.2895-0.7009-0.4343-1.1886-0.4343h-1.92c-0.5028 0-0.9066 0.1219-1.2114 0.3657-0.3048 0.2286-0.4571 0.5334-0.4571 0.9143h-2.56c0-1.0514 0.3885-1.8971 1.1657-2.5371 0.7771-0.64 1.7981-0.96 3.0628-0.96h1.92c1.28 0 2.3086 0.3505 3.0858 1.0514 0.7771 0.6857 1.1657 1.6 1.1657 2.7429v7.7943h-2.4457v-1.44c-0.3658 0.4876-0.8229 0.8838-1.3715 1.1885-0.5485 0.2896-1.0895 0.4343-1.6228 0.4343h-1.4172zm1.5772-2.0571c0.6095 0 1.1581-0.1676 1.6457-0.5029 0.4876-0.3505 0.8305-0.8076 1.0286-1.3714v-0.5486c-0.2591-0.2133-0.6248-0.3809-1.0972-0.5028-0.4724-0.1372-0.9676-0.2058-1.4857-0.2058h-1.44c-0.4571 0-0.8305 0.1143-1.12 0.3429-0.2743 0.2286-0.4114 0.5257-0.4114 0.8914v0.64c0 0.381 0.1447 0.6857 0.4343 0.9143 0.2895 0.2286 0.6704 0.3429 1.1428 0.3429h1.3029zm11.959 2.0571c-1.2952 0-2.3466-0.4038-3.1543-1.2114-0.7923-0.8229-1.1885-1.8972-1.1885-3.2229v-2.6514c0-0.9295 0.1905-1.7448 0.5714-2.4457 0.381-0.7162 0.9143-1.2648 1.6-1.6457 0.701-0.3962 1.501-0.5943 2.4-0.5943h1.3943c0.4724 0 0.9371 0.1067 1.3943 0.32 0.4724 0.2133 0.8609 0.4952 1.1657 0.8457v-5.5771h2.6057v16h-2.4457v-1.5772c-0.32 0.5333-0.7467 0.96-1.28 1.28-0.5334 0.32-1.0743 0.48-1.6229 0.48h-1.44zm1.6457-2.2628c0.6553 0 1.2191-0.2591 1.6915-0.7772 0.4876-0.5333 0.7695-1.1886 0.8457-1.9657v-2.2857c-0.1067-0.6553-0.3657-1.1886-0.7772-1.6-0.3961-0.4114-0.8761-0.6172-1.44-0.6172h-1.4628c-0.6705 0-1.2114 0.2362-1.6229 0.7086-0.3962 0.4724-0.5943 1.0895-0.5943 1.8514v2.3543c0 0.701 0.1829 1.2648 0.5486 1.6915 0.381 0.4266 0.861 0.64 1.44 0.64h1.3714zm11.56 2.2628c-1.1581 0-2.0953-0.2895-2.8115-0.8686-0.7009-0.5942-1.0514-1.379-1.0514-2.3542v-0.8229c0-0.96 0.3657-1.7295 1.0972-2.3086 0.7466-0.579 1.7219-0.8685 2.9257-0.8685h1.4171c0.4267 0 0.8838 0.0609 1.3714 0.1828 0.4877 0.1219 0.9219 0.2819 1.3029 0.48v-1.4171c0-0.4724-0.1524-0.8534-0.4571-1.1429-0.3048-0.2895-0.701-0.4343-1.1886-0.4343h-1.92c-0.5029 0-0.9067 0.1219-1.2114 0.3657-0.3048 0.2286-0.4572 0.5334-0.4572 0.9143h-2.56c0-1.0514 0.3886-1.8971 1.1657-2.5371 0.7772-0.64 1.7981-0.96 3.0629-0.96h1.92c1.28 0 2.3086 0.3505 3.0857 1.0514 0.7771 0.6857 1.1657 1.6 1.1657 2.7429v7.7943h-2.4457v-1.44c-0.3657 0.4876-0.8229 0.8838-1.3714 1.1885-0.5486 0.2896-1.0895 0.4343-1.6229 0.4343h-1.4171zm1.5771-2.0571c0.6095 0 1.1581-0.1676 1.6457-0.5029 0.4876-0.3505 0.8305-0.8076 1.0286-1.3714v-0.5486c-0.259-0.2133-0.6248-0.3809-1.0971-0.5028-0.4724-0.1372-0.9677-0.2058-1.4858-0.2058h-1.44c-0.4571 0-0.8304 0.1143-1.12 0.3429-0.2742 0.2286-0.4114 0.5257-0.4114 0.8914v0.64c0 0.381 0.1448 0.6857 0.4343 0.9143s0.6705 0.3429 1.1429 0.3429h1.3028zm8.0727-9.5315h2.4457v1.5543c0.3048-0.4724 0.739-0.8533 1.3029-1.1428 0.5795-0.3048 1.1735-0.4572 1.7825-0.4572h1.372v2.2857h-1.372c-0.868 0-1.569 0.2667-2.1025 0.8-0.5334 0.5334-0.8 1.2267-0.8 2.08v6.2858h-2.6286v-11.406z" fill="#fff"/>
<path d="m113.84 25.714c-1.158 0-1.988-0.2438-2.491-0.7315-0.503-0.5028-0.754-1.3257-0.754-2.4685v-7.1086h-2.012v-1.0972h2.012v-3.4514h1.211v3.4514h2.971v1.0972h-2.971v7.1086c0 0.7466 0.152 1.2876 0.457 1.6228 0.305 0.32 0.815 0.48 1.532 0.48h0.982v1.0972h-0.937zm4.229-11.406h1.188v1.8515c0.336-0.5791 0.816-1.0362 1.44-1.3715 0.625-0.3504 1.296-0.5257 2.012-0.5257h0.846v1.0972h-0.869c-0.991 0-1.806 0.32-2.446 0.96-0.625 0.64-0.937 1.4704-0.937 2.4914v6.9029h-1.234v-11.406zm10.721 11.589c-1.067 0-1.92-0.2743-2.56-0.8228-0.64-0.5639-0.96-1.3105-0.96-2.24v-0.8686c0-0.9295 0.327-1.6686 0.983-2.2172 0.655-0.5485 1.523-0.8228 2.605-0.8228h1.486c0.518 0 1.051 0.0838 1.6 0.2514 0.564 0.1676 1.044 0.3962 1.44 0.6857v-2.2171c0-0.7162-0.221-1.3029-0.663-1.76-0.442-0.4572-1.013-0.6857-1.714-0.6857h-1.783c-0.716 0-1.295 0.1676-1.737 0.5028-0.442 0.3353-0.663 0.7848-0.663 1.3486h-1.234c0-0.8838 0.335-1.5924 1.005-2.1257 0.671-0.5333 1.547-0.8 2.629-0.8h1.783c1.082 0 1.943 0.32 2.583 0.96 0.655 0.64 0.983 1.4933 0.983 2.56v8.0686h-1.166v-1.7829c-0.396 0.6095-0.884 1.0895-1.463 1.44s-1.166 0.5257-1.76 0.5257h-1.394zm1.417-1.0971c0.64 0 1.249-0.2286 1.828-0.6857 0.595-0.4572 1.044-1.0591 1.349-1.8058v-1.2342c-0.335-0.32-0.785-0.5791-1.349-0.7772-0.548-0.1981-1.112-0.2971-1.691-0.2971h-1.486c-0.716 0-1.287 0.1828-1.714 0.5485-0.427 0.3505-0.64 0.8229-0.64 1.4172v0.8686c0 0.5942 0.206 1.0742 0.617 1.44 0.412 0.3504 0.968 0.5257 1.669 0.5257h1.417zm11.31 1.0971c-1.127 0-2.042-0.3886-2.742-1.1657-0.701-0.7924-1.052-1.8286-1.052-3.1086v-3.0628c0-1.3257 0.366-2.3924 1.097-3.2 0.747-0.8229 1.722-1.2343 2.926-1.2343h1.737c0.533 0 1.052 0.1447 1.554 0.4343 0.518 0.2743 0.93 0.6476 1.235 1.12v-5.9657h1.211v16h-1.188v-1.92c-0.381 0.6552-0.854 1.1733-1.418 1.5542-0.548 0.3658-1.127 0.5486-1.737 0.5486h-1.623zm1.6-1.0971c0.717 0 1.379-0.3124 1.989-0.9372 0.609-0.64 0.998-1.4095 1.166-2.3085v-3.7029c-0.153-0.7771-0.488-1.4095-1.006-1.8971-0.518-0.4877-1.12-0.7315-1.806-0.7315h-1.691c-0.854 0-1.539 0.3048-2.057 0.9143-0.503 0.6095-0.755 1.4172-0.755 2.4229v3.0628c0 0.9448 0.237 1.7143 0.709 2.3086 0.488 0.5791 1.112 0.8686 1.874 0.8686h1.577zm11.665 1.0971c-1.204 0-2.179-0.3657-2.926-1.0971-0.731-0.7315-1.097-1.6991-1.097-2.9029v-3.5428c0-1.2648 0.366-2.2858 1.097-3.0629 0.747-0.7771 1.722-1.1657 2.926-1.1657h1.874c1.159 0 2.088 0.3809 2.789 1.1428 0.716 0.7467 1.074 1.7448 1.074 2.9943v1.92h-8.525v1.7143c0 0.8686 0.251 1.5695 0.754 2.1029 0.518 0.5333 1.196 0.8 2.034 0.8h1.737c0.823 0 1.486-0.2362 1.989-0.7086 0.518-0.4876 0.777-1.12 0.777-1.8971h1.189c0 1.1123-0.366 2.0114-1.098 2.6971-0.716 0.6705-1.668 1.0057-2.857 1.0057h-1.737zm4.526-6.7657v-0.8686c0-0.9143-0.244-1.6457-0.732-2.1943-0.487-0.5638-1.127-0.8457-1.92-0.8457h-1.874c-0.838 0-1.516 0.2896-2.034 0.8686-0.503 0.579-0.754 1.3333-0.754 2.2629v0.7771h7.314z" fill="#fff"/>
<defs>
<linearGradient id="a" x1=".95215" x2="38.095" y1="20" y2="20" gradientUnits="userSpaceOnUse">
<stop stop-color="#E926C3" offset="0"/>
<stop stop-color="#FF4D86" offset="1"/>
</linearGradient>
</defs>
</svg>
