<svg width="22" height="22" viewBox="0 0 22 22" fill="none" xmlns="http://www.w3.org/2000/svg">
<path d="M5 2V5H2V2H5ZM6.5 0.5H0.5V6.5H6.5V0.5ZM12.5 2V5H9.5V2H12.5ZM14 0.5H8V6.5H14V0.5ZM20 2V5H17V2H20ZM21.5 0.5H15.5V6.5H21.5V0.5ZM5 9.5V12.5H2V9.5H5ZM6.5 8H0.5V14H6.5V8ZM12.5 9.5V12.5H9.5V9.5H12.5ZM14 8H8V14H14V8ZM20 9.5V12.5H17V9.5H20ZM21.5 8H15.5V14H21.5V8ZM5 17V20H2V17H5ZM6.5 15.5H0.5V21.5H6.5V15.5ZM12.5 17V20H9.5V17H12.5ZM14 15.5H8V21.5H14V15.5ZM20 17V20H17V17H20ZM21.5 15.5H15.5V21.5H21.5V15.5Z" fill="white"/>
</svg>
