<?xml version="1.0" encoding="UTF-8"?>
<svg fill="none" viewBox="0 0 116 24" xmlns="http://www.w3.org/2000/svg">
<path d="m12.692 6.4307c0.7099-0.066 1.1908 0.57925 1.7762 0.78011 0.6068 0.20817 1.5046 0.04663 1.9267 0.48829 0.4221 0.44154 0.233 1.3444 0.4183 1.9652 0.179 0.59882 0.8003 1.1065 0.7117 1.8225s-0.8516 1.3524-1.1846 1.9988c-0.3452 0.6701-0.3779 1.5584-0.9203 2.0896-0.5425 0.5312-1.4208 0.5348-2.0939 0.8619-0.6493 0.3156-1.303 1.0663-2.0129 1.1322-0.7098 0.066-1.1908-0.5793-1.7761-0.7801-0.60686-0.2082-1.5047-0.0466-1.9268-0.4883-0.42206-0.4415-0.23292-1.3445-0.41835-1.9652-0.17885-0.5988-0.80017-1.1066-0.7116-1.8226 0.08863-0.716 0.8516-1.3523 1.1846-1.9987 0.34526-0.67012 0.37789-1.5584 0.92035-2.0897 0.54245-0.5312 1.4208-0.5348 2.0939-0.86188 0.6493-0.31554 1.3029-1.0663 2.0129-1.1322z" stroke="url(#a)" stroke-miterlimit="10" stroke-width=".134"/>
<path d="m12.92 6.3364c0.722-0.03903 1.1837 0.63966 1.7689 0.86829 0.6067 0.23702 1.5229 0.10788 1.9331 0.576 0.4101 0.46817 0.1826 1.3833 0.346 2.0251 0.1576 0.61904 0.767 1.1628 0.6488 1.8909-0.1183 0.7281-0.9166 1.348-1.2796 1.9952-0.3764 0.671-0.4447 1.5776-1.0155 2.0987-0.5708 0.5212-1.4609 0.4897-2.1559 0.797-0.6705 0.2966-1.3626 1.0376-2.0845 1.0766-0.722 0.039-1.1837-0.6396-1.769-0.8683-0.60668-0.237-1.5229-0.1078-1.933-0.576-0.41017-0.4681-0.18268-1.3832-0.346-2.025-0.1576-0.6191-0.76703-1.1629-0.6488-1.891s0.91652-1.348 1.2796-1.9952c0.3764-0.67099 0.44463-1.5776 1.0154-2.0987s1.461-0.48966 2.156-0.79703c0.6705-0.29651 1.3626-1.0375 2.0845-1.0766z" stroke="url(#a)" stroke-miterlimit="10" stroke-width=".134"/>
<path d="m13.156 6.248c0.733-0.01103 1.174 0.70103 1.758 0.958 0.6053 0.26646 1.5388 0.17114 1.9359 0.66589 0.3971 0.4948 0.1303 1.421 0.2703 2.0834 0.1351 0.63905 0.7311 1.219 0.5825 1.9584-0.1486 0.7394-0.9821 1.341-1.3757 1.9879-0.4081 0.6707-0.5132 1.5944-1.1121 2.1042-0.5991 0.5097-1.4997 0.4419-2.2162 0.7283-0.6911 0.2762-1.4218 1.0058-2.155 1.0168-0.7331 0.0111-1.174-0.7009-1.758-0.9579-0.60532-0.2665-1.5388-0.1711-1.9359-0.6659-0.39714-0.4948-0.13029-1.421-0.27034-2.0834-0.13509-0.639-0.73109-1.219-0.58246-1.9584 0.14863-0.7393 0.98211-1.341 1.3757-1.9879 0.40806-0.67057 0.51315-1.5943 1.1121-2.1041 0.59903-0.50977 1.4997-0.44194 2.2162-0.72829 0.6911-0.27628 1.4219-1.0059 2.155-1.0169z" stroke="url(#a)" stroke-miterlimit="10" stroke-width=".134"/>
<path d="m13.4 6.1687c0.7434 0.01805 1.1619 0.76331 1.7434 1.0493 0.6028 0.29657 1.5525 0.2364 1.9352 0.75794 0.3828 0.52149 0.0757 1.4573 0.1915 2.1399 0.1116 0.6584 0.6925 1.2749 0.5125 2.0246-0.1799 0.7498-1.0482 1.3312-1.4728 1.9766-0.4401 0.669-0.5831 1.6088-1.2103 2.1058s-1.5372 0.3917-2.2745 0.6557c-0.7113 0.2547-1.4806 0.9711-2.224 0.953-0.74333-0.018-1.1618-0.7633-1.7434-1.0493-0.6028-0.2965-1.5525-0.2363-1.9352-0.7579-0.38274-0.5215-0.07572-1.4573-0.19143-2.1399-0.1116-0.6583-0.69251-1.2749-0.51257-2.0246 0.17994-0.7496 1.0483-1.3312 1.4728-1.9765 0.44006-0.66909 0.58314-1.6089 1.2103-2.1059 0.6272-0.49697 1.5372-0.39172 2.2744-0.65572 0.7113-0.25468 1.4807-0.97108 2.224-0.95302z" stroke="url(#a)" stroke-miterlimit="10" stroke-width=".134"/>
<path d="m13.651 6.0973c0.7526 0.04823 1.1471 0.82652 1.725 1.1421 0.5991 0.32709 1.5638 0.30366 1.931 0.85195 0.3671 0.54828 0.0189 1.4923 0.109 2.1945 0.087 0.6772 0.6512 1.3305 0.4392 2.0895-0.2121 0.759-1.1151 1.3184-1.5708 1.961-0.4724 0.6662-0.6545 1.6208-1.3099 2.1036-0.6552 0.4828-1.5731 0.3389-2.3307 0.5792-0.7308 0.2319-1.5388 0.9332-2.2913 0.885-0.75259-0.0482-1.1471-0.8265-1.725-1.1421-0.59903-0.327-1.5638-0.3036-1.9309-0.8518-0.3672-0.5484-0.01897-1.4924-0.10909-2.1945-0.08697-0.6773-0.6512-1.3306-0.43914-2.0896s1.1151-1.3183 1.5707-1.961c0.47246-0.66617 0.65457-1.6208 1.3099-2.1036 0.6552-0.4828 1.5732-0.33892 2.3308-0.5792 0.7308-0.23172 1.5388-0.93303 2.2913-0.88498z" stroke="url(#a)" stroke-miterlimit="10" stroke-width=".134"/>
<path d="m13.906 6.0332c0.7606 0.07925 1.1296 0.89045 1.7028 1.236 0.594 0.35823 1.5725 0.3728 1.9229 0.94778 0.3503 0.57502-0.04 1.5258 0.0235 2.2469 0.0613 0.6956 0.6071 1.3859 0.3622 2.153s-1.1821 1.3027-1.6694 1.9412c-0.5052 0.6618-0.7277 1.6301-1.4108 2.0973s-1.6075 0.2835-2.3847 0.4987c-0.7497 0.2076-1.5962 0.892-2.3569 0.8128-0.76061-0.0793-1.1297-0.8905-1.7027-1.236-0.59406-0.3583-1.5725-0.3728-1.9229-0.9479-0.35029-0.5749 0.04-1.5257-0.02355-2.2469-0.06125-0.6956-0.60708-1.3859-0.36217-2.153 0.24492-0.7671 1.1822-1.3027 1.6694-1.9412 0.50514-0.66189 0.72766-1.6301 1.4107-2.0974 0.68315-0.4672 1.6076-0.28343 2.3848-0.49863 0.7497-0.20766 1.5963-0.89212 2.3568-0.8128z" stroke="url(#a)" stroke-miterlimit="10" stroke-width=".134"/>
<path d="m14.168 5.9783c0.7676 0.11142 1.1094 0.95514 1.6764 1.3312 0.5878 0.38982 1.5787 0.44388 1.9109 1.0455s-0.101 1.5577-0.0653 2.2971c0.0346 0.7134 0.5603 1.4406 0.2817 2.2147s-1.2495 1.284-1.7686 1.917c-0.5381 0.6561-0.8019 1.6368-1.5126 2.087s-1.6401 0.2254-2.4362 0.4142c-0.7679 0.1823-1.6528 0.8478-2.4204 0.7365-0.7676-0.1115-1.1093-0.9552-1.6764-1.3312-0.58783-0.3899-1.5787-0.4439-1.9109-1.0455-0.33217-0.6017 0.10097-1.5577 0.0652-2.2972-0.03446-0.7133-0.56017-1.4405-0.2816-2.2146 0.27863-0.7742 1.2494-1.2841 1.7686-1.9171 0.53806-0.65611 0.80189-1.6368 1.5126-2.087 0.71065-0.45023 1.6402-0.22543 2.4362-0.41434 0.7679-0.18217 1.6528-0.84772 2.4204-0.73634z" stroke="url(#a)" stroke-miterlimit="10" stroke-width=".134"/>
<path d="m14.436 5.9332c0.7734 0.14457 1.0862 1.0205 1.6458 1.4274 0.5802 0.42183 1.5822 0.51669 1.895 1.1448 0.3128 0.62806-0.1641 1.5878-0.1572 2.3449 0.0067 0.7304 0.5106 1.4946 0.1976 2.2745s-1.317 1.2622-1.8682 1.8883c-0.5712 0.6491-0.8774 1.6407-1.6154 2.0723s-1.671 0.1648-2.4851 0.326c-0.7854 0.1556-1.7085 0.8004-2.4818 0.6558-0.77337-0.1446-1.0862-1.0205-1.6459-1.4274-0.58011-0.4219-1.5821-0.5167-1.8949-1.1448-0.31278-0.6281 0.16411-1.5878 0.1572-2.345-0.00669-0.7303-0.51055-1.4945-0.1976-2.2744 0.31297-0.78 1.317-1.2622 1.8681-1.8884 0.57126-0.64903 0.87749-1.6407 1.6155-2.0723 0.73801-0.4316 1.6709-0.1648 2.4851-0.32594 0.7853-0.15554 1.7083-0.8004 2.4818-0.65583z" stroke="url(#a)" stroke-miterlimit="10" stroke-width=".134"/>
<path d="m14.709 5.8973c0.7779 0.17869 1.0602 1.0864 1.6112 1.5246 0.5711 0.45429 1.5827 0.59126 1.8747 1.2457 0.292 0.65434-0.2292 1.6162-0.2522 2.39-0.0222 0.7466 0.4582 1.5477 0.11 2.3323-0.3481 0.7846-1.3845 1.2374-1.9677 1.8551-0.6046 0.6405-0.9542 1.6416-1.7192 2.0532-0.7649 0.4116-1.6996 0.1016-2.531 0.2338-0.802 0.1275-1.7629 0.7497-2.5408 0.571-0.77794-0.1787-1.0602-1.0863-1.6113-1.5246-0.57114-0.4543-1.5827-0.5913-1.8747-1.2457s0.22914-1.616 0.25217-2.3901c0.02217-0.7466-0.45814-1.5477-0.11-2.3323 0.34806-0.78458 1.3846-1.2373 1.9678-1.8551 0.60452-0.64051 0.95412-1.6416 1.7191-2.0532 0.76496-0.4116 1.6997-0.10155 2.5311-0.23378 0.802-0.1276 1.763-0.74965 2.5409-0.57103z" stroke="url(#a)" stroke-miterlimit="10" stroke-width=".134"/>
<path d="m14.987 5.8716c0.7812 0.21366 1.0312 1.1525 1.5721 1.6225 0.5607 0.48714 1.5804 0.66748 1.8503 1.3479 0.27 0.6804-0.2963 1.6424-0.3503 2.4324-0.0521 0.7622 0.4028 1.6001 0.019 2.388-0.3839 0.7879-1.4521 1.209-2.0675 1.8171-0.638 0.6302-1.0319 1.6394-1.8234 2.0294-0.7914 0.39-1.7262 0.0359-2.574 0.1378-0.8177 0.0982-1.8161 0.6956-2.5973 0.4818-0.7812-0.2136-1.0312-1.1524-1.5722-1.6224-0.56074-0.4872-1.5803-0.6676-1.8502-1.3479-0.27-0.6804 0.29624-1.6424 0.3503-2.4325 0.05206-0.7621-0.40286-1.6-0.01903-2.3878 0.38383-0.78792 1.4521-1.2091 2.0675-1.8171 0.638-0.63029 1.0319-1.6395 1.8234-2.0295 0.79146-0.39 1.7263-0.03588 2.574-0.13777 0.8178-0.09823 1.8162-0.69559 2.5974-0.48183z" stroke="url(#a)" stroke-miterlimit="10" stroke-width=".134"/>
<path d="m15.269 5.857c0.7831 0.2496 0.9992 1.219 1.5288 1.7209 0.5489 0.52023 1.5748 0.74537 1.8215 1.4515 0.2466 0.70612-0.3654 1.6665-0.4514 2.4717-0.083 0.7768 0.3448 1.6512-0.0753 2.441-0.4202 0.7898-1.5193 1.1776-2.1671 1.7743-0.6715 0.6187-1.1106 1.6342-1.9281 2.0012-0.8174 0.367-1.7506-0.0324-2.6136 0.0378-0.8325 0.0677-1.8678 0.6382-2.651 0.3886s-0.99926-1.2189-1.5288-1.7209c-0.54891-0.5201-1.5749-0.7453-1.8215-1.4515-0.24662-0.7061 0.36537-1.6665 0.45137-2.4717 0.08297-0.7768-0.34479-1.6512 0.07537-2.441 0.42011-0.78977 1.5193-1.1776 2.167-1.7743 0.67148-0.61863 1.1106-1.6342 1.9281-2.0011 0.8174-0.36697 1.7507 0.0324 2.6137-0.03783 0.8324-0.06771 1.8678-0.63816 2.6509-0.38863z" stroke="url(#a)" stroke-miterlimit="10" stroke-width=".134"/>
<path d="m15.557 5.8523c0.7836 0.2864 0.9642 1.2856 1.4809 1.8198 0.5355 0.5536 1.5663 0.82468 1.7882 1.5561 0.2218 0.73148-0.4364 1.6885-0.5554 2.5079-0.1148 0.7906 0.284 1.7012-0.173 2.4916-0.4571 0.7903-1.5863 1.1427-2.2662 1.7266-0.705 0.6054-1.1902 1.6257-2.0331 1.968s-1.7727-0.1031-2.6499-0.0659c-0.8463 0.036-1.918 0.5776-2.7017 0.2913-0.7836-0.2865-0.96422-1.2857-1.4809-1.8198-0.53554-0.5536-1.5663-0.8247-1.7882-1.5561-0.22188-0.7315 0.43633-1.6885 0.55533-2.5079 0.11486-0.7906-0.28396-1.7012 0.17309-2.4916 0.45703-0.79029 1.5862-1.1426 2.2662-1.7266 0.70491-0.60537 1.1902-1.6256 2.0331-1.9679 0.8428-0.34229 1.7727 0.10308 2.6499 0.06583 0.8463-0.036 1.918-0.57764 2.7017-0.2912z" stroke="url(#a)" stroke-miterlimit="10" stroke-width=".134"/>
<path d="m15.846 5.8596c0.7828 0.324 0.9262 1.3525 1.4285 1.9189 0.5207 0.58715 1.5544 0.90543 1.7502 1.6617 0.1959 0.75638-0.5089 1.7081-0.6621 2.5408-0.1478 0.8033 0.2202 1.7499-0.2742 2.5393s-1.6525 1.1043-2.3648 1.6739c-0.7383 0.5905-1.2705 1.6137-2.1381 1.9298-0.8676 0.3162-1.7922-0.1762-2.6825-0.1733-0.859 0.0029-1.9664 0.5136-2.7491 0.1896-0.78275-0.324-0.92612-1.3525-1.4285-1.9189-0.52074-0.5872-1.5544-0.9055-1.7502-1.6618-0.19586-0.7564 0.50899-1.708 0.66214-2.5408 0.14776-0.8033-0.22026-1.7498 0.27421-2.5392 0.4944-0.78943 1.6526-1.1043 2.3648-1.6739 0.73834-0.59045 1.2706-1.6137 2.1381-1.9298 0.8676-0.31614 1.7922 0.17622 2.6826 0.17325 0.8589-0.00291 1.9664-0.51353 2.749-0.18954z" stroke="url(#a)" stroke-miterlimit="10" stroke-width=".134"/>
<path d="m16.142 5.8788c0.7803 0.36246 0.8848 1.4191 1.3714 2.018 0.5044 0.62091 1.5393 0.98737 1.7077 1.7682 0.1684 0.78078-0.5835 1.7252-0.7717 2.57-0.1816 0.815 0.1538 1.7971-0.3786 2.584-0.5323 0.787-1.7183 1.0625-2.4626 1.6161-0.7716 0.5739-1.3514 1.5983-2.2431 1.8867s-1.8091-0.2518-2.7114-0.2843c-0.87052-0.0315-2.0129 0.4462-2.7932 0.0837-0.78028-0.3624-0.8848-1.419-1.3714-2.018-0.5044-0.6208-1.5392-0.9873-1.7076-1.7682-0.16847-0.7808 0.58347-1.7251 0.77171-2.5699 0.18158-0.8151-0.15383-1.7971 0.37855-2.5841 0.53228-0.78697 1.7183-1.0624 2.4626-1.616 0.77154-0.57389 1.3513-1.5983 2.2431-1.8867 0.8917-0.2884 1.8091 0.25175 2.7114 0.28432 0.8705 0.03137 2.0128-0.4462 2.7931-0.08383z" stroke="url(#a)" stroke-miterlimit="10" stroke-width=".134"/>
<path d="m16.438 5.9104c0.7763 0.40154 0.8404 1.4856 1.3096 2.1171 0.4866 0.65457 1.5206 1.0705 1.6603 1.8752 0.1397 0.80471-0.6596 1.7397-0.8838 2.5956-0.2162 0.8256 0.0846 1.8426-0.486 2.6255s-1.7833 1.0171-2.5594 1.5531c-0.8047 0.5556-1.4327 1.5792-2.3477 1.8384-0.915 0.259-1.8231-0.3296-2.7363-0.399-0.88072-0.0668-2.0574 0.3756-2.8336-0.026-0.77634-0.4016-0.8404-1.4856-1.3096-2.1171-0.48652-0.6546-1.5206-1.0706-1.6603-1.8753-0.1397-0.8046 0.65966-1.7397 0.88386-2.5956 0.21623-0.8256-0.08466-1.8425 0.48598-2.6255 0.57063-0.78291 1.7833-1.017 2.5594-1.553 0.80463-0.55565 1.4327-1.5793 2.3478-1.8384 0.9149-0.25904 1.823 0.32959 2.7362 0.3989 0.8807 0.06686 2.0572-0.37553 2.8336 0.02606z" stroke="url(#a)" stroke-miterlimit="10" stroke-width=".134"/>
<path d="m16.739 5.954c0.7707 0.44137 0.7926 1.5518 1.2431 2.2159 0.4671 0.6884 1.4984 1.1549 1.6081 1.9828 0.1097 0.8279-0.7374 1.7515-0.9985 2.6171-0.2518 0.8351 0.0127 1.8865-0.5964 2.6637-0.6093 0.7773-1.8475 0.9681-2.6551 1.4848-0.8373 0.5357-1.5144 1.5567-2.4518 1.7849-0.9375 0.2281-1.8343-0.4097-2.7568-0.5171-0.88983-0.1035-2.0996 0.3015-2.8704-0.1398-0.77068-0.4414-0.79263-1.5519-1.2431-2.216-0.46706-0.6884-1.4983-1.1549-1.6081-1.9827-0.10975-0.8279 0.73738-1.7516 0.99847-2.6172 0.25185-0.835-0.01267-1.8864 0.5965-2.6637 0.6092-0.77726 1.8474-0.96806 2.6551-1.4848 0.83726-0.53566 1.5143-1.5567 2.4517-1.7848 0.9375-0.22813 1.8344 0.4097 2.7568 0.51704 0.8899 0.1036 2.0996-0.30149 2.8704 0.13988z" stroke="url(#a)" stroke-miterlimit="10" stroke-width=".134"/>
<path d="m17.042 6.011c0.7635 0.48183 0.7417 1.6176 1.1719 2.3143 0.4458 0.72223 1.4724 1.24 1.5508 2.0906 0.0782 0.8504-0.8167 1.7604-1.1156 2.6346-0.2883 0.8432-0.0619 1.9283-0.71 2.6983-0.6482 0.77-1.9104 0.9154-2.7493 1.4112-0.8696 0.514-1.5962 1.5303-2.5551 1.726-0.959 0.1957-1.8425-0.492-2.773-0.6385-0.89766-0.1415-2.1395 0.2241-2.903-0.2577-0.76349-0.4819-0.74166-1.6176-1.1718-2.3143-0.44591-0.7223-1.4725-1.24-1.5508-2.0906-0.07834-0.8504 0.81665-1.7604 1.1155-2.6345 0.28831-0.8433 0.06189-1.9284 0.7101-2.6984 0.64806-0.77 1.9103-0.91543 2.7492-1.4112 0.86966-0.51395 1.5963-1.5302 2.5552-1.726 0.9589-0.19569 1.8424 0.49205 2.773 0.63858 0.8976 0.14137 2.1394-0.22417 2.9029 0.25771z" stroke="url(#a)" stroke-miterlimit="10" stroke-width=".134"/>
<path d="m17.348 6.081c0.7545 0.52292 0.6874 1.6827 1.0957 2.4118 0.4233 0.75589 1.443 1.3262 1.4886 2.1984 0.0457 0.8722-0.8973 1.7664-1.2348 2.6478-0.3256 0.8503-0.1392 1.9682-0.8265 2.7291-0.6873 0.761-1.9721 0.8591-2.8418 1.3323-0.9016 0.4904-1.6781 1.5-2.6576 1.6616-0.9794 0.1616-1.8475-0.5764-2.7844-0.7635-0.904-0.1803-2.1769 0.1436-2.9314-0.3794-0.75451-0.5229-0.68737-1.6827-1.0957-2.4119-0.42323-0.7558-1.4429-1.3261-1.4886-2.1984-0.04571-0.8721 0.89729-1.7664 1.2348-2.6477 0.32555-0.85031 0.13919-1.9682 0.82648-2.7292 0.68726-0.76091 1.972-0.85908 2.8417-1.3322 0.90154-0.49046 1.678-1.5 2.6575-1.6618 0.9795-0.16162 1.8475 0.57646 2.7845 0.7635 0.9041 0.18047 2.177-0.14355 2.9315 0.3795z" stroke="url(#a)" stroke-miterlimit="10" stroke-width=".134"/>
<path d="m17.654 6.1648c0.7439 0.56463 0.6299 1.7471 1.0147 2.5086 0.3989 0.78937 1.4096 1.413 1.4213 2.3062 0.0118 0.8932-0.9792 1.7692-1.3562 2.6566-0.3636 0.8559-0.2191 2.0057-0.9457 2.7558-0.7266 0.7502-2.0323 0.7991-2.9323 1.2479-0.933 0.4652-1.7599 1.4659-2.7588 1.5919-0.999 0.126-1.8492-0.663-2.7914-0.8916-0.90886-0.2205-2.2115 0.0597-2.9554-0.5049-0.7438-0.5646-0.62989-1.7471-1.0146-2.5086-0.39891-0.7893-1.4096-1.4129-1.4213-2.3061-0.01173-0.8932 0.97922-1.7693 1.3562-2.6566 0.36365-0.8559 0.21906-2.0057 0.94565-2.7559 0.72663-0.75012 2.0323-0.79909 2.9323-1.2478 0.93301-0.4652 1.7599-1.4659 2.7589-1.5919 0.9989-0.12601 1.8492 0.663 2.7913 0.89156 0.9088 0.22044 2.2116-0.05975 2.9553 0.5049z" stroke="url(#a)" stroke-miterlimit="10" stroke-width=".134"/>
<path d="m17.959 6.263c0.7313 0.6068 0.5689 1.8106 0.9287 2.6042 0.373 0.82263 1.3723 1.5003 1.3487 2.4135s-1.0625 1.7689-1.4796 2.6606c-0.4024 0.8602-0.3015 2.0411-1.0674 2.7786-0.766 0.7376-2.0911 0.7355-3.021 1.1581-0.9638 0.4381-1.8413 1.4276-2.8586 1.5165-1.0172 0.0889-1.8475-0.7514-2.7931-1.0227-0.91218-0.2616-2.2433-0.0274-2.9746-0.6342-0.73132-0.6067-0.56892-1.8105-0.92872-2.6041-0.37297-0.8226-1.3723-1.5003-1.3487-2.4135 0.02354-0.9132 1.0624-1.7689 1.4796-2.6606 0.40242-0.86015 0.3015-2.0411 1.0675-2.7786 0.76595-0.73754 2.091-0.73543 3.0209-1.1581 0.96385-0.43811 1.8414-1.4276 2.8586-1.5165 1.0172-0.08886 1.8475 0.75143 2.7931 1.0227 0.9123 0.26167 2.2433 0.0274 2.9747 0.63413z" stroke="url(#a)" stroke-miterlimit="10" stroke-width=".134"/>
<path d="m18.266 6.3754c0.717 0.64926 0.5047 1.8731 0.8377 2.6984 0.3454 0.8556 1.3311 1.588 1.271 2.5204-0.0601 0.9323-1.1466 1.7652-1.6047 2.6598-0.4418 0.863-0.3864 2.0738-1.1919 2.7968-0.8054 0.7231-2.1479 0.668-3.1069 1.0627-0.9941 0.4092-1.9225 1.3853-2.9568 1.4355s-1.8423-0.8418-2.7897-1.1568c-0.91394-0.3039-2.2721-0.1176-2.9891-0.767-0.717-0.6493-0.50471-1.873-0.83779-2.6984-0.34532-0.8556-1.331-1.588-1.271-2.5204 0.0601-0.9323 1.1467-1.7652 1.6047-2.6598 0.4418-0.86297 0.38641-2.0737 1.1918-2.7968 0.80543-0.72309 2.148-0.668 3.107-1.0627 0.99413-0.4092 1.9225-1.3853 2.9567-1.4355 1.0343-0.05017 1.8424 0.84182 2.7898 1.1568 0.9139 0.30382 2.272 0.11771 2.9891 0.76702z" stroke="url(#a)" stroke-miterlimit="10" stroke-width=".134"/>
<path d="m18.572 6.5022c0.7008 0.69217 0.4373 1.9343 0.742 2.7911 0.3159 0.88815 1.2858 1.6762 1.188 2.6266-0.0978 0.9503-1.2319 1.7581-1.7315 2.654-0.4819 0.8642-0.4738 2.1038-1.3186 2.8105-0.8448 0.7068-2.203 0.5968-3.1903 0.9618-1.0235 0.3783-2.003 1.3388-3.053 1.3487-1.0501 0.01-1.8335-0.9339-2.7811-1.2937-0.91406-0.347-2.2976-0.2111-2.9984-0.9033s-0.43726-1.9343-0.74201-2.7911c-0.31596-0.8881-1.2858-1.6761-1.188-2.6264 0.09784-0.9504 1.2319-1.7582 1.7315-2.6541 0.48195-0.86429 0.47373-2.1038 1.3185-2.8106 0.84485-0.7068 2.2031-0.59675 3.1903-0.96173 1.0235-0.37837 2.003-1.3388 3.0531-1.3488 1.05-0.00993 1.8334 0.93393 2.7809 1.2937 0.914 0.34705 2.2976 0.21111 2.9985 0.90328z" stroke="url(#a)" stroke-miterlimit="10" stroke-width=".134"/>
<path d="m18.877 6.6443c0.6827 0.73543 0.3664 1.9942 0.6412 2.882 0.285 0.92032 1.2365 1.7643 1.0997 2.7316s-1.318 1.7474-1.8597 2.643c-0.5227 0.8639-0.5635 2.131-1.4475 2.8195s-2.256 0.5218-3.271 0.8553c-1.0522 0.3457-2.0827 1.2881-3.1471 1.2563-1.0644-0.0318-1.8209-1.0277-2.7667-1.4333-0.91246-0.3912-2.3198-0.3075-3.0026-1.0429-0.68269-0.7355-0.36639-1.9943-0.64126-2.882-0.28497-0.9204-1.2364-1.7643-1.0997-2.7317 0.1368-0.9673 1.318-1.7474 1.8597-2.643 0.5226-0.86394 0.56345-2.131 1.4474-2.8195 0.88406-0.6885 2.256-0.52171 3.271-0.85525 1.0521-0.34575 2.0827-1.2882 3.1471-1.2563 1.0644 0.03185 1.8209 1.0278 2.7668 1.4333 0.9124 0.39122 2.3198 0.30768 3.0025 1.043z" stroke="url(#a)" stroke-miterlimit="10" stroke-width=".134"/>
<path d="m19.182 6.8022c0.6627 0.7788 0.2921 2.0526 0.5355 2.9709 0.2523 0.95192 1.183 1.8524 1.006 2.8354-0.1769 0.9831-1.4047 1.7331-1.9892 2.6267-0.5638 0.8619-0.6554 2.1551-1.5786 2.8234-0.9231 0.6684-2.3066 0.443-3.3483 0.7433-1.0798 0.3113-2.1615 1.2331-3.2387 1.1581-1.0772-0.0751-1.8044-1.123-2.7467-1.5753-0.90909-0.4363-2.3384-0.4071-3.0011-1.186-0.66265-0.7788-0.29216-2.0525-0.53553-2.9708-0.25227-0.9519-1.183-1.8524-1.006-2.8355 0.17695-0.983 1.4048-1.7331 1.9893-2.6266 0.56376-0.86194 0.65536-2.1551 1.5785-2.8234 0.9232-0.66831 2.3067-0.443 3.3484-0.7433 1.0798-0.31126 2.1615-1.2331 3.2388-1.158 1.0772 0.07508 1.8043 1.123 2.7466 1.5753 0.909 0.4363 2.3384 0.4071 3.0011 1.186z" stroke="url(#a)" stroke-miterlimit="10" stroke-width=".134"/>
<path d="m19.482 6.9747c0.6406 0.8224 0.2147 2.1094 0.4249 3.0575 0.2178 0.9828 1.1252 1.9403 0.9069 2.9378-0.2183 0.9976-1.4921 1.715-2.1198 2.6048-0.6054 0.8583-0.7495 2.1763-1.7114 2.8223-0.962 0.646-2.355 0.3604-3.4225 0.6257-1.1065 0.275-2.2391 1.1738-3.3277 1.054-1.0886-0.1199-1.7838-1.2199-2.7209-1.7197-0.90389-0.4822-2.3534-0.5095-2.994-1.3319-0.64057-0.8224-0.2147-2.1094-0.42485-3.0574-0.21787-0.9828-1.1253-1.9404-0.90698-2.9379 0.2183-0.9976 1.4922-1.715 2.1198-2.6048 0.60547-0.85834 0.74953-2.1763 1.7115-2.8223 0.96195-0.64605 2.355-0.36048 3.4224-0.62576 1.1065-0.27496 2.2392-1.1738 3.3278-1.054s1.7838 1.2198 2.7208 1.7197c0.9038 0.48218 2.3534 0.50949 2.994 1.3319z" stroke="url(#a)" stroke-miterlimit="10" stroke-width=".134"/>
<path d="m19.78 7.164c0.6165 0.86606 0.1339 2.1641 0.3094 3.1415 0.1817 1.0131 1.0633 2.0278 0.8025 3.0385-0.2607 1.0107-1.5799 1.6929-2.2512 2.5771-0.6475 0.853-0.8458 2.194-1.8461 2.8158-1.0003 0.6217-2.4006 0.2742-3.4928 0.5026-1.1321 0.2368-2.3155 1.1101-3.4138 0.9441-1.0983-0.166-1.7591-1.3179-2.6888-1.8662-0.89674-0.5289-2.3645-0.6148-2.981-1.4808-0.61652-0.8661-0.13397-2.1642-0.30938-3.1415-0.18181-1.0131-1.0634-2.0279-0.80261-3.0386 0.26075-1.0107 1.58-1.6928 2.2513-2.5771 0.64752-0.85297 0.84575-2.194 1.8462-2.8158 1.0002-0.62174 2.4006-0.27427 3.4926-0.50266 1.1322-0.23678 2.3155-1.11 3.4138-0.94404 1.0984 0.16599 1.7592 1.3179 2.6888 1.8662 0.8969 0.52892 2.3646 0.6148 2.9811 1.4809z" stroke="url(#a)" stroke-miterlimit="10" stroke-width=".134"/>
<path d="m20.077 7.3686c0.5904 0.90971 0.0499 2.217 0.1889 3.2228 0.1441 1.0426 0.9972 2.1149 0.6928 3.1374-0.3042 1.0224-1.6681 1.6668-2.3833 2.5436-0.69 0.8458-0.9441 2.2083-1.9823 2.8038-1.0382 0.5953-2.4433 0.1842-3.5591 0.374-1.1566 0.1966-2.3902 1.0417-3.4966 0.8282-1.1064-0.2134-1.7303-1.4171-2.6506-2.0145-0.88783-0.5764-2.3716-0.7229-2.962-1.6325-0.59041-0.9097-0.04991-2.217-0.18893-3.2228-0.14407-1.0426-0.99711-2.1149-0.69279-3.1374 0.30424-1.0224 1.6682-1.6668 2.3834-2.5436 0.68997-0.84577 0.94403-2.2083 1.9823-2.8038 1.0383-0.59537 2.4434-0.1843 3.5591-0.374 1.1566-0.19663 2.3902-1.0418 3.4967-0.82829 1.1063 0.21349 1.7302 1.4172 2.6506 2.0146 0.8876 0.57635 2.3716 0.7228 2.9619 1.6325z" stroke="url(#a)" stroke-miterlimit="10" stroke-width=".134"/>
<path d="m20.368 7.59c0.5622 0.95326-0.0373 2.2676 0.0637 3.301 0.1047 1.0712 0.9265 2.2011 0.5777 3.2338-0.3489 1.0327-1.7565 1.6367-2.5159 2.5042-0.7327 0.8368-1.0441 2.219-2.1198 2.7859-1.0758 0.567-2.4832 0.0907-3.6213 0.24-1.1798 0.1548-2.4634 0.9691-3.576 0.7066-1.1126-0.2624-1.6972-1.5174-2.606-2.1647-0.87674-0.6245-2.3745-0.8334-2.9367-1.7867s0.03733-2.2676-0.06369-3.3011c-0.10469-1.0712-0.92649-2.2011-0.57765-3.2338 0.34883-1.0328 1.7564-1.6368 2.5159-2.5042 0.73267-0.83674 1.0441-2.219 2.1198-2.786 1.0757-0.56694 2.4832-0.09065 3.6213-0.23994 1.1797-0.15477 2.4633-0.96912 3.576-0.70666 1.1125 0.26246 1.6972 1.5174 2.606 2.1647 0.8768 0.62458 2.3745 0.83355 2.9367 1.7868z" stroke="url(#a)" stroke-miterlimit="10" stroke-width=".134"/>
<path d="m20.655 7.8281c0.5318 0.99662-0.1277 2.3159-0.0663 3.3759 0.0636 1.099 0.8516 2.2865 0.4571 3.328-0.3944 1.0414-1.8447 1.6024-2.6487 2.4585-0.7755 0.8258-1.1459 2.2259-2.2584 2.7623-1.1124 0.5364-2.5198-0.0065-3.6789 0.1004-1.2016 0.111-2.5346 0.8919-3.6516 0.5792-1.117-0.3126-1.6595-1.6185-2.5548-2.3164-0.86366-0.6733-2.3731-0.9467-2.905-1.9433-0.53186-0.9965 0.12772-2.3159 0.06634-3.3759-0.0636-1.0989-0.85158-2.2865-0.45712-3.328 0.39446-1.0414 1.8447-1.6024 2.6487-2.4585 0.77554-0.82582 1.146-2.2259 2.2584-2.7623 1.1124-0.5364 2.5198 0.00659 3.6789-0.10041 1.2016-0.11095 2.5346-0.89191 3.6516-0.5792 1.1171 0.31271 1.6596 1.6185 2.5548 2.3164 0.8636 0.67314 2.3732 0.94668 2.905 1.9433z" stroke="url(#a)" stroke-miterlimit="10" stroke-width=".134"/>
<path d="m20.935 8.0823c0.4993 1.0397-0.2212 2.3616-0.2011 3.4473 0.0208 1.1256 0.7723 2.3707 0.3312 3.4192-0.4409 1.0485-1.9327 1.5638-2.7813 2.4066-0.8186 0.8129-1.2495 2.229-2.398 2.7326-1.1485 0.5037-2.5531-0.1075-3.7319-0.0444-1.222 0.0654-2.6036 0.81-3.7231 0.4459-1.1195-0.3641-1.6175-1.7204-2.4971-2.4694-0.84841-0.7226-2.3671-1.0623-2.8665-2.1021-0.49941-1.0397 0.2212-2.3615 0.20109-3.4473-0.0209-1.1256-0.77232-2.3707-0.33129-3.4192 0.44094-1.0485 1.9328-1.5639 2.7813-2.4066 0.81863-0.81291 1.2495-2.229 2.398-2.7326 1.1486-0.50369 2.5532 0.10752 3.7319 0.04443 1.222-0.0654 2.6037-0.81007 3.7232-0.44591 1.1195 0.36415 1.6175 1.7204 2.4971 2.4694 0.8484 0.72257 2.367 1.0623 2.8665 2.1021z" stroke="url(#a)" stroke-miterlimit="10" stroke-width=".134"/>
<path d="m21.209 8.3535c0.4648 1.0826-0.3178 2.4045-0.3404 3.5149-0.0235 1.1512 0.6886 2.4536 0.2003 3.5075-0.4884 1.0539-2.0204 1.5209-2.9138 2.3481-0.8618 0.798-1.3544 2.2279-2.5382 2.6967s-2.5829-0.2119-3.7799-0.1946c-1.2408 0.0179-2.6704 0.7238-3.7903 0.3068-1.1199-0.4169-1.5708-1.8227-2.4323-2.6234-0.83104-0.7723-2.3565-1.1803-2.8213-2.2628-0.46482-1.0825 0.31776-2.4045 0.34036-3.5149 0.02346-1.1511-0.68859-2.4536-0.20023-3.5075 0.48838-1.0538 2.0204-1.5209 2.9138-2.3481 0.86177-0.79797 1.3545-2.2279 2.5382-2.6967 1.1837-0.46877 2.5829 0.21195 3.7799 0.19466 1.2408-0.01798 2.6704-0.72378 3.7903-0.30681 1.12 0.41689 1.5709 1.8228 2.4324 2.6234 0.831 0.77223 2.3565 1.1802 2.8213 2.2628z" stroke="url(#a)" stroke-miterlimit="10" stroke-width=".134"/>
<path d="m21.475 8.6413c0.4281 1.1248-0.4173 2.4446-0.4842 3.5784-0.0694 1.1754 0.6005 2.5349 0.0638 3.5923-0.5367 1.0575-2.1076 1.4735-3.0456 2.2831-0.9049 0.7811-1.4609 2.2228-2.6789 2.6544-1.2181 0.4319-2.6088-0.3197-3.8224-0.35-1.258-0.0312-2.7346 0.6329-3.8529 0.1621-1.1183-0.4709-1.5195-1.9256-2.3607-2.7782-0.81152-0.8225-2.3411-1.3003-2.7692-2.4252s0.41732-2.4446 0.48426-3.5784c0.06942-1.1755-0.60051-2.5349-0.06377-3.5924 0.53664-1.0575 2.1076-1.4735 3.0456-2.2831 0.9048-0.78104 1.4608-2.2227 2.6789-2.6544 1.218-0.43178 2.6087 0.31981 3.8223 0.35003 1.2581 0.03124 2.7346-0.63287 3.853-0.16205 1.1183 0.47082 1.5194 1.9256 2.3607 2.7782 0.8115 0.82257 2.341 1.3004 2.7691 2.4252z" stroke="url(#a)" stroke-miterlimit="10" stroke-width=".134"/>
<path d="m21.735 8.9468c0.3893 1.1666-0.5197 2.4816-0.6325 3.6376-0.1169 1.1984 0.508 2.6145-0.0777 3.6737-0.5857 1.0591-2.194 1.4215-3.1766 2.2115-0.9479 0.762-1.5683 2.213-2.8197 2.6055s-2.6307-0.4312-3.8593-0.5105c-1.2736-0.0823-2.7961 0.5373-3.9106 0.0115-1.1146-0.5259-1.4634-2.0286-2.282-2.9335-0.78969-0.873-2.3206-1.4224-2.7099-2.5891s0.51978-2.4816 0.63252-3.6376c0.11694-1.1983-0.50797-2.6145 0.07773-3.6736 0.5857-1.0592 2.194-1.4216 3.1766-2.2115 0.94789-0.76195 1.5685-2.2129 2.8198-2.6054 1.2514-0.39258 2.6308 0.43118 3.8594 0.51054 1.2736 0.08226 2.7961-0.53742 3.9107-0.01156 1.1145 0.52586 1.4633 2.0286 2.282 2.9334 0.7896 0.87292 2.3206 1.4224 2.7097 2.5891z" stroke="url(#a)" stroke-miterlimit="10" stroke-width=".134"/>
<path d="m21.985 9.2692c0.3481 1.2078-0.6251 2.5152-0.7852 3.692-0.166 1.22 0.4111 2.6921-0.2244 3.7511s-2.2796 1.3651-3.3065 2.133c-0.9907 0.7408-1.6768 2.1989-2.9605 2.55-1.2836 0.3511-2.6486-0.5458-3.8904-0.676-1.2873-0.135-2.8546 0.4374-3.9631-0.1446-1.1085-0.582-1.4025-2.1314-2.1961-3.089-0.76564-0.9237-2.2951-1.5464-2.6433-2.7543-0.34814-1.2078 0.62499-2.5152 0.78516-3.6921 0.16598-1.22-0.41107-2.6922 0.22436-3.7511 0.63552-1.059 2.2796-1.365 3.3065-2.133 0.99069-0.74081 1.6769-2.1988 2.9605-2.55 1.2836-0.35115 2.6486 0.5458 3.8904 0.676 1.2873 0.135 2.8546-0.43742 3.9631 0.14451 1.1085 0.58201 1.4025 2.1315 2.1961 3.089 0.7656 0.92372 2.2951 1.5465 2.6433 2.7544z" stroke="url(#a)" stroke-miterlimit="10" stroke-width=".134"/>
<path d="m22.227 9.6083c0.3049 1.2482-0.733 2.5453-0.942 3.7416-0.2166 1.2402 0.3099 2.7677-0.376 3.8245-0.686 1.0569-2.364 1.3039-3.4351 2.0476-1.0332 0.7175-1.7864 2.18-3.101 2.4875s-2.6623-0.6636-3.9154-0.8463c-1.2991-0.1894-2.9099 0.3329-4.0101-0.3061-1.1002-0.6391-1.3366-2.2344-2.1029-3.2447-0.73918-0.9745-2.2644-1.6721-2.5693-2.9203-0.30491-1.2482 0.73302-2.5454 0.94198-3.7417 0.21658-1.2401-0.30988-2.7676 0.37606-3.8245 0.68602-1.0568 2.3641-1.3038 3.4352-2.0475 1.0332-0.71753 1.7864-2.1801 3.101-2.4876 1.3146-0.30749 2.6623 0.66368 3.9154 0.84636 1.2991 0.18936 2.9099-0.33291 4.0102 0.30612 1.1001 0.63903 1.3366 2.2344 2.1028 3.2446 0.7391 0.97463 2.2643 1.6722 2.5692 2.9204z" stroke="url(#a)" stroke-miterlimit="10" stroke-width=".134"/>
<path d="m22.456 9.9644c0.2595 1.2878-0.8437 2.5718-1.1028 3.786-0.2686 1.2587 0.2042 2.8407-0.5327 3.8933-0.737 1.0526-2.4472 1.2379-3.562 1.9552-1.0754 0.692-1.8965 2.1564-3.2408 2.4181-1.3444 0.2617-2.6715-0.7846-3.934-1.0214-1.3087-0.2455-2.9618 0.2239-4.0512-0.4731-1.0895-0.6971-1.2658-2.3368-2.0022-3.3999-0.71034-1.0254-2.2283-1.7993-2.4877-3.0871-0.25947-1.2878 0.8437-2.5718 1.1028-3.786 0.26862-1.2588-0.20425-2.8408 0.53271-3.8934s2.4471-1.2379 3.562-1.9552c1.0754-0.69193 1.8966-2.1564 3.2408-2.4181 1.3444-0.26169 2.6715 0.78464 3.934 1.0214 1.3087 0.24552 2.9617-0.22393 4.0512 0.47314 1.0895 0.69706 1.2659 2.3368 2.0022 3.3998 0.7104 1.0254 2.2282 1.7993 2.4877 3.0872z" stroke="url(#a)" stroke-miterlimit="10" stroke-width=".134"/>
<path d="m22.678 10.338c0.2119 1.3265-0.9568 2.5946-1.2674 3.8251-0.3221 1.2756 0.0942 2.9112-0.6942 3.9574-0.7885 1.0463-2.5288 1.1672-3.6869 1.8556-1.1171 0.6642-2.0073 2.128-3.3798 2.3416-1.3726 0.2137-2.6758-0.9086-3.9458-1.2011-1.3165-0.3032-3.01 0.1105-4.0864-0.6455-1.0764-0.7559-1.19-2.4387-1.8941-3.5545-0.67917-1.0764-2.1866-1.9279-2.3984-3.2543s0.95687-2.5946 1.2675-3.825c0.32204-1.2756-0.09434-2.9112 0.69415-3.9575 0.7885-1.0462 2.5288-1.1672 3.6868-1.8556 1.1171-0.66411 2.0073-2.1279 3.3798-2.3416 1.3725-0.21367 2.6758 0.90868 3.9458 1.2011 1.3165 0.30321 3.01-0.11043 4.0864 0.64553 1.0763 0.75588 1.1899 2.4387 1.894 3.5545 0.6792 1.0764 2.1866 1.9279 2.3984 3.2542z" stroke="url(#a)" stroke-miterlimit="10" stroke-width=".134"/>
<path d="m22.885 10.728c0.1622 1.364-1.0724 2.6132-1.4361 3.8583-0.3769 1.2907-0.0197 2.9788-0.8602 4.0166-0.8405 1.0376-2.6086 1.0916-3.8094 1.7489-1.1583 0.634-2.1184 2.0944-3.5176 2.2579-1.3993 0.1635-2.6754-1.0356-3.9507-1.3852-1.322-0.3625-3.0545-0.0076-4.1152-0.8231-1.0607-0.8156-1.1092-2.5398-1.7783-3.7082-0.64553-1.1271-2.1392-2.0575-2.3013-3.4216-0.16213-1.364 1.0724-2.6132 1.4361-3.8583 0.37691-1.2906 0.01978-2.9789 0.86023-4.0165 0.84045-1.0377 2.6087-1.0917 3.8094-1.749 1.1584-0.63397 2.1184-2.0944 3.5177-2.2579 1.3992-0.1635 2.6753 1.0355 3.9506 1.3852 1.322 0.36245 3.0545 0.00753 4.1152 0.82308 1.0607 0.81554 1.1092 2.5398 1.7784 3.7082 0.6455 1.1271 2.1391 2.0576 2.3012 3.4215z" stroke="url(#a)" stroke-miterlimit="10" stroke-width=".134"/>
<path d="m23.08 11.136c0.1102 1.4004-1.1903 2.6277-1.6082 3.8856-0.433 1.3038-0.1381 3.0433-1.0309 4.0701-0.8927 1.0268-2.6866 1.0115-3.9294 1.6351-1.1989 0.6016-2.2296 2.0556-3.6539 2.1667-1.4244 0.1111-2.67-1.1653-3.9484-1.5736-1.3252-0.4233-3.0948-0.1298-4.1373-1.0055-1.0425-0.8759-1.0232-2.6399-1.655-3.8607-0.60942-1.1776-2.0861-2.1883-2.1963-3.5887-0.11017-1.4004 1.1903-2.6277 1.6082-3.8855 0.43307-1.304 0.13816-3.0434 1.0309-4.0702 0.89276-1.0268 2.6866-1.0114 3.9294-1.635 1.1989-0.60163 2.2296-2.0556 3.6539-2.1667 1.4244-0.11112 2.67 1.1652 3.9483 1.5736 1.3252 0.42331 3.0948 0.12978 4.1373 1.0056 1.0425 0.87581 1.0232 2.6398 1.655 3.8606 0.6094 1.1778 2.0861 2.1884 2.1963 3.5887z" stroke="url(#a)" stroke-miterlimit="10" stroke-width=".134"/>
<path d="m23.262 11.56c0.0562 1.4355-1.3103 2.6377-1.7835 3.9064-0.4905 1.3152-0.2606 3.1047-1.206 4.1183-0.9453 1.0137-2.7625 0.9262-4.0465 1.5139-1.2387 0.5668-2.3408 2.0116-3.7886 2.0681-1.4477 0.0567-2.6592-1.2976-3.9384-1.7659-1.326-0.4856-3.1309-0.2564-4.1525-1.193-1.0216-0.9367-0.93222-2.7387-1.524-4.0115-0.57089-1.2279-2.0271-2.3197-2.0832-3.7552-0.056154-1.4355 1.3103-2.6377 1.7835-3.9064 0.49051-1.3152 0.26058-3.1047 1.206-4.1183 0.94541-1.0136 2.7625-0.92615 4.0466-1.5138 1.2387-0.56687 2.3408-2.0116 3.7885-2.0682 1.4477-0.056669 2.6593 1.2976 3.9384 1.7659 1.326 0.48555 3.1309 0.25639 4.1525 1.1931s0.9322 2.7386 1.524 4.0115c0.5708 1.2279 2.027 2.3196 2.0832 3.7552z" stroke="url(#a)" stroke-miterlimit="10" stroke-width=".134"/>
<path d="m23.429 12c0 1.4692-1.4323 2.6432-1.9621 3.9208-0.5493 1.3245-0.3872 3.1623-1.3853 4.1604s-2.8359 0.836-4.1604 1.3853c-1.2776 0.5297-2.4516 1.9621-3.9208 1.9621s-2.6432-1.4324-3.9208-1.9621c-1.3245-0.5493-3.1623-0.3872-4.1604-1.3853-0.99804-0.9981-0.836-2.8359-1.3852-4.1604-0.5298-1.2776-1.9621-2.4516-1.9621-3.9208s1.4323-2.6432 1.9621-3.9208c0.54923-1.3245 0.38719-3.1623 1.3852-4.1604 0.99814-0.99804 2.836-0.836 4.1604-1.3852 1.2776-0.5298 2.4516-1.9621 3.9208-1.9621s2.6432 1.4323 3.9208 1.9621c1.3245 0.54923 3.1623 0.38719 4.1604 1.3852 0.9981 0.99814 0.836 2.836 1.3853 4.1604 0.5298 1.2776 1.9621 2.4516 1.9621 3.9208z" stroke="url(#a)" stroke-miterlimit="10" stroke-width=".134"/>
<path d="m28.877 8.5852h1.4674v0.93258c0.1828-0.28343 0.4434-0.512 0.7817-0.68572 0.3474-0.18286 0.704-0.27428 1.0697-0.27428h0.8229v1.3714h-0.8229c-0.5211 0-0.9417 0.16002-1.2617 0.48002s-0.48 0.736-0.48 1.248v3.7714h-1.5771v-6.8434zm7.0134 6.9531c-0.6948 0-1.2571-0.1737-1.6868-0.5211-0.4206-0.3566-0.6309-0.8274-0.6309-1.4126v-0.4937c0-0.576 0.2195-1.0377 0.6583-1.3851 0.448-0.3475 1.0332-0.5212 1.7554-0.5212h0.8503c0.256 0 0.5303 0.0366 0.8229 0.1097 0.2926 0.0732 0.5531 0.1692 0.7817 0.288v-0.8503c0-0.2834-0.0914-0.512-0.2743-0.6857-0.1828-0.17369-0.4206-0.26054-0.7131-0.26054h-1.152c-0.3017 0-0.544 0.07314-0.7269 0.21944-0.1828 0.1371-0.2743 0.32-0.2743 0.5486h-1.536c0-0.6309 0.2332-1.1383 0.6995-1.5223 0.4662-0.384 1.0788-0.576 1.8377-0.576h1.152c0.768 0 1.3851 0.21029 1.8514 0.63086 0.4663 0.41143 0.6994 0.95997 0.6994 1.6457v4.6766h-1.4674v-0.864c-0.2194 0.2926-0.4937 0.5303-0.8229 0.7132-0.3291 0.1737-0.6537 0.2605-0.9737 0.2605h-0.8503zm0.9463-1.2343c0.3657 0 0.6949-0.1005 0.9875-0.3017 0.2925-0.2103 0.4982-0.4845 0.6171-0.8228v-0.3292c-0.1554-0.128-0.3749-0.2285-0.6583-0.3017-0.2834-0.0823-0.5806-0.1234-0.8914-0.1234h-0.864c-0.2743 0-0.4983 0.0686-0.672 0.2057-0.1646 0.1371-0.2469 0.3154-0.2469 0.5349v0.384c0 0.2285 0.0869 0.4114 0.2606 0.5485 0.1737 0.1372 0.4023 0.2057 0.6857 0.2057h0.7817zm7.1753 1.2343c-0.7772 0-1.408-0.2423-1.8926-0.7268-0.4754-0.4937-0.7131-1.1383-0.7131-1.9337v-1.5909c0-0.5577 0.1143-1.0469 0.3428-1.4674 0.2286-0.42971 0.5486-0.75886 0.96-0.98743 0.4206-0.23771 0.9006-0.35657 1.44-0.35657h0.8366c0.2834 0 0.5623 0.064 0.8366 0.192 0.2834 0.128 0.5165 0.29714 0.6994 0.50743v-3.3463h1.5634v9.6h-1.4674v-0.9463c-0.192 0.32-0.448 0.576-0.768 0.768s-0.6446 0.288-0.9737 0.288h-0.864zm0.9874-1.3577c0.3932 0 0.7314-0.1554 1.0149-0.4663 0.2925-0.32 0.4617-0.7131 0.5074-1.1794v-1.3714c-0.064-0.3932-0.2194-0.7132-0.4663-0.96-0.2377-0.24689-0.5257-0.37032-0.864-0.37032h-0.8777c-0.4023 0-0.7269 0.14172-0.9737 0.42512-0.2377 0.2835-0.3566 0.6537-0.3566 1.1109v1.4126c0 0.4205 0.1097 0.7588 0.3292 1.0148 0.2285 0.256 0.5165 0.384 0.864 0.384h0.8228zm6.9357 1.3577c-0.6949 0-1.2572-0.1737-1.6869-0.5211-0.4206-0.3566-0.6308-0.8274-0.6308-1.4126v-0.4937c0-0.576 0.2194-1.0377 0.6582-1.3851 0.448-0.3475 1.0332-0.5212 1.7555-0.5212h0.8503c0.256 0 0.5302 0.0366 0.8228 0.1097 0.2926 0.0732 0.5532 0.1692 0.7817 0.288v-0.8503c0-0.2834-0.0914-0.512-0.2743-0.6857-0.1828-0.17369-0.4205-0.26054-0.7131-0.26054h-1.152c-0.3017 0-0.544 0.07314-0.7269 0.21944-0.1828 0.1371-0.2742 0.32-0.2742 0.5486h-1.536c0-0.6309 0.2331-1.1383 0.6994-1.5223s1.0788-0.576 1.8377-0.576h1.152c0.768 0 1.3851 0.21029 1.8514 0.63086 0.4663 0.41143 0.6995 0.95997 0.6995 1.6457v4.6766h-1.4675v-0.864c-0.2194 0.2926-0.4937 0.5303-0.8228 0.7132-0.3292 0.1737-0.6537 0.2605-0.9737 0.2605h-0.8503zm0.9463-1.2343c0.3657 0 0.6948-0.1005 0.9874-0.3017 0.2926-0.2103 0.4983-0.4845 0.6171-0.8228v-0.3292c-0.1554-0.128-0.3748-0.2285-0.6583-0.3017-0.2834-0.0823-0.5805-0.1234-0.8914-0.1234h-0.864c-0.2743 0-0.4983 0.0686-0.672 0.2057-0.1646 0.1371-0.2468 0.3154-0.2468 0.5349v0.384c0 0.2285 0.0868 0.4114 0.2605 0.5485 0.1737 0.1372 0.4023 0.2057 0.6857 0.2057h0.7818zm4.8436-5.7188h1.4674v0.93258c0.1828-0.28343 0.4434-0.512 0.7817-0.68572 0.3474-0.18286 0.704-0.27428 1.0697-0.27428h0.8229v1.3714h-0.8229c-0.5211 0-0.9417 0.16002-1.2617 0.48002s-0.48 0.736-0.48 1.248v3.7714h-1.5771v-6.8434z" fill="#fff"/>
<path d="m65.695 8.5852h0.7132v1.0697c0.2011-0.35657 0.4662-0.64 0.7954-0.85029 0.3383-0.21943 0.6811-0.32914 1.0286-0.32914h1.0011c0.6949 0 1.2526 0.22857 1.6731 0.68571 0.4298 0.448 0.6446 1.0423 0.6446 1.7828v1.8652c0 0.8228-0.2148 1.4857-0.6446 1.9886-0.4297 0.4937-1.0057 0.7405-1.728 0.7405h-1.0011c-0.3291 0-0.6537-0.096-0.9737-0.288-0.3109-0.192-0.5669-0.448-0.768-0.768v3.6755h-0.7406v-9.5726zm3.4697 6.2948c0.5029 0 0.9052-0.1874 1.2069-0.5622 0.3017-0.384 0.4526-0.8869 0.4526-1.5086v-1.8652c0-0.5394-0.1463-0.97367-0.4389-1.3028-0.2926-0.33828-0.6811-0.50742-1.1657-0.50742h-0.9874c-0.4023 0-0.7726 0.16457-1.1109 0.49371-0.3291 0.32-0.5577 0.70853-0.6857 1.1657v2.3588c0.0823 0.4572 0.288 0.8595 0.6171 1.2069 0.3292 0.3474 0.7132 0.5211 1.152 0.5211h0.96zm4.3652-6.2948h0.7131v1.1109c0.2012-0.34743 0.4892-0.62171 0.864-0.82286 0.3749-0.21028 0.7772-0.31542 1.2069-0.31542h0.5074v0.65828h-0.5212c-0.5942 0-1.0834 0.192-1.4674 0.576-0.3748 0.38396-0.5623 0.88226-0.5623 1.4949v4.1417h-0.7405v-6.8434zm6.7205 6.9531c-0.7314 0-1.3211-0.2285-1.7691-0.6857-0.448-0.4663-0.672-1.0743-0.672-1.824v-2.0434c0-0.7497 0.224-1.3532 0.672-1.8103 0.4571-0.46629 1.056-0.69943 1.7966-0.69943h1.0834c0.7406 0 1.3349 0.23314 1.7829 0.69943 0.4571 0.45714 0.6857 1.0606 0.6857 1.8103v2.0434c0 0.7497-0.2286 1.3577-0.6857 1.824-0.4572 0.4572-1.0606 0.6857-1.8103 0.6857h-1.0835zm1.0835-0.6583c0.5303 0 0.9554-0.1691 1.2754-0.5074 0.3291-0.3383 0.4937-0.7863 0.4937-1.344v-2.0434c0-0.5577-0.16-1.0057-0.48-1.344-0.32-0.33828-0.7406-0.50742-1.2617-0.50742h-1.0834c-0.5212 0-0.9417 0.16914-1.2617 0.50742-0.3109 0.33829-0.4663 0.78632-0.4663 1.344v2.0434c0 0.5577 0.1554 1.0057 0.4663 1.344 0.3108 0.3383 0.7222 0.5074 1.2342 0.5074h1.0835zm7.0028 0.5486c-0.6948 0-1.1931-0.1463-1.4948-0.4388-0.3017-0.3018-0.4526-0.7955-0.4526-1.4812v-4.2651h-1.2069v-0.65829h1.2069v-2.0708h0.7269v2.0708h1.7828v0.65829h-1.7828v4.2651c0 0.448 0.0914 0.7726 0.2742 0.9737 0.1829 0.192 0.4892 0.288 0.9189 0.288h0.5897v0.6583h-0.5623zm4.4897 0.1097c-0.7314 0-1.3211-0.2285-1.7691-0.6857-0.448-0.4663-0.672-1.0743-0.672-1.824v-2.0434c0-0.7497 0.224-1.3532 0.672-1.8103 0.4571-0.46629 1.056-0.69943 1.7966-0.69943h1.0834c0.7406 0 1.3348 0.23314 1.7828 0.69943 0.4572 0.45714 0.6858 1.0606 0.6858 1.8103v2.0434c0 0.7497-0.2286 1.3577-0.6858 1.824-0.4571 0.4572-1.0605 0.6857-1.8102 0.6857h-1.0835zm1.0835-0.6583c0.5302 0 0.9554-0.1691 1.2754-0.5074 0.3291-0.3383 0.4937-0.7863 0.4937-1.344v-2.0434c0-0.5577-0.16-1.0057-0.48-1.344-0.32-0.33828-0.7406-0.50742-1.2617-0.50742h-1.0834c-0.5212 0-0.9418 0.16914-1.2618 0.50742-0.3108 0.33829-0.4662 0.78632-0.4662 1.344v2.0434c0 0.5577 0.1554 1.0057 0.4662 1.344 0.3109 0.3383 0.7223 0.5074 1.2343 0.5074h1.0835zm6.5758 0.6583c-0.7136 0-1.2896-0.2194-1.7284-0.6583-0.4297-0.448-0.6446-1.0331-0.6446-1.7554v-2.112c0-0.7588 0.2149-1.3714 0.6446-1.8377 0.4388-0.46629 1.0103-0.69943 1.7144-0.69943h1.124c0.668 0 1.203 0.18286 1.605 0.54857 0.411 0.36572 0.617 0.84572 0.617 1.44h-0.713c0-0.4022-0.142-0.72224-0.425-0.95996-0.274-0.24686-0.636-0.37028-1.084-0.37028h-1.124c-0.4847 0-0.8778 0.17371-1.1795 0.52114-0.2926 0.33828-0.4389 0.7909-0.4389 1.3577v2.112c0 0.5303 0.1463 0.9554 0.4389 1.2754 0.3017 0.32 0.6994 0.48 1.1935 0.48h1.124c0.457 0 0.828-0.16 1.111-0.48s0.425-0.7405 0.425-1.2617h0.713c0 0.7223-0.205 1.3029-0.617 1.7417-0.411 0.4389-0.955 0.6583-1.632 0.6583h-1.124zm7.327 0c-0.731 0-1.321-0.2285-1.769-0.6857-0.448-0.4663-0.672-1.0743-0.672-1.824v-2.0434c0-0.7497 0.224-1.3532 0.672-1.8103 0.457-0.46629 1.056-0.69943 1.796-0.69943h1.084c0.74 0 1.335 0.23314 1.783 0.69943 0.457 0.45714 0.685 1.0606 0.685 1.8103v2.0434c0 0.7497-0.228 1.3577-0.685 1.824-0.457 0.4572-1.061 0.6857-1.811 0.6857h-1.083zm1.083-0.6583c0.531 0 0.956-0.1691 1.276-0.5074 0.329-0.3383 0.494-0.7863 0.494-1.344v-2.0434c0-0.5577-0.16-1.0057-0.48-1.344-0.32-0.33828-0.741-0.50742-1.262-0.50742h-1.084c-0.521 0-0.941 0.16914-1.261 0.50742-0.311 0.33829-0.467 0.78632-0.467 1.344v2.0434c0 0.5577 0.156 1.0057 0.467 1.344s0.722 0.5074 1.234 0.5074h1.083zm6.138 0.5486c-0.595 0-1.02-0.1371-1.276-0.4114s-0.384-0.7314-0.384-1.3714v-7.8172h0.741v7.8172c0 0.4022 0.068 0.6902 0.205 0.864 0.147 0.1737 0.384 0.2605 0.714 0.2605h0.438v0.6583h-0.438z" fill="#fff"/>
<defs>
<linearGradient id="a" x1=".57227" x2="22.858" y1="12" y2="12" gradientUnits="userSpaceOnUse">
<stop stop-color="#E926C3" offset="0"/>
<stop stop-color="#FF4D86" offset="1"/>
</linearGradient>
</defs>
</svg>
