<svg width="18" height="14" viewBox="0 0 18 14" fill="none" xmlns="http://www.w3.org/2000/svg">
<path d="M5.94 13.705C7.20685 13.713 8.46268 13.4693 9.63465 12.9882C10.8066 12.507 11.8714 11.798 12.7672 10.9022C13.663 10.0064 14.3721 8.9416 14.8532 7.76964C15.3343 6.59767 15.578 5.34184 15.57 4.07499C15.57 3.92499 15.57 3.78249 15.57 3.63249C16.2267 3.15136 16.7951 2.56012 17.25 1.88499C16.6316 2.15544 15.9773 2.3348 15.3075 2.41749C16.0177 1.99432 16.5506 1.32824 16.8075 0.542488C16.1456 0.939569 15.4199 1.21871 14.6625 1.36749C14.1524 0.824013 13.4775 0.46378 12.7421 0.342528C12.0067 0.221275 11.2518 0.345763 10.5943 0.696729C9.93678 1.04769 9.41324 1.60557 9.1047 2.28405C8.79617 2.96252 8.71983 3.72376 8.8875 4.44999C7.54202 4.38395 6.22553 4.03525 5.02377 3.42662C3.822 2.81798 2.7619 1.96305 1.9125 0.917488C1.48419 1.66087 1.35437 2.53923 1.54932 3.37473C1.74427 4.21023 2.24942 4.94043 2.9625 5.41749C2.43646 5.3972 1.92259 5.25332 1.4625 4.99749V5.03499C1.45783 5.81186 1.71954 6.56688 2.20403 7.17419C2.68851 7.7815 3.3665 8.20443 4.125 8.37249C3.63573 8.50408 3.12322 8.52458 2.625 8.43249C2.84459 9.09503 3.26376 9.67341 3.82503 10.0883C4.38631 10.5032 5.06219 10.7344 5.76 10.75C4.56691 11.7104 3.08407 12.239 1.5525 12.25C1.28396 12.2422 1.01606 12.2197 0.75 12.1825C2.30022 13.1702 4.1019 13.6909 5.94 13.6825" fill="white"/>
</svg>
