<svg width="24" height="24" viewBox="0 0 24 24" fill="none" xmlns="http://www.w3.org/2000/svg">
<path d="M20.8623 14.3427C20.4758 14.6048 19.973 14.6375 19.5532 14.4287C19.0712 14.1584 18.8094 13.5276 18.8094 12.6717V10.0382C18.8094 8.7727 18.3023 7.87577 17.4504 7.63003C16.0166 7.21638 14.9444 8.94881 14.533 9.6L11.9938 13.6505V8.70717C11.9647 7.5686 11.5906 6.88464 10.8758 6.67986C10.4062 6.54471 9.69974 6.59795 9.01403 7.63003L3.33714 16.6116C2.58078 15.1904 2.18597 13.6055 2.19429 12C2.19429 6.58567 6.58286 2.18294 11.9938 2.18294C17.4047 2.18294 21.8057 6.58567 21.8057 12V12.0287C21.8057 12.0287 21.8057 12.0491 21.8057 12.0573C21.8597 13.1017 21.5148 13.9372 20.8623 14.3427ZM24 12V11.9468C23.9543 5.3529 18.5849 0 11.9938 0C5.4026 0 0 5.38157 0 12C0 18.6184 5.37766 24 11.9938 24C15.0275 24 17.9449 22.8532 20.1475 20.7973C20.5922 20.3836 20.6171 19.6956 20.2057 19.2532C19.8068 18.8191 19.1294 18.7863 18.6847 19.1795L18.6805 19.1836C14.7948 22.8164 8.65662 22.6567 4.97039 18.8273C4.87896 18.7331 4.79169 18.6389 4.70442 18.5406L9.81195 10.4437V14.1788C9.81195 15.9727 10.5184 16.5543 11.1086 16.7263C11.6987 16.8983 12.6088 16.7795 13.5564 15.2601L16.3823 10.7549C16.4696 10.6116 16.5527 10.4846 16.6317 10.3782V12.6676C16.6317 14.3468 17.3132 15.686 18.5143 16.3495C19.6239 16.9393 20.9704 16.886 22.0301 16.2102C23.3475 15.3666 24.0665 13.8389 23.9917 12H24Z" fill="white"/>
</svg>
