<svg width="22" height="22" viewBox="0 0 22 22" fill="none" xmlns="http://www.w3.org/2000/svg">
<path d="M11 0.5C8.9233 0.5 6.89323 1.11581 5.16652 2.26957C3.4398 3.42332 2.09399 5.0632 1.29927 6.98182C0.504549 8.90045 0.296614 11.0116 0.701759 13.0484C1.1069 15.0852 2.10693 16.9562 3.57538 18.4246C5.04383 19.8931 6.91476 20.8931 8.95156 21.2982C10.9884 21.7034 13.0996 21.4955 15.0182 20.7007C16.9368 19.906 18.5767 18.5602 19.7304 16.8335C20.8842 15.1068 21.5 13.0767 21.5 11C21.5 8.21523 20.3938 5.54451 18.4246 3.57538C16.4555 1.60625 13.7848 0.5 11 0.5ZM20 10.25H15.5C15.4125 7.48781 14.6969 4.78186 13.4075 2.3375C15.1839 2.82342 16.7685 3.84263 17.9474 5.25757C19.1263 6.6725 19.8427 8.41504 20 10.25ZM11 20C10.8327 20.0112 10.6648 20.0112 10.4975 20C8.94372 17.5221 8.08139 14.6736 8 11.75H14C13.9254 14.6715 13.0709 17.5199 11.525 20C11.3502 20.0123 11.1748 20.0123 11 20ZM8 10.25C8.07462 7.32851 8.92914 4.48012 10.475 2C10.809 1.96247 11.1461 1.96247 11.48 2C13.0417 4.4756 13.9119 7.3243 14 10.25H8ZM8.57001 2.3375C7.28848 4.78373 6.5806 7.48959 6.5 10.25H2C2.15728 8.41504 2.87371 6.6725 4.0526 5.25757C5.23149 3.84263 6.81608 2.82342 8.5925 2.3375H8.57001ZM2.0375 11.75H6.53751C6.61577 14.5098 7.32108 17.2156 8.60001 19.6625C6.82915 19.1714 5.25109 18.1499 4.07792 16.7354C2.90475 15.3209 2.19271 13.5811 2.0375 11.75ZM13.4075 19.6625C14.6969 17.2181 15.4125 14.5122 15.5 11.75H20C19.8427 13.585 19.1263 15.3275 17.9474 16.7424C16.7685 18.1574 15.1839 19.1766 13.4075 19.6625Z" fill="white"/>
</svg>
